<svg width="50" height="50" viewBox="5 5 40 40" fill="none" xmlns="http://www.w3.org/2000/svg">
<path d="M25 45C13.9543 45 5 36.0457 5 25C5 13.9543 13.9543 5 25 5C36.0457 5 45 13.9543 45 25C45 36.0457 36.0457 45 25 45Z" fill="url(#paint0_linear_71_2142)"/>
<path d="M16.2447 32.9691L23.0076 16.6186C23.3891 15.7732 23.9561 15.3608 24.7035 15.3608H25.3014C26.0488 15.3608 26.6159 15.7732 26.9973 16.6186L29.9406 23.7423H32.1674C32.8324 23.7474 33.3736 24.2835 33.3787 24.9536V24.9691C33.3736 25.634 32.8324 26.1753 32.1674 26.1804H30.9715L33.7808 32.9691C33.8324 33.1186 33.8633 33.2732 33.8633 33.433C33.8633 33.8144 33.7447 34.1134 33.5334 34.3454C33.322 34.5773 33.0179 34.6907 32.6365 34.6907C32.3839 34.6856 32.1416 34.6083 31.9406 34.4588C31.7241 34.3093 31.5746 34.0928 31.4561 33.8454L28.3633 26.1753H26.219C25.554 26.1701 25.0128 25.634 25.0076 24.9639V24.933C25.0128 24.2681 25.554 23.7268 26.219 23.7217H27.3633L25.0025 17.8402L18.5695 33.8402C18.4509 34.0876 18.3014 34.3041 18.0849 34.4536C17.8839 34.6031 17.6365 34.6804 17.3891 34.6856C17.0076 34.6856 16.7086 34.5722 16.4921 34.3402C16.2757 34.1083 16.1622 33.8093 16.1622 33.4278C16.1571 33.2732 16.1829 33.1134 16.2447 32.9691Z" fill="white"/>
<defs>
<linearGradient id="paint0_linear_71_2142" x1="10.0883" y1="12.4529" x2="39.8483" y2="37.4929" gradientUnits="userSpaceOnUse">
<stop stop-color="#B6509E"/>
<stop offset="1" stop-color="#2EBAC6"/>
</linearGradient>
</defs>
</svg>
