<svg width="50" height="50" viewBox="5 5 40 40" fill="none" xmlns="http://www.w3.org/2000/svg">
<rect width="50" height="50" fill="#92D36F"/>
<path d="M25.0006 9.7504C25.7436 9.74805 26.4725 9.95373 27.1047 10.3442C27.7369 10.7346 28.2472 11.2942 28.5778 11.9596L39.8277 34.4596C40.133 35.0694 40.2773 35.7472 40.2469 36.4285C40.2164 37.1098 40.0123 37.772 39.6538 38.3522C39.2954 38.9324 38.7945 39.4113 38.1989 39.7434C37.6032 40.0755 36.9325 40.2497 36.2506 40.2496H13.7506C13.0688 40.2495 12.3982 40.0751 11.8027 39.7429C11.2072 39.4107 10.7066 38.9318 10.3482 38.3517C9.98994 37.7715 9.7859 37.1094 9.75552 36.4282C9.72514 35.747 9.86942 35.0693 10.1747 34.4596L21.4234 11.9596C21.754 11.2942 22.2643 10.7346 22.8965 10.3442C23.5287 9.95373 24.2576 9.74805 25.0006 9.7504V9.7504ZM25.0006 7C23.7473 6.99988 22.5186 7.34871 21.4524 8.00743C20.3861 8.66615 19.5243 9.60873 18.9634 10.7296L7.71347 33.2296C7.19853 34.2588 6.95526 35.4025 7.00677 36.5521C7.05828 37.7018 7.40286 38.8192 8.00778 39.7982C8.6127 40.7771 9.45787 41.5852 10.463 42.1456C11.4681 42.706 12.5998 43.0001 13.7506 43H36.2506C37.4012 42.9999 38.5328 42.7057 39.5378 42.1452C40.5428 41.5847 41.3878 40.7766 41.9925 39.7976C42.5973 38.8187 42.9418 37.7014 42.9932 36.5518C43.0447 35.4023 42.8014 34.2587 42.2865 33.2296L31.0378 10.7296C30.4769 9.60873 29.6151 8.66615 28.5488 8.00743C27.4826 7.34871 26.2539 6.99988 25.0006 7V7Z" fill="white"/>
</svg>
