<svg width="50" height="50" viewBox="0 0 50 50" fill="none" xmlns="http://www.w3.org/2000/svg">
<path d="M37.3426 11.8442H12.6289V34.3209H37.3426V11.8442Z" fill="white"/>
<path fill-rule="evenodd" clip-rule="evenodd" d="M45 25C45 36.0458 36.0458 45 25 45C13.9543 45 5 36.0458 5 25C5 13.9543 13.9543 5 25 5C36.0458 5 45 13.9543 45 25ZM19.3326 32.959H15.4511C14.6355 32.959 14.2326 32.959 13.987 32.8019C13.7217 32.6298 13.5595 32.3449 13.5399 32.0304C13.5251 31.7406 13.7266 31.3867 14.1295 30.6792L23.7132 13.7866C24.121 13.0692 24.3274 12.7105 24.5878 12.5779C24.8678 12.4354 25.2019 12.4354 25.482 12.5779C25.7424 12.7105 25.9488 13.0692 26.3565 13.7866L28.3268 17.2258L28.3368 17.2434C28.7773 18.0129 29.0006 18.4032 29.0981 18.8128C29.2062 19.2599 29.2062 19.7315 29.0981 20.1786C28.9999 20.5913 28.7788 20.9844 28.3317 21.7656L23.2975 30.6645L23.2845 30.6873C22.8412 31.4632 22.6165 31.8565 22.3051 32.1531C21.9661 32.4775 21.5583 32.7132 21.1112 32.8461C20.7034 32.959 20.2464 32.959 19.3326 32.959ZM29.1345 32.959H34.6961C35.5166 32.959 35.9294 32.959 36.1752 32.7971C36.4405 32.625 36.6075 32.335 36.6224 32.0208C36.6365 31.7403 36.4394 31.4003 36.0533 30.7339C36.0399 30.7112 36.0266 30.6881 36.013 30.6646L33.2272 25.8988L33.1955 25.8451C32.804 25.1831 32.6064 24.8488 32.3526 24.7196C32.0727 24.5771 31.7433 24.5771 31.4634 24.7196C31.2079 24.8523 31.0015 25.2011 30.5937 25.9037L27.8177 30.6695L27.8082 30.6859C27.4019 31.3874 27.1988 31.7379 27.2134 32.0256C27.2331 32.3401 27.3952 32.6298 27.6605 32.8019C27.9013 32.959 28.314 32.959 29.1345 32.959Z" fill="#E84142"/>
</svg>
