<svg width="50" height="50" viewBox="0 0 50 50" fill="none" xmlns="http://www.w3.org/2000/svg">
<rect width="50" height="50" fill="#FBCC5C"/>
<path d="M20.7895 40.7893C27.1853 40.7893 32.3684 35.6062 32.3684 29.2104C32.3684 22.8146 27.1853 17.6314 20.7895 17.6314C14.3937 17.6314 9.21053 22.8146 9.21053 29.2104C9.21053 35.6062 14.3937 40.7893 20.7895 40.7893ZM20.7895 44.9998C12.0695 44.9998 5 37.9304 5 29.2104C5 20.4904 12.0695 13.4209 20.7895 13.4209C29.5095 13.4209 36.5789 20.4904 36.5789 29.2104C36.5789 37.9304 29.5095 44.9998 20.7895 44.9998Z" fill="white"/>
<path d="M29.2113 32.3684C35.6071 32.3684 40.7903 27.1853 40.7903 20.7895C40.7903 14.3937 35.6071 9.21053 29.2113 9.21053C22.8156 9.21053 17.6324 14.3937 17.6324 20.7895C17.6324 27.1853 22.8156 32.3684 29.2113 32.3684ZM29.2113 36.5789C20.4913 36.5789 13.4219 29.5095 13.4219 20.7895C13.4219 12.0695 20.4913 5 29.2113 5C37.9313 5 45.0008 12.0695 45.0008 20.7895C45.0008 29.5095 37.9313 36.5789 29.2113 36.5789Z" fill="white"/>
<path d="M29.7335 36.5788C30.8282 35.2525 31.6113 33.6988 32.0282 32.0272C33.6956 31.6104 35.2492 30.8272 36.5798 29.7325C36.5208 31.6651 36.104 33.5683 35.3503 35.3535C33.5692 36.103 31.6661 36.5198 29.7335 36.5788ZM17.9735 17.9725C16.3061 18.3893 14.7524 19.1725 13.4219 20.2672C13.4808 18.3346 13.8977 16.4314 14.6513 14.6504C16.4324 13.9009 18.3398 13.4841 20.2682 13.4209C19.1735 14.7472 18.3903 16.3009 17.9735 17.9725Z" fill="white"/>
</svg>
