<svg width="50" height="50" viewBox="0 0 50 50" fill="none" xmlns="http://www.w3.org/2000/svg">
<path d="M25 5C36.0467 5 45 13.9551 45 25C45 36.0467 36.0467 45 25 45C13.9551 45 5 36.0458 5 25C5 13.9551 13.9551 5 25 5Z" fill="#F5AC37"/>
<path d="M25.7305 26.4025H33.3302C33.4922 26.4025 33.5687 26.4025 33.5804 26.1901C33.6425 25.417 33.6425 24.6394 33.5804 23.8654C33.5804 23.7151 33.5057 23.653 33.3428 23.653H18.2181C18.0309 23.653 17.9805 23.7151 17.9805 23.8906V26.1154C17.9805 26.4025 17.9805 26.4025 18.2802 26.4025H25.7305V26.4025ZM32.7317 21.0529C32.7533 20.9962 32.7533 20.9341 32.7317 20.8783C32.6048 20.602 32.4545 20.3383 32.2798 20.0908C32.017 19.6677 31.7074 19.278 31.3546 18.9279C31.1881 18.7164 30.9955 18.5265 30.7795 18.3654C29.6977 17.4447 28.4116 16.7931 27.0292 16.4655C26.3317 16.3089 25.6189 16.2342 24.9043 16.2405H18.192C18.0048 16.2405 17.9796 16.3152 17.9796 16.4781V20.9152C17.9796 21.1024 17.9796 21.1528 18.2172 21.1528H32.6417C32.6417 21.1528 32.7668 21.1276 32.792 21.0529H32.7308H32.7317ZM32.7317 29.0026C32.5193 28.9792 32.3051 28.9792 32.0926 29.0026H18.2307C18.0435 29.0026 17.9805 29.0026 17.9805 29.2528V33.5909C17.9805 33.7907 17.9805 33.8411 18.2307 33.8411H24.6307C24.9367 33.8645 25.2427 33.8429 25.5424 33.779C26.4712 33.7124 27.3847 33.5108 28.2559 33.1787C28.5727 33.0689 28.8787 32.9258 29.1676 32.7539H29.2549C30.7552 31.9736 31.9738 30.7478 32.7425 29.2429C32.7425 29.2429 32.8298 29.0539 32.7317 29.0044V29.0026ZM15.4686 36.0902V36.0155V33.1031V32.1158V29.1781C15.4686 29.0152 15.4686 28.9909 15.2688 28.9909H12.5562C12.4059 28.9909 12.3438 28.9909 12.3438 28.7911V26.416H15.2436C15.4056 26.416 15.4686 26.416 15.4686 26.2036V23.8537C15.4686 23.7034 15.4686 23.6665 15.2688 23.6665H12.5562C12.4059 23.6665 12.3438 23.6665 12.3438 23.4667V21.2671C12.3438 21.1294 12.3438 21.0925 12.5436 21.0925H15.231C15.4182 21.0925 15.4686 21.0925 15.4686 20.8549V14.1174C15.4686 13.9176 15.4686 13.8672 15.7188 13.8672H25.0933C25.7737 13.8942 26.4496 13.9689 27.1183 14.0922C28.4962 14.3469 29.8201 14.8392 31.0306 15.5421C31.8334 16.0146 32.5724 16.5852 33.2303 17.2422C33.7253 17.7561 34.1717 18.3123 34.5677 18.9045C34.961 19.5048 35.2877 20.1466 35.5442 20.8171C35.5757 20.9917 35.7431 21.1096 35.9177 21.0799H38.1551C38.4422 21.0799 38.4422 21.0799 38.4548 21.3553V23.4055C38.4548 23.6053 38.3801 23.6557 38.1794 23.6557H36.4541C36.2795 23.6557 36.2291 23.6557 36.2417 23.8807C36.3101 24.6421 36.3101 25.4062 36.2417 26.1676C36.2417 26.38 36.2417 26.4052 36.4802 26.4052H38.4539C38.5412 26.5177 38.4539 26.6302 38.4539 26.7436C38.4665 26.8885 38.4665 27.0352 38.4539 27.1801V28.693C38.4539 28.9054 38.3918 28.9684 38.2037 28.9684H35.8412C35.6765 28.9369 35.5163 29.0422 35.4785 29.206C34.916 30.6686 34.016 31.9799 32.8532 33.0311C32.4284 33.4136 31.9819 33.7736 31.5157 34.1057C31.0153 34.3937 30.5284 34.6934 30.0154 34.931C29.0713 35.3558 28.0813 35.669 27.0652 35.8679C26.1004 36.0407 25.1221 36.119 24.1402 36.1055H15.465V36.0929L15.4686 36.0902Z" fill="#FEFEFD"/>
</svg>
