<svg width="50" height="50" viewBox="5 5 40 40" fill="none" xmlns="http://www.w3.org/2000/svg">
<path d="M36.3711 5C34.0865 4.99822 31.8944 5.90552 30.2762 7.52274C28.658 9.13996 27.7459 11.3349 27.74 13.6259V23.1898C26.8511 23.25 25.9422 23.2879 25 23.2879C24.0578 23.2879 23.1533 23.3258 22.26 23.3792V13.6259C22.2237 11.3548 21.2984 9.18909 19.684 7.59594C18.0695 6.00279 15.8951 5.1099 13.63 5.1099C11.3649 5.1099 9.19053 6.00279 7.57604 7.59594C5.96156 9.18909 5.03634 11.3548 5 13.6259V36.484C5.03634 38.7551 5.96156 40.9208 7.57604 42.514C9.19053 44.1071 11.3649 45 13.63 45C15.8951 45 18.0695 44.1071 19.684 42.514C21.2984 40.9208 22.2237 38.7551 22.26 36.484V26.9201C23.1489 26.8599 24.0578 26.822 25 26.822C25.9422 26.822 26.8467 26.7841 27.74 26.7307V36.484C27.7763 38.7551 28.7016 40.9208 30.316 42.514C31.9305 44.1071 34.1049 45 36.37 45C38.6351 45 40.8095 44.1071 42.424 42.514C44.0384 40.9208 44.9637 38.7551 45 36.484V13.6259C44.9941 11.3353 44.0823 9.14068 42.4645 7.52353C40.8468 5.90637 38.6554 4.99881 36.3711 5V5ZM13.6289 8.53413C14.9772 8.53354 16.2707 9.0693 17.2256 10.0239C18.1804 10.9784 18.7187 12.2738 18.7222 13.6259V23.7536C16.1973 24.1205 13.7316 24.8195 11.3889 25.8326C10.3739 26.2793 9.41833 26.8512 8.54444 27.5351V13.6259C8.54797 12.2754 9.085 10.9813 10.0379 10.027C10.9909 9.0727 12.2821 8.53589 13.6289 8.53413V8.53413ZM18.7222 36.484C18.7222 37.8386 18.1856 39.1377 17.2304 40.0955C16.2752 41.0533 14.9797 41.5914 13.6289 41.5914C12.2781 41.5914 10.9825 41.0533 10.0274 40.0955C9.07217 39.1377 8.53556 37.8386 8.53556 36.484V34.1911C8.53556 32.1655 10.1356 30.247 12.8178 29.0526C14.7077 28.235 16.6907 27.6535 18.7222 27.3212V36.484V36.484ZM36.3711 41.5758C35.0228 41.5764 33.7293 41.0406 32.7744 40.086C31.8196 39.1315 31.2813 37.8361 31.2778 36.484V26.3563C33.8027 25.9894 36.2684 25.2904 38.6111 24.2773C39.6261 23.8306 40.5817 23.2587 41.4556 22.5748V36.484C41.452 37.8345 40.915 39.1286 39.9621 40.0829C39.0091 41.0372 37.7179 41.574 36.3711 41.5758V41.5758ZM37.1822 21.044C35.2923 21.8616 33.3093 22.4431 31.2778 22.7754V13.6259C31.2778 12.2713 31.8144 10.9722 32.7696 10.0144C33.7248 9.05662 35.0203 8.51853 36.3711 8.51853C37.7219 8.51853 39.0175 9.05662 39.9726 10.0144C40.9278 10.9722 41.4644 12.2713 41.4644 13.6259V15.9188C41.4644 17.9354 39.8644 19.854 37.1822 21.044Z" fill="url(#paint0_linear_74_2226)"/>
<defs>
<linearGradient id="paint0_linear_74_2226" x1="7.53333" y1="42.0199" x2="42.3339" y2="7.21988" gradientUnits="userSpaceOnUse">
<stop stop-color="#00AEE9"/>
<stop offset="1" stop-color="#69FABD"/>
</linearGradient>
</defs>
</svg>
