<svg width="50" height="50" viewBox="0 0 50 50" fill="none" xmlns="http://www.w3.org/2000/svg">
<circle cx="25" cy="25" r="20" fill="#8247E5"/>
<path d="M32.2003 20.1758C31.6963 19.8878 31.0483 19.8878 30.4723 20.1758L26.4403 22.5518L23.7043 24.0638L19.7443 26.4398C19.2403 26.7278 18.5923 26.7278 18.0163 26.4398L14.9203 24.5678C14.4163 24.2798 14.0563 23.7038 14.0563 23.0558V19.4558C14.0563 18.8798 14.3443 18.3038 14.9203 17.9438L18.0163 16.1438C18.5203 15.8558 19.1683 15.8558 19.7443 16.1438L22.8403 18.0158C23.3443 18.3038 23.7043 18.8798 23.7043 19.5278V21.9038L26.4403 20.3198V17.8718C26.4403 17.2958 26.1523 16.7198 25.5763 16.3598L19.8163 12.9758C19.3123 12.6878 18.6643 12.6878 18.0883 12.9758L12.1843 16.4318C11.6083 16.7198 11.3203 17.2958 11.3203 17.8718V24.6398C11.3203 25.2158 11.6083 25.7918 12.1843 26.1518L18.0163 29.5358C18.5203 29.8238 19.1683 29.8238 19.7443 29.5358L23.7043 27.2318L26.4403 25.6478L30.4003 23.3438C30.9043 23.0558 31.5523 23.0558 32.1283 23.3438L35.2243 25.1438C35.7283 25.4318 36.0883 26.0078 36.0883 26.6558V30.2558C36.0883 30.8318 35.8003 31.4078 35.2243 31.7678L32.2003 33.5678C31.6963 33.8558 31.0483 33.8558 30.4723 33.5678L27.3763 31.7678C26.8723 31.4798 26.5123 30.9038 26.5123 30.2558V27.9518L23.7763 29.5358V31.9118C23.7763 32.4878 24.0643 33.0638 24.6403 33.4238L30.4723 36.8078C30.9763 37.0958 31.6243 37.0958 32.2003 36.8078L38.0323 33.4238C38.5363 33.1358 38.8963 32.5598 38.8963 31.9118V25.0718C38.8963 24.4958 38.6083 23.9198 38.0323 23.5598L32.2003 20.1758Z" fill="white"/>
</svg>
