<svg width="50" height="50" viewBox="0 0 50 50" fill="none" xmlns="http://www.w3.org/2000/svg">
<rect width="50" height="50" fill="white"/>
<path d="M6 9V15.3172V21.6345V27.9656H12.3172V21.6345V15.3172V9H6Z" fill="#424242"/>
<path d="M37.3359 21.6348V27.9659V34.2831V40.6004H43.6532V34.2831V27.9659V21.6348H37.3359Z" fill="#424242"/>
<path d="M24.6875 9V15.3172V21.3707L31.0047 27.6879V21.6345V15.3172L24.6875 9Z" fill="#424242"/>
<path d="M18.6484 21.9121V27.9656V34.2828L24.9657 40.6V34.2828V28.2293L18.6484 21.9121Z" fill="#424242"/>
<path d="M24.6875 9H31.0047L43.6531 21.6345H37.3359L24.6875 9Z" fill="black"/>
<path d="M6 27.9653H12.3172L24.9656 40.5998H18.6484L6 27.9653Z" fill="black"/>
<path d="M31.0043 15.3172V21.6345V27.6046L12.3164 9V15.3172V15.706V21.6345V27.9656L18.6475 34.2828V27.9656V21.9955L37.3355 40.6001V34.2828V33.8941V27.9656V21.6345L31.0043 15.3172Z" fill="#3CC68A"/>
</svg>
