<svg width="50" height="50" viewBox="0 0 50 50" fill="none" xmlns="http://www.w3.org/2000/svg">
<path d="M39.7209 28C39.4806 28 39.2557 28.032 39.0465 28.0962C38.8373 28.1555 38.655 28.2371 38.4998 28.3407C38.3448 28.4445 38.2209 28.5654 38.1279 28.7036C38.0425 28.837 38 28.9777 38 29.1259C38 29.2444 38.0348 29.3581 38.1047 29.4666C38.1744 29.5704 38.2674 29.6617 38.3838 29.7407C38.5077 29.8198 38.6512 29.8815 38.8139 29.9258C38.9766 29.9753 39.1512 30 39.3371 30C39.5619 30 39.7749 29.968 39.9769 29.9037C40.1786 29.8444 40.353 29.7629 40.5002 29.6591C40.655 29.5506 40.7751 29.4271 40.8604 29.289C40.9535 29.1506 41 29.005 41 28.8519C41 28.6099 40.8798 28.4074 40.6395 28.2445C40.407 28.0815 40.1007 28 39.7209 28V28Z" fill="url(#paint0_linear_97_1547)"/>
<path d="M28.0962 26.7743C28.1839 26.5711 28.2903 26.3607 28.4146 26.1432C28.5393 25.9181 28.6784 25.6934 28.8321 25.4686C28.9933 25.2435 29.1726 25.0439 29.3704 24.8698C29.5753 24.6885 29.7987 24.5434 30.0403 24.4347C30.2818 24.326 30.5419 24.2715 30.8201 24.2715H30.9191C30.9482 24.2715 30.9809 24.275 31.0175 24.2822C31.1056 24.2969 31.1825 24.3367 31.2483 24.4021C31.3216 24.4673 31.3582 24.5544 31.3582 24.6633C31.3582 24.7937 31.2959 24.9499 31.1716 25.131C31.0471 25.3054 30.8201 25.4937 30.4907 25.6969C30.4174 25.7405 30.2893 25.824 30.1063 25.9472C29.9306 26.0706 29.7217 26.2084 29.4801 26.3607C29.2386 26.5131 28.9785 26.6728 28.7001 26.8395C28.4294 27.0064 28.1657 27.1552 27.9096 27.2858C27.9536 27.148 28.0158 26.9774 28.0962 26.7743V26.7743ZM20.6826 26.1432C20.8069 25.9181 20.946 25.6934 21.0999 25.4686C21.2611 25.2435 21.4404 25.0439 21.6382 24.8698C21.8431 24.6885 22.0663 24.5434 22.3081 24.4347C22.5498 24.326 22.8097 24.2715 23.0879 24.2715H23.1868C23.216 24.2715 23.2489 24.275 23.2855 24.2822C23.3734 24.2969 23.4502 24.3367 23.5163 24.4021C23.5896 24.4673 23.6262 24.5544 23.6262 24.6633C23.6262 24.7937 23.564 24.9499 23.4394 25.131C23.3149 25.3054 23.0879 25.4937 22.7583 25.6969C22.6852 25.7405 22.5571 25.824 22.3739 25.9472C22.1983 26.0706 21.9897 26.2084 21.7479 26.3607C21.5062 26.5131 21.2465 26.6728 20.9681 26.8395C20.7175 26.994 20.4737 27.1311 20.2355 27.2545C20.2251 27.2403 20.2143 27.2263 20.2021 27.2134C20.2441 27.0885 20.2962 26.9456 20.364 26.7743C20.4519 26.5711 20.5581 26.3607 20.6826 26.1432V26.1432ZM43.8682 19.0482C43.7803 18.8014 43.6631 18.5982 43.5167 18.4387C43.3776 18.279 43.2129 18.1593 43.0225 18.0795C42.8395 17.9999 42.6454 17.9598 42.4403 17.9598C42.0012 17.9598 41.5397 18.036 41.0566 18.1882C40.5806 18.3407 40.09 18.6128 39.5848 19.0044C39.0796 19.3962 38.5634 19.9295 38.0361 20.6042C37.5162 21.2789 36.9964 22.1349 36.4764 23.1725H35.1804C34.8291 23.1725 34.5617 23.2558 34.3787 23.4227C34.1956 23.5822 34.104 23.7491 34.104 23.9232C34.104 24.0899 34.1773 24.2352 34.3237 24.3586C34.4703 24.482 34.7448 24.5434 35.1475 24.5434H35.7297L34.5156 27.0926C34.4416 27.1309 34.3345 27.1913 34.1919 27.2749C34.0016 27.391 33.7598 27.5288 33.467 27.6883C33.1815 27.848 32.8594 28.0184 32.5006 28.1998C32.1418 28.3739 31.7718 28.5373 31.3913 28.6896C31.0175 28.8418 30.6371 28.9689 30.2489 29.0705C29.8683 29.1647 29.5095 29.212 29.1726 29.212C28.8577 29.212 28.6051 29.1538 28.4146 29.0379C28.2245 28.9145 28.111 28.7476 28.0743 28.5373C29.0701 28.1744 29.8974 27.8154 30.5565 27.4599C31.2229 27.0972 31.7537 26.7452 32.1491 26.4044C32.5445 26.0562 32.8227 25.7151 32.9837 25.3815C33.1449 25.0477 33.2255 24.7285 33.2255 24.4238C33.2255 23.9086 33.0753 23.5061 32.7748 23.2158C32.475 22.9257 32.021 22.7807 31.413 22.7807C30.8347 22.7807 30.2893 22.864 29.7764 23.0309C29.2715 23.1978 28.8065 23.419 28.3819 23.6946C27.9571 23.9705 27.5727 24.2897 27.2287 24.6524C26.8918 25.0079 26.6063 25.3743 26.3718 25.7514C26.1375 26.1286 25.9582 26.5059 25.8337 26.8833C25.7317 27.1858 25.6739 27.4683 25.6553 27.7321C25.3895 27.8791 25.0949 28.0348 24.7684 28.1998C24.4096 28.3739 24.0398 28.5373 23.6589 28.6896C23.2855 28.8418 22.9047 28.9689 22.5167 29.0705C22.1361 29.1647 21.7773 29.212 21.4404 29.212C21.1255 29.212 20.8729 29.1538 20.6826 29.0379C20.4923 28.9145 20.3788 28.7476 20.3421 28.5373C21.3379 28.1744 22.1654 27.8154 22.8243 27.4599C23.4907 27.0972 24.0214 26.7452 24.4169 26.4044C24.8123 26.0562 25.0905 25.7151 25.2515 25.3815C25.4127 25.0477 25.4933 24.7285 25.4933 24.4238C25.4933 23.9086 25.3431 23.5061 25.0428 23.2158C24.7428 22.9257 24.2888 22.7807 23.681 22.7807C23.1025 22.7807 22.5571 22.864 22.0445 23.0309C21.5393 23.1978 21.0743 23.419 20.6495 23.6946C20.2251 23.9705 19.8405 24.2897 19.4965 24.6524C19.1596 25.0079 18.8738 25.3743 18.6398 25.7514C18.4053 26.1286 18.226 26.5059 18.1015 26.8833C17.977 27.253 17.9149 27.594 17.9149 27.906C17.9149 28.0989 17.93 28.2875 17.958 28.4724C17.7429 28.6032 17.5007 28.7268 17.225 28.8418C16.8074 29.016 16.3316 29.103 15.7971 29.103H15.6434C15.592 29.103 15.537 29.0993 15.4787 29.0921C15.1855 29.0705 14.9075 28.9254 14.6437 28.6568C14.3802 28.3884 14.1385 28.0657 13.9188 27.6883C13.7066 27.304 13.5236 26.9012 13.3697 26.4805C13.2233 26.0524 13.1171 25.6679 13.0511 25.327C13.5198 25.2472 14.0031 25.1166 14.501 24.9352C15.0062 24.7539 15.497 24.5325 15.9728 24.2715C16.4486 24.0103 16.8955 23.7128 17.3126 23.379C17.7374 23.0381 18.1072 22.6682 18.4221 22.2692C18.7367 21.863 18.9858 21.4313 19.1688 20.9741C19.3594 20.5099 19.4543 20.0238 19.4543 19.5159C19.4543 18.7616 19.2969 18.1014 18.9823 17.5354C18.6747 16.9695 18.2572 16.5018 17.7301 16.1316C17.2029 15.7543 16.595 15.4714 15.9068 15.2829C15.2259 15.0943 14.5121 15 13.7651 15C13.0036 15 12.2825 15.0798 11.6015 15.2393C10.9204 15.3916 10.2907 15.5985 9.71221 15.8595C9.14102 16.1135 8.6248 16.411 8.16378 16.7521C7.70232 17.0857 7.31063 17.4339 6.98827 17.7966C6.67364 18.1593 6.42834 18.522 6.25259 18.8847C6.08434 19.2475 6 19.585 6 19.897C6 20.2306 6.09163 20.4918 6.27445 20.6803C6.45749 20.8617 6.73215 20.9525 7.09823 20.9525C7.36914 20.9525 7.59612 20.8908 7.77916 20.7674C7.96242 20.644 8.12713 20.4845 8.27352 20.2888C8.42719 20.0927 8.5738 19.8679 8.7129 19.6139C8.852 19.3599 9.00567 19.0989 9.17414 18.8305C9.34989 18.5619 9.55479 18.3009 9.78927 18.0469C10.0308 17.7929 10.3238 17.5682 10.6678 17.3722C11.0193 17.1762 11.4329 17.0168 11.9091 16.8934C12.3922 16.77 12.9672 16.7083 13.6333 16.7083C14.2266 16.7083 14.7353 16.7772 15.1599 16.9152C15.592 17.0531 15.9435 17.2379 16.2144 17.4702C16.4926 17.7023 16.6939 17.9743 16.8185 18.2862C16.9503 18.5982 17.0161 18.9283 17.0161 19.2765C17.0161 19.7626 16.8918 20.2632 16.6427 20.7783C16.401 21.2933 16.0678 21.7612 15.6434 22.1821C15.2186 22.6028 14.7207 22.9511 14.1495 23.2267C13.5856 23.4951 12.9855 23.6294 12.3483 23.6294H12.1944C12.1504 23.6294 12.1067 23.6257 12.0628 23.6185C12.2531 23.2195 12.4362 22.8314 12.6119 22.454C12.7877 22.0697 12.9413 21.7177 13.0731 21.3985C13.205 21.0794 13.3112 20.7965 13.3915 20.5497C13.4723 20.303 13.5125 20.1109 13.5125 19.9731C13.5125 19.8353 13.4907 19.7228 13.4465 19.6358C13.4026 19.5415 13.3516 19.4726 13.2928 19.4288C13.2341 19.3781 13.1685 19.3455 13.0952 19.331C13.0219 19.3091 12.9597 19.2984 12.9084 19.2984C12.7181 19.2984 12.5019 19.4071 12.2604 19.6248C12.0261 19.8353 11.7735 20.1181 11.5026 20.4736C11.2388 20.8291 10.9643 21.239 10.6788 21.7033C10.4004 22.1602 10.1224 22.6356 9.84403 23.1287L6.60409 29.005C6.5235 29.1575 6.46124 29.3207 6.4173 29.4948C6.37336 29.669 6.3515 29.8394 6.3515 30.0063C6.3515 30.1225 6.36608 30.2456 6.39544 30.3762C6.43209 30.5068 6.4906 30.6265 6.57119 30.7354C6.65156 30.8442 6.76527 30.9349 6.91166 31.0074C7.05805 31.08 7.24837 31.1163 7.48285 31.1163C7.76834 31.1163 8.03197 31.0146 8.27352 30.8116C8.51507 30.6083 8.74226 30.3436 8.95445 30.0172C9.16685 29.6834 9.36093 29.3098 9.53646 28.8963C9.71221 28.4754 9.88068 28.051 10.0416 27.6231C10.2028 27.195 10.3532 26.7816 10.4923 26.3825C10.6312 25.9763 10.7667 25.6245 10.8983 25.327C11.1328 26.0815 11.4002 26.7997 11.7002 27.4816C12.0005 28.1563 12.3335 28.7476 12.6998 29.2553C13.0659 29.7633 13.4723 30.1658 13.9188 30.4633C14.3655 30.7608 14.8525 30.9096 15.3796 30.9096C16.0238 30.9096 16.705 30.7499 17.4226 30.4307C17.7699 30.2743 18.1207 30.0733 18.4749 29.8302C18.5263 29.9061 18.5813 29.9794 18.6398 30.0498C18.8814 30.3327 19.1706 30.5576 19.5075 30.7245C19.8515 30.8914 20.2432 30.9748 20.6826 30.9748C21.1951 30.9748 21.715 30.9059 22.2421 30.768C22.7693 30.6374 23.2747 30.4705 23.758 30.2675C24.2484 30.0643 24.7097 29.8431 25.1418 29.6036C25.4065 29.455 25.6487 29.3124 25.8737 29.1741C25.9956 29.501 26.1601 29.7941 26.3718 30.0498C26.6136 30.3327 26.9028 30.5576 27.2395 30.7245C27.5837 30.8914 27.9754 30.9748 28.4146 30.9748C28.9273 30.9748 29.4472 30.9059 29.9745 30.768C30.5015 30.6374 31.0069 30.4705 31.49 30.2675C31.9806 30.0643 32.4419 29.8431 32.874 29.6036C33.093 29.4806 33.2983 29.3614 33.49 29.2457L31.8526 32.6833C31.7718 32.8502 31.7097 32.9952 31.6658 33.1184C31.6218 33.2492 31.6 33.3617 31.6 33.4559C31.6 33.6445 31.6695 33.7823 31.8084 33.8694C31.9477 33.9565 32.1052 34 32.2809 34C32.4054 34 32.5408 33.9709 32.6872 33.9129C32.8338 33.8622 32.9764 33.7861 33.1155 33.6843C33.2548 33.5828 33.3829 33.4597 33.4999 33.3144C33.6172 33.1766 33.7161 33.0243 33.7964 32.8574C33.9137 32.6253 34.0676 32.3096 34.2579 31.9106C34.4482 31.5188 34.6606 31.08 34.8949 30.5939C35.1292 30.1006 35.3745 29.5819 35.6308 29.0379C35.8944 28.4864 36.1543 27.9423 36.4106 27.4055C36.6743 26.8686 36.9231 26.3572 37.1574 25.8711C37.3991 25.3778 37.6151 24.9462 37.8054 24.5762H39.7166C40.0387 24.5688 40.3682 24.5616 40.7049 24.5544C41.0491 24.5471 41.4116 24.5362 41.7923 24.5218C41.9901 24.5071 42.1511 24.4782 42.2756 24.4347C42.4001 24.3839 42.4953 24.326 42.5611 24.2606C42.6344 24.1879 42.6856 24.1118 42.715 24.032C42.7443 23.9523 42.7589 23.8725 42.7589 23.7926C42.7589 23.6329 42.715 23.5133 42.6271 23.4337C42.5465 23.3466 42.4295 23.2847 42.2756 23.2486C42.1292 23.2123 41.9572 23.1906 41.7594 23.1832C41.5618 23.176 41.3491 23.1725 41.1224 23.1725H38.5634C38.7462 22.7371 38.9807 22.3127 39.2662 21.899C39.5519 21.4784 39.8484 21.1047 40.1558 20.7783C40.4706 20.4519 40.7782 20.1907 41.0785 19.9947C41.3858 19.7989 41.6532 19.7009 41.8802 19.7009C42.0707 19.7009 42.2206 19.7661 42.3306 19.897C42.4476 20.0276 42.5063 20.245 42.5063 20.5497C42.5063 20.6296 42.4988 20.7094 42.4843 20.7893C42.477 20.8689 42.4734 20.956 42.4734 21.0503C42.4734 21.1955 42.5355 21.3042 42.66 21.3769C42.7843 21.4421 42.9199 21.4747 43.0665 21.4747C43.125 21.4747 43.1945 21.4674 43.2751 21.453C43.3557 21.4313 43.4361 21.3985 43.5167 21.355C43.5973 21.3115 43.6706 21.2572 43.7364 21.1918C43.8024 21.1192 43.8463 21.0321 43.8682 20.9306C43.9561 20.5535 44 20.2089 44 19.897C44 19.5703 43.9561 19.2875 43.8682 19.0482" fill="black"/>
<defs>
<linearGradient id="paint0_linear_97_1547" x1="39.5" y1="28" x2="39.5" y2="30" gradientUnits="userSpaceOnUse">
<stop stop-color="#681CFF"/>
<stop offset="1" stop-color="#FD3F83"/>
</linearGradient>
</defs>
</svg>
