<svg width="50" height="50" viewBox="5 5 40 40" fill="none" xmlns="http://www.w3.org/2000/svg">
<rect width="50" height="50" fill="black"/>
<path d="M6 8V41.7575H37.2539V37.9737H9.74288V11.7838H37.2539V8H6Z" fill="white"/>
<path d="M40.3563 20.973C40.3563 20.1709 40.0458 19.4734 39.4249 18.8806C38.804 18.2878 37.9416 17.9913 36.8204 17.9913C35.8717 17.9913 35.1301 18.1831 34.5781 18.5842C34.0262 18.9852 33.7502 19.5084 33.7502 20.1709C33.7502 20.5196 33.8192 20.8335 33.9572 21.1125C34.0951 21.3915 34.3194 21.6356 34.6471 21.8623C34.9748 22.089 35.406 22.2808 35.958 22.4551C36.4927 22.6295 37.1826 22.7865 38.0105 22.9434C40.0976 23.327 41.6844 23.9721 42.7883 24.8614C43.8922 25.7681 44.4441 27.0933 44.4441 28.8544V29.2032C44.4441 30.1448 44.2717 30.9817 43.9439 31.7489C43.6162 32.4987 43.1333 33.1439 42.5123 33.6844C41.8914 34.225 41.1325 34.626 40.2356 34.9224C39.3386 35.2014 38.3382 35.3583 37.2171 35.3583C35.9062 35.3583 34.7679 35.1665 33.7674 34.8004C32.767 34.4342 31.9391 33.9111 31.2837 33.2484C30.6282 32.5859 30.1108 31.8186 29.783 30.9294C29.4381 30.0401 29.2656 29.0637 29.2656 28.0174V27.8431H33.0085C33.0085 29.0462 33.3535 30.0053 34.0434 30.7375C34.7333 31.4524 35.8028 31.8186 37.2689 31.8186C38.4073 31.8186 39.2524 31.5746 39.8043 31.0689C40.3563 30.5632 40.6323 29.9704 40.6323 29.2904C40.6323 28.959 40.5806 28.6626 40.4598 28.3488C40.339 28.0523 40.1493 27.7908 39.8561 27.5467C39.5802 27.3025 39.1834 27.0933 38.6832 26.9015C38.183 26.7097 37.562 26.5528 36.8032 26.4133C35.8028 26.2389 34.8886 26.0123 34.0434 25.7332C33.2155 25.4542 32.4911 25.0881 31.8701 24.6347C31.2492 24.1813 30.7834 23.6059 30.4385 22.9085C30.0935 22.211 29.921 21.374 29.921 20.3801V20.2058C29.921 19.3862 30.0935 18.619 30.4212 17.9216C30.749 17.2241 31.2147 16.6138 31.8184 16.0907C32.422 15.5676 33.1293 15.1666 33.9744 14.8876C34.8196 14.6086 35.751 14.4517 36.8032 14.4517C37.976 14.4517 39.0109 14.626 39.9251 14.9573C40.8392 15.2886 41.5982 15.742 42.2191 16.3174C42.84 16.8928 43.254 17.5729 43.6162 18.3052C44.0647 19.1945 44.0819 21.0079 44.0819 21.0079L40.3563 20.973Z" fill="white"/>
</svg>
