<svg width="50" height="50" viewBox="0 0 50 50" fill="none" xmlns="http://www.w3.org/2000/svg">
<path fill-rule="evenodd" clip-rule="evenodd" d="M45 25C45 22.4 44.48 19.76 43.48 17.36C42.48 14.96 41 12.72 39.16 10.84C37.28 9 35.08 7.52 32.64 6.52C30.2 5.52 27.6 5 25 5C22.4 5 19.76 5.52 17.36 6.52C14.96 7.52 12.72 9 10.84 10.84C9 12.72 7.52 14.92 6.52 17.36C5.52 19.8 5 22.4 5 25C5 27.6 5.52 30.24 6.52 32.64C7.52 35.04 9 37.28 10.84 39.16C12.68 41 14.92 42.48 17.32 43.48C19.72 44.48 22.4 45 25 45C27.6 45 30.24 44.48 32.64 43.48C35.04 42.48 37.28 41 39.16 39.16C41 37.32 42.48 35.08 43.48 32.68C44.48 30.28 45 27.6 45 25Z" fill="url(#paint0_linear_71_2166)"/>
<path fill-rule="evenodd" clip-rule="evenodd" d="M23.9609 15.9602H26.0409V34.0402H23.9609V15.9602Z" fill="white"/>
<path fill-rule="evenodd" clip-rule="evenodd" d="M22.797 24.4798V22.3198C21.157 21.5198 19.997 19.7998 19.997 17.8398C19.997 15.0798 22.237 12.8398 24.997 12.8398C28.117 12.8398 30.357 15.0798 30.357 17.8398C30.357 18.5198 30.197 19.1998 29.877 19.9998L28.997 17.1198L27.237 17.6798L28.797 23.6398L34.877 21.3998L34.117 19.6398L31.837 20.3998C32.237 19.5198 32.317 18.8398 32.317 17.7998C32.317 13.9198 29.197 10.7998 24.957 10.7998C21.077 10.7998 17.957 13.9198 17.957 17.7998C17.997 20.9198 19.997 23.5598 22.797 24.4798Z" fill="white"/>
<path fill-rule="evenodd" clip-rule="evenodd" d="M27.2011 25.5203V27.6803C28.8411 28.4803 30.0011 30.2003 30.0011 32.1603C30.0011 34.9203 27.7611 37.1603 25.0011 37.1603C21.8811 37.1603 19.6411 34.9203 19.6411 32.1603C19.6411 31.4803 19.8011 30.8003 20.1211 30.0003L21.0011 32.8803L22.7611 32.3203L21.2011 26.3603L15.1211 28.6003L15.8811 30.3603L18.1611 29.6003C17.7611 30.4803 17.6811 31.1603 17.6811 32.2003C17.6811 36.0803 20.8011 39.2003 25.0411 39.2003C28.9211 39.2003 32.0411 36.0803 32.0411 32.2003C32.0011 29.0803 30.0011 26.4403 27.2011 25.5203Z" fill="white"/>
<defs>
<linearGradient id="paint0_linear_71_2166" x1="5" y1="5" x2="45" y2="45" gradientUnits="userSpaceOnUse">
<stop stop-color="#0077FC"/>
<stop offset="1" stop-color="#095EB5"/>
</linearGradient>
</defs>
</svg>
