<svg width="50" height="50" viewBox="0 0 50 50" fill="none" xmlns="http://www.w3.org/2000/svg">
<path d="M11.6428 38.9634H16.8412C18.0651 38.9634 18.677 38.9634 19.2232 38.8121C19.822 38.6342 20.3682 38.3185 20.8222 37.8841C21.2392 37.4868 21.5401 36.9602 22.1337 35.9215L22.1514 35.8904L28.8936 23.9721C29.4924 22.9259 29.7885 22.3994 29.9201 21.8467C30.0649 21.2479 30.0649 20.6162 29.9201 20.0174C29.7895 19.4688 29.4904 18.9461 28.9005 17.9155L26.2483 13.2858C25.7022 12.3251 25.4258 11.8447 25.0771 11.667C24.702 11.4762 24.2545 11.4762 23.8794 11.667C23.5307 11.8447 23.2543 12.3251 22.7082 13.2858L9.87267 35.9101C9.3331 36.8577 9.06328 37.3316 9.08304 37.7197C9.10937 38.1409 9.32651 38.5225 9.68186 38.7529C10.0108 38.9634 10.5504 38.9634 11.6428 38.9634Z" fill="#E84142"/>
<path d="M37.4175 38.9634H29.9688C28.8699 38.9634 28.3172 38.9634 27.9947 38.7529C27.6394 38.5225 27.4223 38.1345 27.396 37.7132C27.3763 37.3281 27.6483 36.8586 28.1925 35.9193L28.2053 35.8971L31.9232 29.5142C32.4693 28.5733 32.7457 28.1061 33.0879 27.9284C33.4628 27.7376 33.904 27.7376 34.2788 27.9284C34.6186 28.1014 34.8831 28.5488 35.4069 29.4345L35.4077 29.4358L35.4501 29.5077L39.1813 35.8905L39.1887 35.9033C39.2043 35.9304 39.2197 35.957 39.2351 35.9833C39.7523 36.8757 40.0162 37.3312 39.9973 37.7068C39.9773 38.1277 39.7537 38.5161 39.3985 38.7465C39.0693 38.9634 38.5164 38.9634 37.4175 38.9634Z" fill="#E84142"/>
</svg>
