<svg width="50" height="50" viewBox="5 5 40 40" fill="none" xmlns="http://www.w3.org/2000/svg"><path fill="#fff" d="M0 0h50v50H0z"/><path d="M6 9v18.966h6.317V9H6ZM37.336 21.635V40.6h6.317V21.635h-6.317ZM24.688 9v12.371l6.317 6.317V15.317L24.688 9ZM18.648 21.912v12.371l6.318 6.317V28.229l-6.318-6.317Z" fill="#424242"/><path d="M24.688 9h6.317l12.648 12.634h-6.317L24.688 9ZM6 27.965h6.317L24.966 40.6h-6.318L6 27.965Z" fill="#000"/><path d="M31.004 15.317V27.604L12.316 9v18.966l6.332 6.317V21.996L37.335 40.6V21.634l-6.332-6.317Z" fill="#3CC68A"/></svg>