<svg width="50" height="50" viewBox="0 0 50 50" fill="none" xmlns="http://www.w3.org/2000/svg">
<circle cx="25" cy="25" r="20" fill="black"/>
<path d="M12.1367 14V35.7575H32.2806V33.3188H14.5491V16.4387H32.2806V14H12.1367Z" fill="white"/>
<path d="M34.281 22.3614C34.281 21.8444 34.0809 21.3948 33.6807 21.0128C33.2805 20.6307 32.7247 20.4396 32.002 20.4396C31.3906 20.4396 30.9126 20.5632 30.5569 20.8217C30.2011 21.0802 30.0232 21.4174 30.0232 21.8444C30.0232 22.0692 30.0677 22.2715 30.1566 22.4513C30.2456 22.6311 30.3901 22.7884 30.6013 22.9345C30.8125 23.0806 31.0905 23.2043 31.4462 23.3166C31.7908 23.429 32.2355 23.5302 32.7691 23.6313C34.1143 23.8786 35.137 24.2944 35.8485 24.8675C36.56 25.4519 36.9157 26.3061 36.9157 27.4411V27.6659C36.9157 28.2728 36.8046 28.8122 36.5933 29.3067C36.3821 29.7899 36.0709 30.2058 35.6706 30.5542C35.2704 30.9026 34.7813 31.161 34.2032 31.3521C33.6251 31.5319 32.9803 31.633 32.2577 31.633C31.4128 31.633 30.6791 31.5094 30.0343 31.2734C29.3896 31.0374 28.856 30.7003 28.4335 30.2732C28.0111 29.8461 27.6776 29.3516 27.4663 28.7785C27.244 28.2053 27.1328 27.576 27.1328 26.9017V26.7893H29.5452C29.5452 27.5647 29.7675 28.1829 30.2122 28.6548C30.6569 29.1156 31.3462 29.3516 32.2911 29.3516C33.0248 29.3516 33.5695 29.1943 33.9252 28.8684C34.281 28.5425 34.4589 28.1604 34.4589 27.7221C34.4589 27.5086 34.4256 27.3175 34.3477 27.1152C34.2699 26.9241 34.1476 26.7556 33.9586 26.5983C33.7808 26.4409 33.5251 26.3061 33.2027 26.1824C32.8803 26.0588 32.4801 25.9577 31.9909 25.8678C31.3462 25.7554 30.757 25.6093 30.2122 25.4295C29.6786 25.2496 29.2117 25.0136 28.8115 24.7214C28.4113 24.4292 28.1111 24.0583 27.8888 23.6088C27.6664 23.1593 27.5552 22.6198 27.5552 21.9793V21.8669C27.5552 21.3387 27.6664 20.8442 27.8776 20.3947C28.0889 19.9451 28.389 19.5518 28.7781 19.2146C29.1672 18.8775 29.623 18.619 30.1677 18.4392C30.7125 18.2593 31.3128 18.1582 31.9909 18.1582C32.7469 18.1582 33.4139 18.2706 34.0031 18.4841C34.5923 18.6976 35.0814 18.9898 35.4816 19.3607C35.8818 19.7316 36.1486 20.1699 36.3821 20.6419C36.6712 21.2151 36.6823 22.3838 36.6823 22.3838L34.281 22.3614Z" fill="white"/>
</svg>
