<svg width="50" height="50" viewBox="0 0 50 50" fill="none" xmlns="http://www.w3.org/2000/svg">
<g id="invest-icon">
<rect id="Rectangle 182" x="1" width="48.3372" height="48.3372" rx="10" fill="#FF8A01"/>
<path id="Vector" d="M40.8233 0H9.17672C6.7429 0 4.40877 0.966829 2.6878 2.6878C0.966829 4.40877 0 6.7429 0 9.17672V40.8233C0 43.2571 0.966829 45.5912 2.6878 47.3122C4.40877 49.0332 6.7429 50 9.17672 50H40.8233C43.2571 50 45.5912 49.0332 47.3122 47.3122C49.0332 45.5912 50 43.2571 50 40.8233V9.17672C50 6.7429 49.0332 4.40877 47.3122 2.6878C45.5912 0.966829 43.2571 0 40.8233 0ZM47.3781 40.8233C47.3781 42.5617 46.6875 44.229 45.4582 45.4582C44.229 46.6875 42.5617 47.3781 40.8233 47.3781H9.17672C7.43828 47.3781 5.77104 46.6875 4.54178 45.4582C3.31251 44.229 2.62192 42.5617 2.62192 40.8233V9.17672C2.62192 7.43828 3.31251 5.77104 4.54178 4.54178C5.77104 3.31251 7.43828 2.62192 9.17672 2.62192H40.8233C42.5617 2.62192 44.229 3.31251 45.4582 4.54178C46.6875 5.77104 47.3781 7.43828 47.3781 9.17672V40.8233Z" fill="#FF8A01"/>
<g id="Group">
<path id="Vector_2" d="M13.8314 24.0605C12.7127 24.0421 11.6469 23.5815 10.8668 22.7796C10.0867 21.9776 9.65575 20.8994 9.66823 19.7807C9.67638 19.6491 9.70388 19.5194 9.74986 19.3959L13.948 8.51569C14.0269 8.28999 14.1732 8.09398 14.3672 7.95423C14.5612 7.81447 14.7935 7.73772 15.0325 7.73437H19.3589C19.5375 7.72957 19.7148 7.76585 19.8771 7.84042C20.0394 7.91499 20.1825 8.02585 20.2952 8.16446C20.4078 8.30306 20.4872 8.4657 20.527 8.63982C20.5669 8.81395 20.5663 8.99491 20.5251 9.16874L17.9946 19.9323C17.9705 21.0256 17.5231 22.067 16.7465 22.837C15.97 23.607 14.9249 24.0456 13.8314 24.0605ZM12.0122 19.979C12.0439 20.4444 12.2477 20.8814 12.5841 21.2048C12.9204 21.5282 13.365 21.7148 13.8314 21.7282C14.3335 21.7129 14.8092 21.4995 15.1545 21.1346C15.4997 20.7697 15.6865 20.2829 15.6739 19.7807C15.6624 19.6956 15.6624 19.6093 15.6739 19.5242L17.8896 10.0667H15.8372L12.0122 19.979Z" fill="white"/>
<path id="Vector_3" d="M19.8398 24.0605C19.2854 24.0529 18.7379 23.9361 18.2287 23.7169C17.7194 23.4977 17.2583 23.1804 16.8717 22.7829C16.4851 22.3855 16.1806 21.9158 15.9755 21.4007C15.7705 20.8856 15.6689 20.3351 15.6766 19.7807C15.6651 19.6956 15.6651 19.6093 15.6766 19.5242L18.2188 8.6323C18.2804 8.3714 18.4299 8.13967 18.6423 7.97612C18.8547 7.81258 19.117 7.7272 19.385 7.73436H23.6997C23.8596 7.73488 24.0177 7.76827 24.1642 7.83247C24.3106 7.89666 24.4423 7.99029 24.551 8.10753C24.6622 8.2253 24.7476 8.36493 24.8018 8.51752C24.856 8.67011 24.8778 8.83232 24.8659 8.99381L24.0263 19.874C24.0232 20.9834 23.5811 22.0464 22.7967 22.8309C22.0122 23.6153 20.9491 24.0574 19.8398 24.0605V24.0605ZM18.0089 19.8973C18.0166 20.1378 18.0715 20.3743 18.1706 20.5935C18.2697 20.8127 18.411 21.0103 18.5864 21.1749C18.7618 21.3395 18.9679 21.4679 19.193 21.5528C19.4181 21.6378 19.6576 21.6775 19.8981 21.6699C20.1385 21.6622 20.3751 21.6073 20.5943 21.5082C20.8135 21.4091 21.011 21.2678 21.1756 21.0924C21.3402 20.917 21.4686 20.7108 21.5536 20.4858C21.6385 20.2607 21.6783 20.0211 21.6706 19.7807L22.417 10.0667H20.2829L18.0089 19.8973Z" fill="white"/>
<path id="Vector_4" d="M25.8237 24.0601C25.2693 24.0525 24.7219 23.9357 24.2126 23.7165C23.7033 23.4973 23.2423 23.1799 22.8557 22.7825C22.4691 22.3851 22.1645 21.9154 21.9595 21.4003C21.7544 20.8852 21.6529 20.3347 21.6606 19.7803L22.5002 8.80681C22.5237 8.51398 22.6569 8.2408 22.8731 8.04189C23.0893 7.84299 23.3726 7.73301 23.6663 7.73395H27.9811C28.2749 7.73301 28.5582 7.84299 28.7744 8.04189C28.9906 8.2408 29.1238 8.51398 29.1473 8.80681L29.9869 19.6987C30.0024 20.259 29.9067 20.8169 29.7055 21.3401C29.5042 21.8633 29.2013 22.3415 28.8142 22.747C28.4271 23.1525 27.9636 23.4773 27.4503 23.7026C26.937 23.928 26.3842 24.0495 25.8237 24.0601V24.0601ZM24.7392 10.0663L23.9929 19.8736C23.9958 20.3604 24.1889 20.8268 24.531 21.1732C24.8731 21.5196 25.337 21.7186 25.8237 21.7278C26.0718 21.7202 26.3161 21.6639 26.5424 21.5619C26.7687 21.4599 26.9727 21.3143 27.1428 21.1335C27.3128 20.9526 27.4455 20.74 27.5333 20.5078C27.6212 20.2756 27.6624 20.0284 27.6546 19.7803L26.9082 10.0663H24.7392Z" fill="white"/>
<path id="Vector_5" d="M31.8263 24.0605C31.2719 24.0529 30.7244 23.9361 30.2152 23.7169C29.7059 23.4977 29.2448 23.1804 28.8582 22.7829C28.4716 22.3855 28.1671 21.9158 27.962 21.4007C27.757 20.8856 27.6554 20.3351 27.6631 19.7807L26.8235 8.99381C26.8116 8.83232 26.8334 8.67011 26.8876 8.51752C26.9418 8.36493 27.0272 8.2253 27.1383 8.10753C27.2471 7.99029 27.3788 7.89666 27.5252 7.83247C27.6716 7.76827 27.8297 7.73488 27.9896 7.73436H32.3044C32.5724 7.7272 32.8346 7.81258 33.047 7.97612C33.2594 8.13967 33.409 8.3714 33.4705 8.6323L35.9894 19.5242C36.001 19.6093 36.001 19.6956 35.9894 19.7807C35.9971 20.3351 35.8956 20.8856 35.6905 21.4007C35.4855 21.9158 35.1809 22.3855 34.7943 22.7829C34.4077 23.1804 33.9466 23.4977 33.4374 23.7169C32.9281 23.9361 32.3807 24.0529 31.8263 24.0605V24.0605ZM29.2491 10.0667L29.9954 19.6991C29.9813 19.9528 30.0175 20.2068 30.1021 20.4464C30.1866 20.686 30.3178 20.9065 30.488 21.0952C30.6582 21.2838 30.8641 21.4369 31.0938 21.5455C31.3235 21.6542 31.5725 21.7163 31.8263 21.7282C32.3081 21.7164 32.767 21.5197 33.1078 21.1788C33.4486 20.838 33.6453 20.3792 33.6571 19.8973L31.3831 10.0667H29.2491Z" fill="white"/>
<path id="Vector_6" d="M37.8346 24.0605C36.7411 24.0456 35.696 23.607 34.9195 22.837C34.1429 22.067 33.6955 21.0256 33.6715 19.9323L31.1759 9.16874C31.1347 8.99491 31.1341 8.81395 31.1739 8.63982C31.2138 8.4657 31.2932 8.30306 31.4058 8.16446C31.5185 8.02585 31.6615 7.91499 31.8239 7.84042C31.9862 7.76585 32.1635 7.72957 32.342 7.73437H36.6685C36.9034 7.73506 37.1326 7.80669 37.3261 7.93986C37.5196 8.07303 37.6684 8.26154 37.753 8.48071L41.9161 19.3959C41.9656 19.5306 41.9932 19.6723 41.9978 19.8157C42.001 20.9284 41.566 21.9976 40.7869 22.792C40.0077 23.5864 38.9472 24.0421 37.8346 24.0605V24.0605ZM33.7764 10.0667L35.9688 19.5242C35.9803 19.6093 35.9803 19.6956 35.9688 19.7807C35.9626 20.0313 36.006 20.2807 36.0966 20.5144C36.1872 20.7482 36.3231 20.9617 36.4965 21.1427C36.6699 21.3237 36.8774 21.4686 37.1071 21.5691C37.3367 21.6696 37.584 21.7236 37.8346 21.7282C38.301 21.7148 38.7456 21.5282 39.082 21.2048C39.4183 20.8814 39.6221 20.4444 39.6538 19.979L35.8288 10.0667H33.7764Z" fill="white"/>
<path id="Vector_7" d="M37.8296 42.7183H13.8302C13.5209 42.7183 13.2243 42.5954 13.0056 42.3767C12.7869 42.158 12.6641 41.8614 12.6641 41.5521V22.8937C12.6641 22.5844 12.7869 22.2878 13.0056 22.0691C13.2243 21.8504 13.5209 21.7275 13.8302 21.7275C14.1395 21.7275 14.4361 21.8504 14.6548 22.0691C14.8735 22.2878 14.9964 22.5844 14.9964 22.8937V40.386H36.6635V22.8937C36.6635 22.5844 36.7863 22.2878 37.005 22.0691C37.2237 21.8504 37.5203 21.7275 37.8296 21.7275C38.1389 21.7275 38.4355 21.8504 38.6542 22.0691C38.8729 22.2878 38.9958 22.5844 38.9958 22.8937V41.5521C38.9958 41.8614 38.8729 42.158 38.6542 42.3767C38.4355 42.5954 38.1389 42.7183 37.8296 42.7183Z" fill="white"/>
<path id="Vector_8" d="M30.3329 42.72H21.3302C21.0209 42.72 20.7243 42.5971 20.5056 42.3784C20.2869 42.1597 20.1641 41.8631 20.1641 41.5539V30.6737C20.1641 30.3644 20.2869 30.0678 20.5056 29.8491C20.7243 29.6304 21.0209 29.5075 21.3302 29.5075H30.3329C30.6422 29.5075 30.9388 29.6304 31.1575 29.8491C31.3762 30.0678 31.4991 30.3644 31.4991 30.6737V41.5539C31.4991 41.8631 31.3762 42.1597 31.1575 42.3784C30.9388 42.5971 30.6422 42.72 30.3329 42.72ZM22.4964 40.3877H29.1668V31.8398H22.4964V40.3877Z" fill="white"/>
</g>
</g>
</svg>
