<svg width="50" height="50" viewBox="0 0 50 50" fill="none" xmlns="http://www.w3.org/2000/svg">
<g id="create-icon">
<g id="Group">
<rect id="Rectangle 182" x="1" width="48.3372" height="48.3372" rx="10" fill="#FF8A01"/>
<path id="Vector" fill-rule="evenodd" clip-rule="evenodd" d="M23.0871 23.5999H17.969C17.121 23.5999 16.4336 24.2873 16.4336 25.1353C16.4336 25.9833 17.121 26.6707 17.969 26.6707H23.0871C23.3697 26.6707 23.5989 26.8999 23.5989 27.1826V32.3006C23.5989 33.1486 24.2863 33.836 25.1343 33.836C25.9823 33.836 26.6697 33.1486 26.6697 32.3006V27.1826C26.6697 26.8999 26.8989 26.6707 27.1815 26.6707H32.2996C33.1476 26.6707 33.835 25.9833 33.835 25.1353C33.835 24.2873 33.1476 23.5999 32.2996 23.5999H27.1815C26.8989 23.5999 26.6697 23.3708 26.6697 23.0881V17.97C26.6697 17.1221 25.9823 16.4346 25.1343 16.4346C24.2863 16.4346 23.5989 17.1221 23.5989 17.97V23.0881C23.5989 23.3708 23.3697 23.5999 23.0871 23.5999Z" fill="#F3F3F3"/>
<path id="Vector_2" d="M25.1358 39.4659C33.0503 39.4659 39.4663 33.0499 39.4663 25.1353C39.4663 17.2208 33.0503 10.8048 25.1358 10.8048C17.2212 10.8048 10.8052 17.2208 10.8052 25.1353C10.8052 33.0499 17.2212 39.4659 25.1358 39.4659ZM25.1358 42.5367C15.5252 42.5367 7.73438 34.7459 7.73438 25.1353C7.73438 15.5248 15.5252 7.73395 25.1358 7.73395C34.7463 7.73395 42.5372 15.5248 42.5372 25.1353C42.5372 34.7459 34.7463 42.5367 25.1358 42.5367Z" fill="#F3F3F3"/>
<path id="Vector_3" d="M40.8233 0H9.17672C6.7429 0 4.40877 0.966829 2.6878 2.6878C0.966829 4.40877 0 6.7429 0 9.17672V40.8233C0 43.2571 0.966829 45.5912 2.6878 47.3122C4.40877 49.0332 6.7429 50 9.17672 50H40.8233C43.2571 50 45.5912 49.0332 47.3122 47.3122C49.0332 45.5912 50 43.2571 50 40.8233V9.17672C50 6.7429 49.0332 4.40877 47.3122 2.6878C45.5912 0.966829 43.2571 0 40.8233 0ZM47.3781 40.8233C47.3781 42.5617 46.6875 44.229 45.4582 45.4582C44.229 46.6875 42.5617 47.3781 40.8233 47.3781H9.17672C7.43828 47.3781 5.77104 46.6875 4.54178 45.4582C3.31251 44.229 2.62192 42.5617 2.62192 40.8233V9.17672C2.62192 7.43828 3.31251 5.77104 4.54178 4.54178C5.77104 3.31251 7.43828 2.62192 9.17672 2.62192H40.8233C42.5617 2.62192 44.229 3.31251 45.4582 4.54178C46.6875 5.77104 47.3781 7.43828 47.3781 9.17672V40.8233Z" fill="#FF8A01"/>
</g>
</g>
</svg>
