<svg width="33" height="30" viewBox="0 0 33 30" fill="none" xmlns="http://www.w3.org/2000/svg">
<path d="M25.3 28.1045L24.5821 28.9562C24.7909 29.1401 25.0595 29.237 25.3348 29.228L25.3 28.1045ZM22.9537 24.2549C22.5773 23.7677 21.8855 23.6845 21.4087 24.0692C20.9318 24.4539 20.8505 25.1607 21.2269 25.6482L22.9537 24.2549ZM23.8308 23.3344L23.448 22.2804C23.4335 22.286 23.419 22.2919 23.4047 22.2979L23.8308 23.3344ZM20.0072 24.4934L19.8225 23.385L19.8045 23.3884L20.0072 24.4934ZM13.1774 24.4665L12.9689 25.5702L12.9756 25.5715L13.1774 24.4665ZM9.30103 23.3077L8.90012 24.3545L8.90118 24.3549L9.30103 23.3077ZM7.37583 22.3915L6.76423 23.3257C6.78836 23.3423 6.81314 23.3578 6.83846 23.3722L7.37583 22.3915ZM7.1386 22.2566L7.74926 21.3215C7.71115 21.2954 7.67151 21.272 7.63055 21.2511L7.1386 22.2566ZM7.03316 22.1759L7.81097 21.3808C7.73872 21.3071 7.65675 21.2439 7.56743 21.1931L7.03316 22.1759ZM11.773 25.594C12.1494 25.1066 12.0679 24.3997 11.591 24.015C11.1141 23.6305 10.4224 23.7137 10.046 24.2012L11.773 25.594ZM7.7 28.1045L7.66517 29.228C7.94523 29.2372 8.2181 29.1367 8.42811 28.9472L7.7 28.1045ZM1.1 23.0381H0C0 23.0983 0.00472096 23.1584 0.0141174 23.2177L1.1 23.0381ZM4.89722 3.95407L4.23722 3.05473C4.06877 3.18385 3.94013 3.35965 3.86657 3.56126L4.89722 3.95407ZM12.3071 1.1244L13.4021 1.01781C13.3492 0.450212 12.8889 0.0129782 12.3312 0.000499893L12.3071 1.1244ZM11.4758 4.06084C11.5334 4.67889 12.0703 5.13222 12.6751 5.07336C13.2799 5.0145 13.7235 4.46572 13.6659 3.84765L11.4758 4.06084ZM19.2325 3.91881C19.1551 4.53461 19.5809 5.09793 20.1834 5.17703C20.786 5.25612 21.3372 4.82103 21.4146 4.20523L19.2325 3.91881ZM20.6927 1.12458L20.6686 0.000679736C20.1245 0.0128882 19.671 0.429775 19.6017 0.98136L20.6927 1.12458ZM28.1026 3.95425L29.1333 3.56144C29.0596 3.35983 28.9311 3.18403 28.7626 3.05493L28.1026 3.95425ZM31.9 23.0381L32.9859 23.2177C32.9954 23.1584 33 23.0983 33 23.0381H31.9ZM14.2584 17.5404L13.1584 17.5219V17.5404H14.2584ZM25.3 28.1045C26.0179 27.2528 26.0179 27.2528 26.0179 27.2528C26.0179 27.2526 26.0179 27.2526 26.0176 27.2526C26.0174 27.2524 26.0172 27.2522 26.0165 27.2517C26.0157 27.2508 26.0141 27.2495 26.0119 27.2474C26.0077 27.2438 26.0011 27.238 25.9926 27.2303C25.9754 27.2153 25.9499 27.1926 25.9169 27.1631C25.8507 27.1044 25.755 27.0188 25.6375 26.9129C25.4021 26.7006 25.0809 26.4077 24.7359 26.0839C24.0214 25.4137 23.2857 24.6845 22.9537 24.2549L21.2269 25.6482C21.6861 26.2424 22.5553 27.09 23.2478 27.74C23.6064 28.0766 23.9391 28.3799 24.182 28.5989C24.3036 28.7084 24.4031 28.7972 24.4724 28.8588C24.5069 28.8898 24.534 28.9139 24.5527 28.9303C24.5619 28.9384 24.5692 28.9449 24.5742 28.9492C24.5766 28.9514 24.5786 28.953 24.5799 28.9544C24.5806 28.9548 24.581 28.9553 24.5815 28.9557C24.5817 28.9557 24.5817 28.9559 24.5819 28.9562C24.5819 28.9562 24.5819 28.9562 24.5821 28.9562C24.5821 28.9562 24.5821 28.9562 25.3 28.1045ZM26.2583 20.8057C25.2468 21.4865 24.2928 21.96 23.448 22.2804L24.2134 24.3884C25.2144 24.0087 26.3175 23.4581 27.4683 22.6835L26.2583 20.8057ZM23.4047 22.2979C22.1582 22.8333 20.9733 23.1849 19.8225 23.3852L20.1919 25.6016C21.5197 25.3705 22.8664 24.9678 24.2568 24.3709L23.4047 22.2979ZM19.8045 23.3884C17.4312 23.8432 15.2504 23.7184 13.3793 23.3614L12.9756 25.5715C15.0598 25.9692 17.5199 26.1136 20.2099 25.5983L19.8045 23.3884ZM13.3859 23.3628C11.963 23.0819 10.7359 22.6732 9.7009 22.2604L8.90118 24.3549C10.0282 24.8044 11.3854 25.2579 12.9689 25.5702L13.3859 23.3628ZM9.70196 22.2608C9.12558 22.0304 8.51536 21.755 7.9132 21.4105L6.83846 23.3722C7.55511 23.7823 8.26333 24.0998 8.90012 24.3545L9.70196 22.2608ZM7.98745 21.4571C7.88198 21.3849 7.78215 21.3352 7.74946 21.3186C7.70273 21.2947 7.72323 21.3037 7.74926 21.3215L6.52795 23.1917C6.63313 23.2634 6.73277 23.3128 6.76513 23.3293C6.81153 23.3531 6.79074 23.3439 6.76423 23.3257L7.98745 21.4571ZM7.63055 21.2511C7.67314 21.2727 7.71839 21.3019 7.76204 21.3374C7.79962 21.368 7.82608 21.3964 7.81097 21.3808L6.25535 22.9706C6.30619 23.0228 6.43313 23.153 6.64668 23.262L7.63055 21.2511ZM7.56743 21.1931C7.34965 21.0694 7.1828 20.9658 7.0734 20.8952C7.01873 20.8599 6.97851 20.8329 6.95358 20.8161C6.94111 20.8075 6.93249 20.8014 6.92778 20.7983C6.92542 20.7965 6.92406 20.7956 6.92369 20.7954C6.92349 20.7951 6.92355 20.7951 6.92388 20.7954C6.92404 20.7956 6.92426 20.7958 6.92454 20.796C6.92468 20.796 6.92483 20.7961 6.92501 20.7963C6.92509 20.7963 6.92518 20.7965 6.92527 20.7965C6.92531 20.7965 6.9254 20.7965 6.92542 20.7965C6.92549 20.7967 6.92558 20.7967 6.29479 21.7176C5.66403 22.6386 5.66412 22.6388 5.66419 22.6388C5.66421 22.6388 5.6643 22.6388 5.66436 22.6388C5.66447 22.639 5.66458 22.639 5.66469 22.639C5.66493 22.6392 5.66518 22.6395 5.66546 22.6397C5.66599 22.6401 5.66661 22.6406 5.66727 22.641C5.66861 22.6419 5.67021 22.6431 5.67208 22.6444C5.6758 22.6471 5.68055 22.6503 5.68634 22.6543C5.69791 22.6624 5.7136 22.6734 5.73327 22.6867C5.77262 22.7134 5.828 22.7505 5.8986 22.7962C6.0397 22.8872 6.24204 23.0127 6.49889 23.1586L7.56743 21.1931ZM10.046 24.2012C9.71027 24.636 8.96999 25.3811 8.25601 26.0648C7.91052 26.3958 7.5887 26.6957 7.35308 26.9131C7.23538 27.0217 7.13951 27.1094 7.07331 27.1696C7.04022 27.2 7.01457 27.2231 6.99732 27.2389C6.9887 27.2465 6.98218 27.2526 6.97792 27.2564C6.97576 27.2584 6.97418 27.2598 6.97319 27.2607C6.97268 27.2611 6.97231 27.2614 6.97209 27.2616C6.97198 27.2618 6.97191 27.2618 6.97187 27.2618C6.97187 27.2618 6.97187 27.2618 6.97184 27.2618C6.97187 27.2618 6.97189 27.2618 7.7 28.1045C8.42811 28.9472 8.42816 28.9472 8.4282 28.9472C8.42822 28.9469 8.42829 28.9469 8.42835 28.9469C8.42846 28.9467 8.4286 28.9467 8.42879 28.9465C8.42917 28.9463 8.42967 28.9458 8.43033 28.9452C8.43165 28.944 8.43355 28.9422 8.43601 28.94C8.44094 28.9355 8.44809 28.929 8.45739 28.9206C8.47596 28.9038 8.50304 28.8793 8.53763 28.8478C8.60677 28.7846 8.70602 28.6938 8.82743 28.5818C9.07001 28.3579 9.40227 28.0483 9.76028 27.7054C10.4533 27.0417 11.3178 26.1835 11.773 25.594L10.046 24.2012ZM7.73483 26.981C5.17037 26.8978 3.82309 25.8087 3.09131 24.8217C2.71165 24.3095 2.4807 23.7998 2.34571 23.4196C2.27861 23.2308 2.2365 23.0774 2.21214 22.9772C2.19999 22.9272 2.19235 22.8908 2.18827 22.8701C2.18623 22.8598 2.1851 22.8535 2.18474 22.8515C2.18456 22.8506 2.18457 22.8506 2.18477 22.8517C2.18487 22.8524 2.18501 22.8533 2.1852 22.8544C2.18529 22.8549 2.18539 22.8555 2.18551 22.8562C2.18557 22.8567 2.18566 22.8573 2.18569 22.8573C2.18578 22.858 2.18588 22.8587 1.1 23.0381C0.0141174 23.2177 0.0142223 23.2184 0.0143304 23.2191C0.0143706 23.2193 0.0144826 23.22 0.0145635 23.2204C0.0147256 23.2216 0.0149012 23.2227 0.0150906 23.2238C0.0154694 23.2261 0.0159032 23.2288 0.0163944 23.2317C0.0173767 23.2375 0.0185887 23.2445 0.0200478 23.2528C0.0229656 23.2692 0.0268748 23.2904 0.0319169 23.3158C0.0419962 23.3668 0.056635 23.4354 0.0769787 23.519C0.117603 23.6863 0.181359 23.9156 0.277702 24.1868C0.469603 24.727 0.795923 25.4485 1.33777 26.1795C2.44902 27.6784 4.40176 29.1225 7.66517 29.228L7.73483 26.981ZM2.2 23.0381C2.2 18.8422 3.12193 14.1801 4.06239 10.5281C4.53046 8.71049 4.99862 7.16011 5.3493 6.06546C5.52457 5.51837 5.67028 5.08581 5.77168 4.79137C5.82237 4.64417 5.86197 4.53155 5.88863 4.45646C5.90196 4.41893 5.91204 4.39078 5.91866 4.37237C5.92198 4.36317 5.92442 4.35643 5.92596 4.35216C5.92673 4.35002 5.92731 4.34852 5.92761 4.34762C5.92777 4.34719 5.92788 4.3469 5.92792 4.34676C5.92794 4.34669 5.92794 4.34672 5.92797 4.34669C5.92794 4.34674 5.9279 4.34685 4.89722 3.95407C3.86657 3.56126 3.8665 3.56146 3.86641 3.56166C3.86637 3.5618 3.86628 3.56205 3.86617 3.56232C3.86599 3.56281 3.86575 3.56349 3.86547 3.5643C3.86485 3.56594 3.86404 3.56821 3.86298 3.57111C3.86089 3.57691 3.85788 3.58523 3.854 3.59597C3.84626 3.61749 3.83502 3.64883 3.82054 3.68964C3.79157 3.77123 3.74959 3.89066 3.69646 4.04494C3.59018 4.35353 3.43924 4.80176 3.25851 5.36587C2.89722 6.49359 2.41606 8.08719 1.93484 9.95589C0.976681 13.6766 0 18.5565 0 23.0381H2.2ZM5.55724 4.8534C7.31606 3.50528 9.02587 2.85436 10.2869 2.53991C10.9175 2.38264 11.4342 2.30999 11.7853 2.27656C11.9608 2.25985 12.0944 2.25297 12.1796 2.25019C12.2223 2.24879 12.2527 2.24843 12.2702 2.24837C12.279 2.24832 12.2845 2.24834 12.2867 2.24837C12.2877 2.24839 12.288 2.24839 12.2874 2.24839C12.2871 2.24837 12.2866 2.24837 12.2858 2.24834C12.2855 2.24834 12.2851 2.24834 12.2846 2.24832C12.2843 2.24832 12.2839 2.24832 12.2838 2.24832C12.2834 2.2483 12.283 2.2483 12.3071 1.1244C12.3312 0.000499795 12.3307 0.000477379 12.3303 0.000477379C12.3301 0.000477379 12.3296 0.000454865 12.3293 0.000454865C12.3286 0.000432382 12.3278 0.000432321 12.327 0.000409837C12.3254 0.000387354 12.3236 0.000342533 12.3215 0.00032005C12.3174 0.000248103 12.3124 0.000180632 12.3066 0.000126671C12.2948 1.87513e-05 12.2796 -4.41903e-05 12.261 3.67498e-05C12.2237 0.00019863 12.1728 0.000927013 12.1093 0.00301797C11.9821 0.00717739 11.8038 0.0167103 11.5812 0.0379121C11.1364 0.0802708 10.5125 0.169327 9.76536 0.355647C8.27075 0.728377 6.27563 1.49229 4.23722 3.05473L5.55724 4.8534ZM11.2121 1.23097L11.4758 4.06084L13.6659 3.84765L13.4021 1.01781L11.2121 1.23097ZM21.4146 4.20523L21.7838 1.2678L19.6017 0.98136L19.2325 3.91881L21.4146 4.20523ZM20.6927 1.12458C20.7169 2.24848 20.7164 2.24848 20.716 2.2485C20.7159 2.2485 20.7155 2.2485 20.7153 2.2485C20.7148 2.24852 20.7144 2.24852 20.714 2.24855C20.7133 2.24855 20.7128 2.24857 20.7125 2.24857C20.7119 2.24857 20.7121 2.24857 20.7132 2.24857C20.7154 2.24855 20.7209 2.2485 20.7296 2.24855C20.7471 2.24861 20.7776 2.24897 20.8202 2.25037C20.9055 2.25315 21.0391 2.26001 21.2145 2.27672C21.5657 2.31015 22.0823 2.38277 22.713 2.54002C23.9738 2.85447 25.6837 3.50537 27.4426 4.85356L28.7626 3.05493C26.7243 1.49241 24.7291 0.728467 23.2344 0.35576C22.4873 0.16944 21.8634 0.0804059 21.4185 0.0380697C21.1959 0.0168904 21.0176 0.00733472 20.8905 0.0031753C20.8269 0.00110683 20.7761 0.000387497 20.7388 0.000218871C20.7202 0.000140179 20.7049 0.000203136 20.6932 0.00032005C20.6873 0.000365017 20.6823 0.000432443 20.6782 0.000499893C20.6762 0.000522377 20.6743 0.000567197 20.6727 0.000589681C20.6719 0.000612164 20.6712 0.000634709 20.6705 0.000634709C20.6701 0.000634709 20.6697 0.000657222 20.6695 0.000657222C20.669 0.000679706 20.6686 0.000679639 20.6927 1.12458ZM28.1026 3.95425C27.0719 4.34705 27.0719 4.34696 27.0719 4.3469C27.0719 4.34692 27.0719 4.3469 27.0719 4.34696C27.0719 4.3471 27.0721 4.34739 27.0721 4.34782C27.0725 4.34872 27.073 4.35022 27.0739 4.35236C27.0754 4.35663 27.0778 4.3634 27.0811 4.37259C27.0877 4.39099 27.0978 4.41914 27.1113 4.45668C27.1379 4.53175 27.1775 4.64437 27.2281 4.79157C27.3295 5.08599 27.4754 5.51855 27.6505 6.06562C28.0012 7.16029 28.4693 8.71063 28.9375 10.5282C29.878 14.1801 30.8 18.8422 30.8 23.0381H33C33 18.5565 32.0232 13.6766 31.0651 9.95596C30.5837 8.08728 30.1026 6.49372 29.7414 5.366C29.5605 4.80189 29.4096 4.35366 29.3033 4.0451C29.2503 3.89082 29.2083 3.77139 29.1793 3.6898C29.1647 3.64899 29.1535 3.61765 29.1458 3.59613C29.1419 3.58538 29.139 3.57709 29.1368 3.57129C29.1357 3.56839 29.135 3.56609 29.1344 3.56445C29.1342 3.56364 29.1337 3.56297 29.1337 3.56247C29.1335 3.56223 29.1335 3.56196 29.1335 3.56184C29.1333 3.56162 29.1333 3.56144 28.1026 3.95425ZM31.9 23.0381C30.8141 22.8587 30.8143 22.858 30.8143 22.8573C30.8143 22.8571 30.8145 22.8567 30.8145 22.8562C30.8145 22.8555 30.8147 22.8549 30.8147 22.8544C30.815 22.8533 30.8152 22.8524 30.8152 22.8517C30.8154 22.8506 30.8154 22.8506 30.8152 22.8515C30.815 22.8535 30.8139 22.8598 30.8117 22.8701C30.8077 22.8908 30.8 22.9272 30.7879 22.9772C30.7635 23.0774 30.7215 23.2308 30.6544 23.4196C30.5193 23.7998 30.2883 24.3095 29.9086 24.8217C29.1768 25.8087 27.8296 26.8978 25.2652 26.981L25.3348 29.228C28.5982 29.1225 30.551 27.6784 31.6622 26.1795C32.204 25.4485 32.5303 24.7273 32.7224 24.1868C32.8187 23.9156 32.8823 23.6863 32.923 23.519C32.9435 23.4354 32.958 23.3668 32.9681 23.3158C32.9732 23.2904 32.9771 23.2692 32.98 23.2528C32.9813 23.2445 32.9826 23.2375 32.9835 23.2317C32.9842 23.2288 32.9846 23.2261 32.9848 23.2238C32.985 23.2227 32.9853 23.2216 32.9855 23.2204C32.9855 23.22 32.9857 23.2193 32.9857 23.2191C32.9857 23.2184 32.9859 23.2177 31.9 23.0381ZM11.5687 13.425C9.3661 13.425 7.77922 15.3742 7.77922 17.5404H9.97922C9.97922 16.4189 10.7653 15.6733 11.5687 15.6733V13.425ZM7.77922 17.5404C7.77922 19.7142 9.39906 21.656 11.5687 21.656V19.4077C10.785 19.4077 9.97922 18.6546 9.97922 17.5404H7.77922ZM11.5687 21.656C13.7716 21.656 15.3584 19.7068 15.3584 17.5404H13.1584C13.1584 18.662 12.3723 19.4077 11.5687 19.4077V21.656ZM15.3583 17.5589C15.3937 15.3604 13.7558 13.425 11.5687 13.425V15.6733C12.3877 15.6733 13.1762 16.4327 13.1586 17.5219L15.3583 17.5589ZM21.1939 13.425C18.9912 13.425 17.404 15.374 17.404 17.5404H19.604C19.604 16.4191 20.3901 15.6733 21.1939 15.6733V13.425ZM17.404 17.5404C17.404 19.7144 19.0243 21.656 21.1939 21.656V19.4077C20.4099 19.4077 19.604 18.6544 19.604 17.5404H17.404ZM21.1939 21.656C23.3966 21.656 24.9834 19.7067 24.9834 17.5404H22.7834C22.7834 18.6621 21.9972 19.4077 21.1939 19.4077V21.656ZM24.9834 17.5404C24.9834 15.3742 23.3966 13.425 21.1939 13.425V15.6733C21.9973 15.6733 22.7834 16.4189 22.7834 17.5404H24.9834ZM8.22668 7.73217C11.4014 5.96271 13.9869 5.13712 16.5052 5.13584C19.0228 5.13456 21.6044 5.95716 24.7713 7.73105L25.8287 5.75944C22.4787 3.88295 19.5249 2.88597 16.5041 2.8875C13.4839 2.88903 10.5279 3.88862 7.17332 5.75829L8.22668 7.73217Z" fill="#232323"/>
</svg>
