<svg width="50" height="50" viewBox="0 0 50 50" fill="none" xmlns="http://www.w3.org/2000/svg">
<rect x="1" width="48.3372" height="48.3372" rx="10" fill="#FF8A01"/>
<path d="M40.8233 0H9.17672C6.7429 0 4.40877 0.966829 2.6878 2.6878C0.966829 4.40877 0 6.7429 0 9.17672V40.8233C0 43.2571 0.966829 45.5912 2.6878 47.3122C4.40877 49.0332 6.7429 50 9.17672 50H40.8233C43.2571 50 45.5912 49.0332 47.3122 47.3122C49.0332 45.5912 50 43.2571 50 40.8233V9.17672C50 6.7429 49.0332 4.40877 47.3122 2.6878C45.5912 0.966829 43.2571 0 40.8233 0ZM47.3781 40.8233C47.3781 42.5617 46.6875 44.229 45.4582 45.4582C44.229 46.6875 42.5617 47.3781 40.8233 47.3781H9.17672C7.43828 47.3781 5.77104 46.6875 4.54178 45.4582C3.31251 44.229 2.62192 42.5617 2.62192 40.8233V9.17672C2.62192 7.43828 3.31251 5.77104 4.54178 4.54178C5.77104 3.31251 7.43828 2.62192 9.17672 2.62192H40.8233C42.5617 2.62192 44.229 3.31251 45.4582 4.54178C46.6875 5.77104 47.3781 7.43828 47.3781 9.17672V40.8233Z" fill="#FF8A01"/>
<path fill-rule="evenodd" clip-rule="evenodd" d="M25.1359 30.6036C22.1206 30.6036 19.6677 28.1504 19.6677 25.1352C19.6677 22.1203 22.1206 19.6674 25.1359 19.6674C28.1511 19.6674 30.604 22.1203 30.604 25.1352C30.604 28.1504 28.1511 30.6036 25.1359 30.6036ZM25.1359 17.7338C21.054 17.7338 17.7341 21.0537 17.7341 25.1352C17.7341 29.217 21.054 32.5369 25.1359 32.5369C29.2174 32.5369 32.5373 29.217 32.5373 25.1352C32.5373 21.0537 29.2174 17.7338 25.1359 17.7338ZM38.6705 26.978V23.2927H37.1402C36.6912 23.2927 36.3008 22.9832 36.1985 22.5451C35.918 21.343 35.4437 20.1993 34.7886 19.146C34.5515 18.7639 34.6081 18.2695 34.9258 17.9515L36.0094 16.8678L33.4033 14.2621L32.3196 15.3454C32.002 15.6634 31.5072 15.72 31.1251 15.4822C30.0724 14.8274 28.9287 14.3532 27.7256 14.0727C27.2875 13.9707 26.9784 13.581 26.9784 13.1313V11.601H23.293V13.1313C23.293 13.58 22.9835 13.9707 22.5458 14.0727C21.343 14.3535 20.1993 14.8278 19.1463 15.4822C18.7652 15.7197 18.2698 15.663 17.9518 15.3454L16.8688 14.2621L14.2623 16.8678L15.3456 17.9515C15.6636 18.2695 15.721 18.7639 15.4828 19.146C14.828 20.1993 14.3534 21.3427 14.0729 22.5451C13.9709 22.9832 13.5813 23.2927 13.1316 23.2927H11.6012V26.9783H13.1316C13.5809 26.9783 13.9709 27.2878 14.0729 27.7256C14.3534 28.9276 14.828 30.0724 15.4828 31.125C15.7199 31.5068 15.6633 32.0015 15.3456 32.3192L14.2623 33.4028L16.8688 36.0089L17.9518 34.9256C18.2698 34.6076 18.7645 34.551 19.1463 34.7885C20.1993 35.4436 21.3434 35.9178 22.5458 36.198C22.9835 36.3003 23.293 36.6896 23.293 37.1397V38.67H26.9784V37.1397C26.9784 36.6907 27.2875 36.3003 27.7256 36.198C28.9287 35.9175 30.0724 35.4429 31.1251 34.7885C31.5065 34.5513 32.002 34.608 32.3196 34.9256L33.4033 36.0089L36.0094 33.4028L34.9258 32.3192C34.6078 32.0015 34.5511 31.5068 34.7886 31.125C35.4437 30.072 35.918 28.928 36.1985 27.7256C36.3008 27.2878 36.6908 26.9783 37.1402 26.9783H38.6705V26.978ZM39.6371 21.3591H37.8844C37.6206 20.4692 37.2644 19.6101 36.8195 18.7925L38.0601 17.5519C38.2413 17.3707 38.3433 17.1247 38.3433 16.8678C38.3433 16.6119 38.2413 16.3659 38.0601 16.1847L34.0864 12.2111C33.9052 12.0302 33.6592 11.9275 33.4033 11.9275C33.1464 11.9275 32.9004 12.0302 32.7192 12.2111L31.4786 13.4517C30.661 13.0068 29.8026 12.6506 28.912 12.3871V10.634C28.912 10.1001 28.4794 9.66742 27.9454 9.66742H22.3264C21.7924 9.66742 21.3597 10.1001 21.3597 10.634V12.3871C20.4692 12.6506 19.6097 13.0068 18.7932 13.4517L17.5526 12.2111C17.371 12.0302 17.1254 11.9275 16.8688 11.9275C16.6122 11.9275 16.3662 12.0302 16.185 12.2111L12.2113 16.1847C12.0301 16.3659 11.9285 16.6119 11.9285 16.8678C11.9285 17.1247 12.0301 17.3707 12.2113 17.5519L13.4519 18.7925C13.007 19.6101 12.6508 20.4692 12.3877 21.3591H10.6346C10.1006 21.3591 9.66797 21.7917 9.66797 22.3257V27.945C9.66797 28.4793 10.1006 28.9119 10.6346 28.9119H12.3877C12.6508 29.8021 13.007 30.6613 13.4519 31.4781L12.2113 32.7191C12.0301 32.9002 11.9285 33.1462 11.9285 33.4028C11.9285 33.6591 12.0301 33.9047 12.2113 34.0863L16.185 38.0599C16.3662 38.2411 16.6122 38.3431 16.8688 38.3431C17.1254 38.3431 17.371 38.2411 17.5526 38.0599L18.7932 36.8193C19.6107 37.2639 20.4692 37.6208 21.3597 37.8838V39.6363C21.3597 40.1706 21.7924 40.6032 22.3264 40.6032H27.9457C28.4797 40.6032 28.9123 40.1706 28.9123 39.6363V37.8835C29.8029 37.6204 30.662 37.2635 31.4789 36.819L32.7195 38.0596C32.9007 38.2407 33.1467 38.3428 33.4036 38.3428C33.6595 38.3428 33.9056 38.2407 34.0867 38.0596L38.0604 34.0859C38.2416 33.9044 38.3436 33.6587 38.3436 33.4025C38.3436 33.1459 38.2416 32.8999 38.0604 32.7187L36.8198 31.4778C37.2647 30.6606 37.621 29.8011 37.8847 28.9116H39.6371C40.1711 28.9116 40.6038 28.4789 40.6038 27.9446V22.3257C40.6038 21.7914 40.1711 21.3591 39.6371 21.3591Z" fill="white"/>
</svg>
