<svg width="37" height="31" viewBox="0 0 37 31" fill="none" xmlns="http://www.w3.org/2000/svg">
<path d="M35.6864 4.42283C35.4329 4.24934 35.0981 4.25812 34.8542 4.44544C34.6073 4.63448 34.2066 4.79705 33.751 4.93038C34.9982 3.45805 35.0241 2.47378 35.0094 2.24209C34.9926 1.97936 34.8357 1.74664 34.6003 1.63445C34.3638 1.52303 34.0869 1.54944 33.8765 1.70392C32.3799 2.80348 30.89 3.04299 29.9943 3.06974C28.6041 1.73281 26.8017 1 24.8852 1C20.7651 1 17.413 4.43417 17.413 8.65513C17.413 8.99686 17.4354 9.3379 17.4793 9.67611C10.4456 9.55508 4.73688 2.74743 4.67795 2.67582C4.52866 2.49493 4.30198 2.3965 4.06757 2.41911C3.83529 2.43957 3.62707 2.57359 3.51058 2.77777C1.52782 6.25604 2.73908 9.32518 3.95526 11.1639C3.82968 11.0884 3.7268 11.019 3.65639 10.9664C3.44154 10.8049 3.15484 10.7781 2.91456 10.8977C2.67386 11.0176 2.52005 11.263 2.51554 11.5342C2.46181 14.8696 4.00331 16.8212 5.50107 17.9271C5.33892 17.9497 5.18682 18.028 5.07273 18.1536C4.90115 18.3418 4.84078 18.6081 4.91475 18.8532C5.9534 22.2909 8.47224 23.5086 10.1356 23.9396C6.77091 26.5065 1.89436 25.6687 1.84029 25.6584C1.51695 25.6009 1.19334 25.7733 1.06045 26.0788C0.927898 26.3838 1.01861 26.7414 1.28091 26.9434C4.86731 29.7111 9.15658 30.3243 12.2546 30.3243C14.5974 30.3243 16.2586 29.9734 16.4184 29.9385C32.0465 26.1936 32.5419 11.7555 32.5098 9.29505C35.4416 6.53515 35.9026 5.47581 35.9745 5.21232C36.0554 4.91414 35.9396 4.59674 35.6864 4.42283ZM31.3025 8.45655C31.1433 8.60468 31.0592 8.81839 31.0738 9.03702C31.0763 9.0758 31.3155 12.9892 29.5908 17.3498C27.2865 23.176 22.7437 26.9385 16.103 28.5298C16.0319 28.5449 9.88885 29.8314 4.49619 27.238C6.8016 27.1402 9.99426 26.4837 12.2407 23.9336C12.4284 23.7209 12.473 23.3922 12.3576 23.1323C12.2421 22.8731 11.9858 22.6823 11.7047 22.6823H11.6998C11.5111 22.6823 8.25882 22.6576 6.7005 19.4816C7.3307 19.5092 8.08409 19.4716 8.69126 19.1888C8.97099 19.0583 9.13628 18.7671 9.10176 18.4579C9.06724 18.1486 8.84056 17.8995 8.53916 17.8353C8.36443 17.7979 4.59831 16.948 4.01767 12.8107C4.59626 13.0544 5.31752 13.2432 6.03495 13.1345C6.31051 13.0929 6.53616 12.8926 6.61423 12.6222C6.69202 12.352 6.60692 12.0602 6.39657 11.875C6.23367 11.732 2.68282 8.53839 4.30881 4.41191C6.23367 6.43935 11.7231 11.4876 18.3794 11.1018C18.5918 11.0894 18.7879 10.9815 18.914 10.808C19.04 10.6345 19.0829 10.4134 19.0309 10.2047C18.9053 9.69906 18.8415 9.17782 18.8415 8.6552C18.8415 5.23057 21.5525 2.44454 24.8851 2.44454C26.5149 2.44454 28.0435 3.10222 29.1897 4.29669C29.3211 4.43389 29.5011 4.51248 29.6902 4.51608C30.3504 4.52244 31.4375 4.45048 32.666 3.98848C32.2996 4.42221 31.7874 4.93004 31.071 5.4989C30.8234 5.69568 30.7324 6.03354 30.8471 6.33014C30.9622 6.62742 31.261 6.81536 31.5693 6.78681C31.7137 6.7752 32.4137 6.71279 33.234 6.54455C32.764 7.04982 32.1373 7.6804 31.3025 8.45655Z" fill="#232323" stroke="#232323" stroke-width="0.5"/>
</svg>
