<svg width="35" height="35" viewBox="0 0 35 35" fill="none" xmlns="http://www.w3.org/2000/svg">
<path d="M8.30078 24.3095V25.4761H10.2946H12.7819H16.2567H18.744H22.2187H24.7061H26.6999V24.3095H25.2894V14.756H26.6999V13.5894H24.7061H22.2187H18.744H16.2567H12.7819H10.2946H8.30078V14.756H9.71128V24.3095H8.30078ZM13.3657 24.3095V14.756H15.6737V24.3095H13.3657ZM19.3277 24.3095V14.756H21.6358V24.3095H19.3277ZM24.1231 14.756V24.3095H22.8024V14.756H24.1231ZM18.1611 14.756V24.3095H16.8404V14.756H18.1611ZM10.8783 14.756H12.199V24.3095H10.8783V14.756Z" fill="black"/>
<path d="M27.7078 26.6387H7.29427C6.97188 26.6387 6.71094 26.9 6.71094 27.222C6.71094 27.544 6.97188 27.8053 7.29427 27.8053H27.7074C28.0298 27.8053 28.2908 27.544 28.2908 27.222C28.2908 26.9 28.0298 26.6387 27.7078 26.6387Z" fill="black"/>
<path d="M28.283 11.7645C28.2811 11.7501 28.2807 11.7349 28.2776 11.7209C28.2733 11.7015 28.2659 11.6824 28.2597 11.6633C28.2542 11.6466 28.2503 11.6291 28.2433 11.6128C28.2359 11.5953 28.2254 11.5793 28.2161 11.563C28.2072 11.5471 28.1998 11.53 28.1893 11.5148C28.1792 11.5 28.1663 11.4868 28.1547 11.4728C28.1422 11.4576 28.1306 11.4421 28.1169 11.4281C28.1061 11.4176 28.0936 11.409 28.0819 11.3989C28.0641 11.3837 28.0466 11.3682 28.0267 11.3553C28.0248 11.3542 28.0232 11.3522 28.0209 11.3507L17.8141 4.85545C17.6232 4.73373 17.3789 4.73373 17.188 4.85545L6.98122 11.3507C6.97927 11.3518 6.97772 11.3538 6.97538 11.3553C6.95555 11.3682 6.93805 11.3837 6.92016 11.3989C6.90849 11.4086 6.89566 11.4176 6.88516 11.4281C6.87116 11.4417 6.85988 11.4576 6.84744 11.4728C6.83577 11.4868 6.82294 11.5 6.81283 11.5148C6.80272 11.53 6.79494 11.5467 6.78599 11.563C6.77705 11.5797 6.76616 11.5957 6.75877 11.6128C6.75177 11.6291 6.74788 11.6462 6.74244 11.6633C6.73622 11.6824 6.72883 11.7011 6.72455 11.7209C6.72144 11.7349 6.72105 11.7501 6.7191 11.7645C6.71599 11.7886 6.7121 11.8123 6.71172 11.8364C6.71172 11.8387 6.71094 11.8411 6.71094 11.8434C6.71094 11.8562 6.71405 11.8679 6.71483 11.8803C6.71638 11.9041 6.71755 11.9278 6.72183 11.9511C6.72533 11.969 6.73116 11.9857 6.73583 12.0028C6.74127 12.0219 6.74594 12.0413 6.75372 12.06C6.76188 12.0802 6.77238 12.0985 6.78288 12.1176C6.78988 12.1304 6.79455 12.1436 6.80233 12.1561C6.80388 12.1584 6.80583 12.16 6.80738 12.1623C6.81905 12.1798 6.83266 12.1953 6.84627 12.2117C6.85755 12.2257 6.86805 12.2405 6.88049 12.2529C6.8906 12.263 6.90227 12.2712 6.91316 12.2805C6.93105 12.2961 6.94816 12.3124 6.9676 12.3256C6.97616 12.3315 6.98588 12.3353 6.99483 12.3408C7.01816 12.3548 7.0411 12.3688 7.06599 12.3793C7.07649 12.384 7.08855 12.3863 7.09944 12.3902C7.12394 12.3991 7.14844 12.4081 7.1741 12.4135C7.18499 12.4158 7.19705 12.4158 7.20833 12.4178C7.23516 12.4221 7.26199 12.4256 7.2896 12.426C7.29155 12.426 7.29349 12.4267 7.29583 12.4267H27.709C27.7545 12.4267 27.7984 12.4201 27.8412 12.4104C27.8529 12.4077 27.8638 12.4034 27.8754 12.3999C27.9066 12.3906 27.9369 12.3793 27.9657 12.3649C27.9789 12.3583 27.9913 12.3517 28.0042 12.3439C28.0318 12.3276 28.0574 12.3093 28.0819 12.2887C28.0921 12.2805 28.1022 12.2731 28.1119 12.2642C28.1442 12.2335 28.1729 12.1992 28.1974 12.1619C28.1986 12.16 28.2006 12.1588 28.2017 12.1568C28.2095 12.1444 28.2142 12.1312 28.2212 12.1183C28.2313 12.0993 28.2422 12.081 28.2503 12.0608C28.2577 12.0421 28.2628 12.0227 28.2682 12.0036C28.2733 11.9865 28.2791 11.9694 28.2822 11.9519C28.2865 11.9282 28.2881 11.9048 28.2892 11.8811C28.29 11.8687 28.2931 11.8566 28.2931 11.8442C28.2931 11.8418 28.2923 11.8395 28.2923 11.8372C28.29 11.8119 28.2865 11.7882 28.283 11.7645ZM17.501 6.03923L25.7043 11.2597H9.29783L17.501 6.03923Z" fill="black"/>
<path d="M17.5 0C7.8505 0 0 7.8505 0 17.5C0 27.1495 7.8505 35 17.5 35C27.1495 35 35 27.1495 35 17.5C35 7.8505 27.1495 0 17.5 0ZM17.5 33.8333C8.49372 33.8333 1.16667 26.5063 1.16667 17.5C1.16667 8.49372 8.49372 1.16667 17.5 1.16667C26.5063 1.16667 33.8333 8.49372 33.8333 17.5C33.8333 26.5063 26.5063 33.8333 17.5 33.8333Z" fill="black"/>
</svg>
