<svg width="32" height="32" viewBox="0 0 32 32" fill="none" xmlns="http://www.w3.org/2000/svg">
<path d="M30.44 1.56003C29.9462 1.06338 29.3586 0.669744 28.7114 0.401951C28.0643 0.134158 27.3704 -0.00245656 26.67 3.34342e-05H5.33C3.9164 3.34342e-05 2.56069 0.561585 1.56112 1.56115C0.561552 2.56072 0 3.91643 0 5.33003V26.67C0 28.0836 0.561552 29.4393 1.56112 30.4389C2.56069 31.4385 3.9164 32 5.33 32H26.67C28.0836 32 29.4393 31.4385 30.4389 30.4389C31.4384 29.4393 32 28.0836 32 26.67V5.33003C32.0025 4.62965 31.8659 3.93575 31.5981 3.28859C31.3303 2.64142 30.9366 2.05387 30.44 1.56003V1.56003ZM3.07 3.07003C3.36594 2.77183 3.71803 2.53522 4.10594 2.37388C4.49384 2.21254 4.90988 2.12966 5.33 2.13003H26.67C27.5187 2.13003 28.3326 2.46718 28.9327 3.06729C29.5329 3.66741 29.87 4.48134 29.87 5.33003V8.53003H2.13V5.33003C2.12963 4.90991 2.2125 4.49388 2.37385 4.10597C2.53519 3.71806 2.7718 3.36597 3.07 3.07003V3.07003ZM18 19.68C18.0735 19.5308 18.1112 19.3664 18.11 19.2V17.31C19.7345 17.6856 21.2336 18.4766 22.4606 19.6055C23.6876 20.7343 24.6006 22.1625 25.11 23.75L21.37 24.5L18.79 23.64L17.2 21.26L18 19.68ZM15.09 21.93L17.22 25.13C17.3517 25.3271 17.5452 25.4748 17.77 25.55L21 26.61C21.1802 26.658 21.3698 26.658 21.55 26.61L25.55 25.81C25.55 26.08 25.55 26.36 25.55 26.63C25.5479 27.7209 25.3584 28.8033 24.99 29.83H14.93V27.73C14.927 27.5082 14.8551 27.2929 14.7243 27.1137C14.5935 26.9346 14.4103 26.8005 14.2 26.73L11.2 25.73L9.2 23.73C9.00041 23.5322 8.73101 23.4209 8.45 23.42H7C7.66007 21.5573 8.87835 19.9434 10.4889 18.7981C12.0994 17.6529 14.0238 17.032 16 17.02V18.9L15 20.81C14.9125 20.9885 14.8764 21.1878 14.8959 21.3857C14.9153 21.5835 14.9894 21.772 15.11 21.93H15.09ZM6.4 26.67C6.40012 26.3125 6.42015 25.9553 6.46 25.6H8.09L9.91 27.42C10.0278 27.5383 10.1716 27.6273 10.33 27.68L12.8 28.5V29.86H7C6.61905 28.8388 6.41611 27.7599 6.4 26.67V26.67ZM28.93 28.93C28.4864 29.3791 27.9188 29.6855 27.3 29.81C27.7885 28.0667 27.8668 26.2339 27.5287 24.4552C27.1907 22.6765 26.4455 21.0002 25.3515 19.5576C24.2576 18.115 22.8445 16.9451 21.223 16.1397C19.6015 15.3344 17.8155 14.9152 16.005 14.9152C14.1945 14.9152 12.4085 15.3344 10.787 16.1397C9.1655 16.9451 7.75243 18.115 6.65845 19.5576C5.56448 21.0002 4.8193 22.6765 4.48126 24.4552C4.14323 26.2339 4.22152 28.0667 4.71 29.81C3.98469 29.6644 3.33225 29.2719 2.86369 28.6995C2.39513 28.127 2.13939 27.4098 2.14 26.67V10.67H29.87V26.67C29.8704 27.0902 29.7875 27.5062 29.6262 27.8941C29.4648 28.282 29.2282 28.6341 28.93 28.93Z" fill="#232323"/>
</svg>
