<svg width="359" height="66" viewBox="0 0 359 66" fill="none" xmlns="http://www.w3.org/2000/svg">
<g opacity="0.4" filter="url(#filter0_i_191_4771)">
<circle cx="32.9369" cy="32.9369" r="32.9369" fill="white"/>
</g>
<rect x="13.3691" y="50.1465" width="39.1048" height="1.94165" fill="#758287"/>
<path d="M52.0861 21.8437L33.057 11.752L14.0279 21.8437H52.0861Z" fill="#9CACAF"/>
<path d="M13.9512 23.5054H52.1628V50.1448H13.9512V23.5054Z" fill="#9CACAF"/>
<rect x="12.8633" y="21.8379" width="40.1533" height="1.78632" fill="#758287"/>
<rect x="12.8633" y="28.2461" width="40.1533" height="1.78632" fill="#758287"/>
<rect x="12.8633" y="24.9961" width="40.1533" height="1.78632" fill="#758287"/>
<rect x="13.3672" y="35.5078" width="39.1048" height="1.78632" fill="#758287"/>
<circle cx="33.0602" cy="45.0329" r="8.31025" fill="#747C82"/>
<circle cx="33.0596" cy="45.0322" r="9.08691" fill="#D2D9E0"/>
<circle cx="33.0611" cy="45.0337" r="7.84425" fill="#959EA4"/>
<rect opacity="0.7" x="37.9277" y="40.8184" width="3.43514" height="1.8186" rx="0.909302" fill="#D4DAE1"/>
<rect opacity="0.7" x="37.9277" y="47.418" width="3.43514" height="1.88596" rx="0.94298" fill="#D4DAE1"/>
<rect x="29.2441" y="44.5957" width="7.61126" height="0.776659" fill="#D4DAE1"/>
<rect x="33.4375" y="41.1777" width="7.61126" height="0.776659" transform="rotate(90 33.4375 41.1777)" fill="#D4DAE1"/>
<rect x="36.0137" y="42.5664" width="13.6773" height="0.776659" transform="rotate(135 36.0137 42.5664)" fill="#D4DAE1"/>
<rect x="35.4668" y="47.9492" width="16.4198" height="0.776659" transform="rotate(-135 35.4668 47.9492)" fill="#D4DAE1"/>
<path fill-rule="evenodd" clip-rule="evenodd" d="M33.059 49.2664C35.3967 49.2664 37.2918 47.3713 37.2918 45.0336C37.2918 42.6959 35.3967 40.8008 33.059 40.8008C30.7213 40.8008 28.8262 42.6959 28.8262 45.0336C28.8262 47.3713 30.7213 49.2664 33.059 49.2664ZM33.059 48.6062C35.0321 48.6062 36.6316 47.0067 36.6316 45.0336C36.6316 43.0605 35.0321 41.4609 33.059 41.4609C31.0859 41.4609 29.4863 43.0605 29.4863 45.0336C29.4863 47.0067 31.0859 48.6062 33.059 48.6062Z" fill="#D4DAE1"/>
<path fill-rule="evenodd" clip-rule="evenodd" d="M33.0425 49.7081C35.6279 49.7081 37.7238 47.6123 37.7238 45.0269C37.7238 42.4416 35.6279 40.3457 33.0425 40.3457C30.4572 40.3457 28.3613 42.4416 28.3613 45.0269C28.3613 47.6123 30.4572 49.7081 33.0425 49.7081ZM33.0425 48.978C35.2247 48.978 36.9937 47.2091 36.9937 45.0269C36.9937 42.8448 35.2247 41.0758 33.0425 41.0758C30.8604 41.0758 29.0914 42.8448 29.0914 45.0269C29.0914 47.2091 30.8604 48.978 33.0425 48.978Z" fill="#D4DAE1"/>
<circle cx="33.0587" cy="45.0333" r="0.970824" fill="url(#paint0_linear_191_4771)"/>
<g filter="url(#filter1_i_191_4771)">
<rect x="15.2363" y="30.9629" width="2.52414" height="20.465" fill="white"/>
</g>
<rect x="14.6152" y="29.9531" width="3.80563" height="1.00966" fill="#582121"/>
<rect x="14.6152" y="51.3887" width="3.80563" height="1.16499" fill="url(#paint1_linear_191_4771)"/>
<g filter="url(#filter2_i_191_4771)">
<rect x="23.6992" y="30.9629" width="2.52414" height="20.465" fill="white"/>
</g>
<rect x="23.0781" y="29.9531" width="3.80563" height="1.00966" fill="#582121"/>
<rect x="23.0781" y="51.3887" width="3.80563" height="1.16499" fill="url(#paint2_linear_191_4771)"/>
<g filter="url(#filter3_i_191_4771)">
<rect x="48.0879" y="30.9629" width="2.52414" height="20.465" fill="white"/>
</g>
<rect x="47.4668" y="29.9531" width="3.80563" height="1.00966" fill="#582121"/>
<rect x="47.4668" y="51.3887" width="3.80563" height="1.16499" fill="url(#paint3_linear_191_4771)"/>
<g filter="url(#filter4_i_191_4771)">
<rect x="39.6211" y="30.9629" width="2.52414" height="20.465" fill="white"/>
</g>
<rect x="39" y="29.9531" width="3.80563" height="1.00966" fill="#582121"/>
<rect x="39" y="51.3887" width="3.80563" height="1.16499" fill="url(#paint4_linear_191_4771)"/>
<circle cx="33.056" cy="26.4173" r="10.6791" fill="#D87603"/>
<circle cx="33.0557" cy="26.4307" r="9.08691" fill="#FF8A01"/>
<path d="M27.002 21.0723H30.1086L33.1764 30.9358L36.2248 21.0723H39.1178L34.7685 34.0036H31.3707L27.002 21.0723Z" fill="white"/>
<path d="M78.3867 15.676H84.6373L90.8098 35.5217L96.9432 15.676H102.764L94.0132 41.6942H87.1766L78.3867 15.676Z" fill="black"/>
<path d="M109.933 42.2802C107.85 42.2802 106.196 41.3947 104.972 39.6237C103.748 37.8527 103.136 35.4436 103.136 32.3964C103.136 28.6981 104.073 25.8854 105.949 23.9581C107.824 22.0048 110.519 21.0281 114.035 21.0281C116.015 21.0281 118.333 21.3406 120.989 21.9657V41.6942H115.754L115.871 38.4908H115.715C115.038 39.7148 114.205 40.6524 113.215 41.3035C112.251 41.9546 111.157 42.2802 109.933 42.2802ZM111.105 37.475C111.913 37.475 112.707 37.0453 113.488 36.1858C114.27 35.3264 114.999 34.1804 115.676 32.748V26.1849C114.843 25.9505 114.009 25.8333 113.176 25.8333C111.613 25.8333 110.428 26.3672 109.621 27.435C108.84 28.5028 108.449 30.0785 108.449 32.162C108.449 33.8028 108.683 35.105 109.152 36.0686C109.621 37.0062 110.272 37.475 111.105 37.475Z" fill="black"/>
<path d="M132.539 42.2411C130.403 42.2411 128.723 41.59 127.499 40.2878C126.275 38.9856 125.663 37.2016 125.663 34.9357V21.575H131.171V34.0372C131.171 35.105 131.432 35.9384 131.953 36.5374C132.474 37.1104 133.177 37.3969 134.062 37.3969C134.948 37.3969 135.794 37.1104 136.602 36.5374C137.435 35.9645 138.125 35.1962 138.672 34.2325V21.575H144.18V41.6942H138.672V39.0377C137.917 40.0534 137.044 40.8478 136.055 41.4207C135.091 41.9677 133.919 42.2411 132.539 42.2411Z" fill="black"/>
<path d="M148.346 36.9672H151.901V17.8637H148.542V13.1758H157.41V36.9672H160.965V41.6942H148.346V36.9672Z" fill="black"/>
<path d="M171.393 42.2802C169.517 42.2802 168.059 41.8114 167.017 40.8738C166.001 39.9102 165.494 38.5559 165.494 36.8109V26.3021H162.368V21.575H165.494V17.2777C167.343 16.9652 169.166 16.7308 170.963 16.5746V21.575H176.042V26.3021H170.963V35.7952C170.963 36.3421 171.119 36.7588 171.432 37.0453C171.77 37.3318 172.239 37.475 172.838 37.475C173.567 37.475 174.401 37.3057 175.338 36.9672L176.549 41.1082C174.883 41.8895 173.164 42.2802 171.393 42.2802Z" fill="black"/>
<path d="M186.273 42.2802C184.997 42.2802 183.76 42.15 182.562 41.8895C181.39 41.6291 180.387 41.2775 179.554 40.8347L180.061 36.1468C180.947 36.6937 181.924 37.1365 182.991 37.475C184.059 37.8136 185.062 37.9829 185.999 37.9829C186.885 37.9829 187.627 37.8266 188.226 37.5141C188.825 37.1755 189.125 36.6937 189.125 36.0686C189.125 35.5738 188.916 35.1962 188.5 34.9357C188.083 34.6492 187.289 34.2976 186.117 33.8809L185.062 33.4903C183.942 33.0736 183.03 32.6829 182.327 32.3183C181.624 31.9276 180.986 31.3416 180.413 30.5603C179.84 29.779 179.554 28.7502 179.554 27.4741C179.554 25.4426 180.309 23.8669 181.819 22.747C183.356 21.6011 185.348 21.0281 187.796 21.0281C189.724 21.0281 191.755 21.4058 193.891 22.161L193.149 26.8099C192.393 26.3672 191.534 26.0156 190.57 25.7551C189.633 25.4686 188.747 25.3254 187.914 25.3254C187.054 25.3254 186.364 25.4686 185.843 25.7551C185.348 26.0416 185.101 26.4583 185.101 27.0053C185.101 27.5261 185.309 27.9168 185.726 28.1772C186.143 28.4377 186.846 28.7372 187.836 29.0758C188.617 29.3623 189.073 29.5315 189.203 29.5836C190.297 30.0264 191.208 30.4561 191.938 30.8728C192.667 31.2895 193.305 31.9146 193.852 32.748C194.399 33.5554 194.672 34.5971 194.672 35.8733C194.672 38.0089 193.904 39.6107 192.367 40.6785C190.831 41.7463 188.799 42.2802 186.273 42.2802Z" fill="black"/>
<path d="M206.781 15.676C207.536 15.65 208.968 15.637 211.078 15.637C213.214 15.637 214.659 15.65 215.414 15.676C218.097 15.7281 220.206 16.4443 221.743 17.8247C223.28 19.205 224.048 21.1193 224.048 23.5674C224.048 25.3124 223.657 26.862 222.876 28.2163C222.095 29.5446 220.988 30.5733 219.555 31.3025C218.149 32.0318 216.547 32.3964 214.75 32.3964H212.211V41.6942H206.781V15.676ZM214.516 27.7866C215.792 27.7866 216.782 27.422 217.485 26.6927C218.214 25.9635 218.579 24.9738 218.579 23.7237C218.579 21.4318 217.315 20.2858 214.789 20.2858H212.211V27.7866H214.516Z" fill="black"/>
<path d="M228.067 21.575H233.575V24.8566H233.888C234.643 23.5284 235.385 22.5517 236.114 21.9266C236.87 21.3016 237.807 20.989 238.927 20.989C239.396 20.989 239.787 21.0411 240.099 21.1453L239.513 27.0834C238.836 26.9011 238.289 26.8099 237.872 26.8099C237.273 26.8099 236.74 26.9271 236.271 27.1615C235.828 27.3959 235.424 27.7084 235.06 28.0991C234.721 28.4898 234.226 29.0888 233.575 29.8962V41.6942H228.067V21.575Z" fill="black"/>
<path d="M252.164 42.2802C250.133 42.2802 248.336 41.8374 246.773 40.9519C245.237 40.0664 244.039 38.8293 243.179 37.2406C242.32 35.6259 241.89 33.7637 241.89 31.6541C241.89 29.5446 242.307 27.6954 243.14 26.1067C243.999 24.492 245.198 23.2419 246.734 22.3564C248.297 21.4709 250.094 21.0281 252.125 21.0281C254.157 21.0281 255.941 21.4709 257.477 22.3564C259.04 23.2158 260.238 24.4399 261.071 26.0286C261.931 27.6173 262.361 29.4534 262.361 31.5369C262.361 33.6465 261.931 35.5217 261.071 37.1625C260.238 38.7772 259.04 40.0404 257.477 40.9519C255.941 41.8374 254.17 42.2802 252.164 42.2802ZM252.125 37.5141C253.532 37.5141 254.652 36.9802 255.485 35.9124C256.344 34.8185 256.774 33.3861 256.774 31.6151C256.774 29.8441 256.344 28.4377 255.485 27.3959C254.652 26.3281 253.532 25.7942 252.125 25.7942C250.719 25.7942 249.586 26.3281 248.727 27.3959C247.893 28.4377 247.476 29.8441 247.476 31.6151C247.476 33.3861 247.893 34.8185 248.727 35.9124C249.586 36.9802 250.719 37.5141 252.125 37.5141Z" fill="black"/>
<path d="M273.827 42.2802C271.952 42.2802 270.494 41.8114 269.452 40.8738C268.436 39.9102 267.928 38.5559 267.928 36.8109V26.3021H264.803V21.575H267.928V17.2777C269.777 16.9652 271.6 16.7308 273.397 16.5746V21.575H278.476V26.3021H273.397V35.7952C273.397 36.3421 273.554 36.7588 273.866 37.0453C274.205 37.3318 274.674 37.475 275.273 37.475C276.002 37.475 276.835 37.3057 277.773 36.9672L278.984 41.1082C277.317 41.8895 275.598 42.2802 273.827 42.2802Z" fill="black"/>
<path d="M291.231 42.2802C289.199 42.2802 287.402 41.8374 285.84 40.9519C284.303 40.0664 283.105 38.8293 282.245 37.2406C281.386 35.6259 280.956 33.7637 280.956 31.6541C280.956 29.5446 281.373 27.6954 282.206 26.1067C283.066 24.492 284.264 23.2419 285.8 22.3564C287.363 21.4709 289.16 21.0281 291.192 21.0281C293.223 21.0281 295.007 21.4709 296.544 22.3564C298.106 23.2158 299.304 24.4399 300.138 26.0286C300.997 27.6173 301.427 29.4534 301.427 31.5369C301.427 33.6465 300.997 35.5217 300.138 37.1625C299.304 38.7772 298.106 40.0404 296.544 40.9519C295.007 41.8374 293.236 42.2802 291.231 42.2802ZM291.192 37.5141C292.598 37.5141 293.718 36.9802 294.551 35.9124C295.411 34.8185 295.84 33.3861 295.84 31.6151C295.84 29.8441 295.411 28.4377 294.551 27.3959C293.718 26.3281 292.598 25.7942 291.192 25.7942C289.785 25.7942 288.652 26.3281 287.793 27.3959C286.959 28.4377 286.543 29.8441 286.543 31.6151C286.543 33.3861 286.959 34.8185 287.793 35.9124C288.652 36.9802 289.785 37.5141 291.192 37.5141Z" fill="black"/>
<path d="M315.077 42.2802C311.743 42.2802 309.152 41.3947 307.302 39.6237C305.479 37.8527 304.568 35.3524 304.568 32.1229C304.568 29.9352 304.998 28.008 305.857 26.3411C306.716 24.6483 307.928 23.346 309.49 22.4345C311.053 21.4969 312.863 21.0281 314.92 21.0281C315.884 21.0281 316.887 21.1453 317.929 21.3797C318.996 21.5881 319.817 21.8355 320.39 22.122L319.335 26.7709C318.736 26.4844 318.072 26.263 317.343 26.1067C316.639 25.9244 315.975 25.8333 315.35 25.8333C313.735 25.8333 312.433 26.3802 311.444 27.4741C310.48 28.5679 309.998 30.0134 309.998 31.8104C309.998 33.6335 310.493 35.0399 311.483 36.0296C312.498 37.0193 313.931 37.5141 315.78 37.5141C317.004 37.5141 318.319 37.2797 319.726 36.8109L320.546 41.2645C318.853 41.9416 317.03 42.2802 315.077 42.2802Z" fill="black"/>
<path d="M333.578 42.2802C331.546 42.2802 329.749 41.8374 328.187 40.9519C326.65 40.0664 325.452 38.8293 324.593 37.2406C323.733 35.6259 323.303 33.7637 323.303 31.6541C323.303 29.5446 323.72 27.6954 324.554 26.1067C325.413 24.492 326.611 23.2419 328.148 22.3564C329.71 21.4709 331.507 21.0281 333.539 21.0281C335.57 21.0281 337.354 21.4709 338.891 22.3564C340.454 23.2158 341.652 24.4399 342.485 26.0286C343.345 27.6173 343.774 29.4534 343.774 31.5369C343.774 33.6465 343.345 35.5217 342.485 37.1625C341.652 38.7772 340.454 40.0404 338.891 40.9519C337.354 41.8374 335.583 42.2802 333.578 42.2802ZM333.539 37.5141C334.945 37.5141 336.065 36.9802 336.899 35.9124C337.758 34.8185 338.188 33.3861 338.188 31.6151C338.188 29.8441 337.758 28.4377 336.899 27.3959C336.065 26.3281 334.945 25.7942 333.539 25.7942C332.132 25.7942 331 26.3281 330.14 27.3959C329.307 28.4377 328.89 29.8441 328.89 31.6151C328.89 33.3861 329.307 34.8185 330.14 35.9124C331 36.9802 332.132 37.5141 333.539 37.5141Z" fill="black"/>
<path d="M346.196 36.9672H349.751V17.8637H346.391V13.1758H355.259V36.9672H358.814V41.6942H346.196V36.9672Z" fill="black"/>
<rect x="77.998" y="50.7871" width="280.806" height="4.91697" fill="#FF8A01"/>
<defs>
<filter id="filter0_i_191_4771" x="-8" y="0" width="73.873" height="69.873" filterUnits="userSpaceOnUse" color-interpolation-filters="sRGB">
<feFlood flood-opacity="0" result="BackgroundImageFix"/>
<feBlend mode="normal" in="SourceGraphic" in2="BackgroundImageFix" result="shape"/>
<feColorMatrix in="SourceAlpha" type="matrix" values="0 0 0 0 0 0 0 0 0 0 0 0 0 0 0 0 0 0 127 0" result="hardAlpha"/>
<feMorphology radius="41" operator="erode" in="SourceAlpha" result="effect1_innerShadow_191_4771"/>
<feOffset dx="-8" dy="4"/>
<feGaussianBlur stdDeviation="15"/>
<feComposite in2="hardAlpha" operator="arithmetic" k2="-1" k3="1"/>
<feColorMatrix type="matrix" values="0 0 0 0 0.8 0 0 0 0 0.8 0 0 0 0 0.8 0 0 0 1 0"/>
<feBlend mode="normal" in2="shape" result="effect1_innerShadow_191_4771"/>
</filter>
<filter id="filter1_i_191_4771" x="5.23633" y="30.9629" width="12.5234" height="24.4648" filterUnits="userSpaceOnUse" color-interpolation-filters="sRGB">
<feFlood flood-opacity="0" result="BackgroundImageFix"/>
<feBlend mode="normal" in="SourceGraphic" in2="BackgroundImageFix" result="shape"/>
<feColorMatrix in="SourceAlpha" type="matrix" values="0 0 0 0 0 0 0 0 0 0 0 0 0 0 0 0 0 0 127 0" result="hardAlpha"/>
<feOffset dx="-10" dy="4"/>
<feGaussianBlur stdDeviation="15"/>
<feComposite in2="hardAlpha" operator="arithmetic" k2="-1" k3="1"/>
<feColorMatrix type="matrix" values="0 0 0 0 0 0 0 0 0 0 0 0 0 0 0 0 0 0 0.25 0"/>
<feBlend mode="normal" in2="shape" result="effect1_innerShadow_191_4771"/>
</filter>
<filter id="filter2_i_191_4771" x="13.6992" y="30.9629" width="12.5234" height="24.4648" filterUnits="userSpaceOnUse" color-interpolation-filters="sRGB">
<feFlood flood-opacity="0" result="BackgroundImageFix"/>
<feBlend mode="normal" in="SourceGraphic" in2="BackgroundImageFix" result="shape"/>
<feColorMatrix in="SourceAlpha" type="matrix" values="0 0 0 0 0 0 0 0 0 0 0 0 0 0 0 0 0 0 127 0" result="hardAlpha"/>
<feOffset dx="-10" dy="4"/>
<feGaussianBlur stdDeviation="15"/>
<feComposite in2="hardAlpha" operator="arithmetic" k2="-1" k3="1"/>
<feColorMatrix type="matrix" values="0 0 0 0 0 0 0 0 0 0 0 0 0 0 0 0 0 0 0.25 0"/>
<feBlend mode="normal" in2="shape" result="effect1_innerShadow_191_4771"/>
</filter>
<filter id="filter3_i_191_4771" x="38.0879" y="30.9629" width="12.5234" height="24.4648" filterUnits="userSpaceOnUse" color-interpolation-filters="sRGB">
<feFlood flood-opacity="0" result="BackgroundImageFix"/>
<feBlend mode="normal" in="SourceGraphic" in2="BackgroundImageFix" result="shape"/>
<feColorMatrix in="SourceAlpha" type="matrix" values="0 0 0 0 0 0 0 0 0 0 0 0 0 0 0 0 0 0 127 0" result="hardAlpha"/>
<feOffset dx="-10" dy="4"/>
<feGaussianBlur stdDeviation="15"/>
<feComposite in2="hardAlpha" operator="arithmetic" k2="-1" k3="1"/>
<feColorMatrix type="matrix" values="0 0 0 0 0 0 0 0 0 0 0 0 0 0 0 0 0 0 0.25 0"/>
<feBlend mode="normal" in2="shape" result="effect1_innerShadow_191_4771"/>
</filter>
<filter id="filter4_i_191_4771" x="29.6211" y="30.9629" width="12.5234" height="24.4648" filterUnits="userSpaceOnUse" color-interpolation-filters="sRGB">
<feFlood flood-opacity="0" result="BackgroundImageFix"/>
<feBlend mode="normal" in="SourceGraphic" in2="BackgroundImageFix" result="shape"/>
<feColorMatrix in="SourceAlpha" type="matrix" values="0 0 0 0 0 0 0 0 0 0 0 0 0 0 0 0 0 0 127 0" result="hardAlpha"/>
<feOffset dx="-10" dy="4"/>
<feGaussianBlur stdDeviation="15"/>
<feComposite in2="hardAlpha" operator="arithmetic" k2="-1" k3="1"/>
<feColorMatrix type="matrix" values="0 0 0 0 0 0 0 0 0 0 0 0 0 0 0 0 0 0 0.25 0"/>
<feBlend mode="normal" in2="shape" result="effect1_innerShadow_191_4771"/>
</filter>
<linearGradient id="paint0_linear_191_4771" x1="33.0587" y1="44.0625" x2="33.0587" y2="46.0041" gradientUnits="userSpaceOnUse">
<stop stop-color="#9BABA8"/>
<stop offset="1" stop-color="#8C9C9E"/>
</linearGradient>
<linearGradient id="paint1_linear_191_4771" x1="16.518" y1="51.3887" x2="16.518" y2="52.5537" gradientUnits="userSpaceOnUse">
<stop stop-color="#9BABA8"/>
<stop offset="1" stop-color="#8C9C9E"/>
</linearGradient>
<linearGradient id="paint2_linear_191_4771" x1="24.9809" y1="51.3887" x2="24.9809" y2="52.5537" gradientUnits="userSpaceOnUse">
<stop stop-color="#9BABA8"/>
<stop offset="1" stop-color="#8C9C9E"/>
</linearGradient>
<linearGradient id="paint3_linear_191_4771" x1="49.3696" y1="51.3887" x2="49.3696" y2="52.5537" gradientUnits="userSpaceOnUse">
<stop stop-color="#9BABA8"/>
<stop offset="1" stop-color="#8C9C9E"/>
</linearGradient>
<linearGradient id="paint4_linear_191_4771" x1="40.9028" y1="51.3887" x2="40.9028" y2="52.5537" gradientUnits="userSpaceOnUse">
<stop stop-color="#9BABA8"/>
<stop offset="1" stop-color="#8C9C9E"/>
</linearGradient>
</defs>
</svg>
