<svg width="1416" height="270" viewBox="0 0 1416 270" fill="none" xmlns="http://www.w3.org/2000/svg">
<g opacity="0.4" filter="url(#filter0_i_97_1721)">
<circle cx="135" cy="135" r="135" fill="#F3F3F3"/>
</g>
<path d="M198.122 172.831C200.08 151.975 185.418 130.237 183.323 92.0488L87.1031 131.118C82.3153 146.393 72.6797 177.061 72.4403 177.531C60.4706 221.007 135.817 223.978 135.817 223.666C158.559 234.476 166.103 218.167 167.001 208.669C172.507 211.724 184.257 205.242 189.444 201.619C202.91 210.431 211.289 201.619 213.084 183.112C214.521 168.307 206.102 172.048 201.713 175.769L198.122 172.831Z" fill="white" stroke="black" stroke-width="3"/>
<path d="M72.0178 182.241C98.1218 205.722 167.668 180.856 199.183 165.486L184.221 109.379L147.115 114.96L88.7623 127.592C83.287 145.828 72.4448 181.714 72.0178 182.241C72.0134 182.238 72.0091 182.234 72.0048 182.23C72.0048 182.248 72.0092 182.252 72.0178 182.241Z" fill="url(#paint0_linear_97_1721)"/>
<path d="M199.183 165.486C167.662 180.859 98.0987 205.73 72.0048 182.23C72.0048 183.17 83.1765 146.196 88.7623 127.592L147.115 114.96L184.221 109.379L199.183 165.486Z" stroke="black" stroke-width="3"/>
<path d="M171.027 102.299C177.147 105.832 173.58 138.202 163.75 105.832L171.027 102.299Z" fill="#C14D85" stroke="black" stroke-width="4"/>
<path d="M169.94 102.156C173.559 104.417 171.45 125.134 165.635 104.417L169.94 102.156Z" fill="#A24270"/>
<path d="M71.3241 163.042C83.2444 173.764 115.002 162.41 129.394 155.391L122.561 129.77L105.617 132.318L78.9704 138.086C76.4701 146.414 71.5191 162.801 71.3241 163.042C71.3221 163.04 71.3201 163.038 71.3181 163.037C71.3181 163.045 71.3201 163.047 71.3241 163.042Z" fill="url(#paint1_linear_97_1721)"/>
<path d="M129.394 155.391C115 162.411 83.2338 173.768 71.3181 163.037C71.3181 163.466 76.4197 146.582 78.9704 138.086L105.617 132.318L122.561 129.77L129.394 155.391Z" stroke="black" stroke-width="3"/>
<path d="M70.047 133.754C111.462 161.954 152.538 124.55 167.899 102.322C178.672 105.847 190.642 131.404 191.24 130.817C218.172 109.079 171.191 58.8472 171.191 58.5534C171.789 50.9158 164.698 40.022 164.308 40.0469C163.918 40.0718 150.244 47.6844 150.244 47.0969C125.108 32.9967 102.964 51.7969 102.365 51.2094C57.1796 18.6027 78.4258 84.1098 79.0243 83.816C61.6682 109.666 70.047 134.048 70.047 133.754Z" fill="url(#paint2_radial_97_1721)" stroke="black" stroke-width="4"/>
<path opacity="0.3" d="M114.306 104.293C114.306 108.145 117.487 111.268 121.411 111.268C125.335 111.268 128.516 108.145 128.516 104.293C128.516 100.441 125.335 97.3184 121.411 97.3184C117.487 97.3184 114.306 100.441 114.306 104.293Z" fill="#F29BA1"/>
<path opacity="0.4" fill-rule="evenodd" clip-rule="evenodd" d="M195.512 95.2624L188.851 83C185.988 83.9272 183.921 86.575 183.921 89.6967C183.921 93.5904 187.137 96.7468 191.103 96.7468C192.765 96.7468 194.295 96.1927 195.512 95.2624Z" fill="#EAA5A8"/>
<path d="M159.9 85.29C159.9 86.2884 160.757 87.1386 161.865 87.1386C162.973 87.1386 163.83 86.2884 163.83 85.29C163.83 84.2916 162.973 83.4414 161.865 83.4414C160.757 83.4414 159.9 84.2916 159.9 85.29Z" fill="black" stroke="black"/>
<ellipse rx="2.66772" ry="2.37286" transform="matrix(-0.701093 0.71307 0.725917 0.687782 143.273 76.2276)" fill="#020202"/>
<ellipse rx="2.40529" ry="2.13944" transform="matrix(-0.701093 0.71307 0.725917 0.687782 172.065 76.7335)" fill="#020202"/>
<path d="M148.012 192.512C154.296 192.022 166.924 194.392 167.163 207.787" stroke="black" stroke-width="3"/>
<path d="M103.725 92.9275C99.5352 90.9691 89.7799 87.6399 84.2739 89.9899" stroke="black" stroke-width="7"/>
<path d="M101.926 99.2236C97.6401 100.969 88.5916 105.857 86.6855 111.446" stroke="black" stroke-width="7"/>
<path d="M189.15 83.6495C193.065 81.2045 202.334 76.7329 208.091 78.4066" stroke="black" stroke-width="7"/>
<path d="M193.113 90.5646C197.739 90.2193 208.061 90.5637 212.335 94.7032" stroke="black" stroke-width="7"/>
<path d="M342.584 189.206C341.744 189.206 341.185 189.023 340.905 188.657C340.625 188.291 340.392 187.696 340.205 186.872C340.205 183.21 340.112 179.502 339.926 175.748C339.832 171.994 339.692 168.332 339.506 164.762V148.282H331.252C331.159 149.472 331.112 150.616 331.112 151.715C331.112 152.814 331.112 153.912 331.112 155.011C331.019 157.208 330.926 159.451 330.832 161.74C330.832 163.938 330.739 166.181 330.552 168.469C330.459 171.216 330.366 174.008 330.273 176.847C330.179 179.685 330.04 182.569 329.853 185.498C329.853 186.597 329.713 187.33 329.433 187.696C329.153 188.062 328.361 188.245 327.055 188.245C326.029 188.337 324.957 188.474 323.837 188.657C322.812 188.84 321.832 188.52 320.9 187.696C320.806 187.604 320.573 187.65 320.2 187.833C319.92 188.016 319.687 188.062 319.501 187.97C319.034 187.97 318.521 187.925 317.962 187.833C317.495 187.742 316.983 187.65 316.423 187.558C314.651 188.199 312.786 188.428 310.827 188.245C308.962 188.154 306.957 188.062 304.812 187.97V182.889C304.998 180.051 304.951 177.259 304.672 174.512C304.485 171.674 304.858 168.927 305.791 166.272C305.977 165.998 306.071 165.54 306.071 164.899C306.071 162.885 306.024 160.962 305.931 159.131C305.837 157.208 305.791 155.286 305.791 153.363C306.071 148.419 306.21 143.613 306.21 138.943C306.49 134.732 306.677 130.566 306.77 126.446C306.863 122.326 306.91 118.161 306.91 113.949C307.097 110.745 307.19 107.54 307.19 104.336C307.19 101.132 307.19 97.9273 307.19 94.7229C307.097 93.5327 306.957 92.3425 306.77 91.1524C306.677 89.9622 306.723 88.7262 306.91 87.4444C307.749 83.8738 309.055 80.6695 310.827 77.8313C312.599 74.9931 315.024 72.567 318.102 70.5528C319.407 69.7288 320.666 68.9506 321.879 68.2182C323.185 67.3942 324.584 66.7991 326.076 66.4329C326.262 66.4329 326.495 66.3413 326.775 66.1582C327.055 65.9751 327.381 65.8836 327.755 65.8836C330.366 65.8836 332.977 65.8378 335.589 65.7462C338.293 65.6547 340.951 65.792 343.563 66.1582C344.869 66.2498 346.174 66.7075 347.48 67.5315C348.879 68.2639 350.091 69.0421 351.117 69.8661C353.822 71.8803 356.014 74.2607 357.692 77.0073C359.464 79.7539 360.957 82.6378 362.169 85.6591C361.796 87.5817 362.029 89.4586 362.869 91.2897C363.708 93.1208 364.361 94.9518 364.827 96.7829V189.344H349.438C348.226 189.344 347.06 189.298 345.941 189.206C344.915 189.206 343.796 189.206 342.584 189.206ZM339.506 122.326C339.319 119.671 339.366 117.154 339.646 114.773C339.926 112.301 339.972 109.829 339.786 107.357C339.599 104.977 339.599 102.597 339.786 100.216C339.972 97.7442 339.832 95.2723 339.366 92.8003C338.247 92.8919 337.128 92.9834 336.008 93.075C334.983 93.075 333.957 93.1207 332.931 93.2123C332.837 98.0646 332.698 102.917 332.511 107.769C332.324 112.622 332.138 117.474 331.951 122.326H339.506Z" fill="black"/>
<path d="M553.495 150.067C550.883 150.159 548.598 150.205 546.64 150.205C544.681 150.205 543.702 150.159 543.702 150.067H512.505V127.545C513.344 127.453 514.137 127.408 514.883 127.408C515.723 127.408 516.469 127.408 517.122 127.408C528.593 127.133 540.111 126.996 551.676 126.996C554.847 126.996 558.018 127.087 561.189 127.27C564.453 127.362 567.764 127.453 571.122 127.545V148.282C568.23 148.557 565.246 148.877 562.168 149.243C559.184 149.518 556.293 149.793 553.495 150.067Z" fill="black"/>
<path d="M698.899 180.555C689.013 177.259 680.293 171.765 672.739 164.075C670.314 161.42 668.402 158.536 667.003 155.423C665.697 152.31 664.252 149.243 662.666 146.222C662.293 145.581 662.107 144.849 662.107 144.025C662.2 143.201 662.2 142.422 662.107 141.69C662.107 137.662 662.107 133.633 662.107 129.605C662.107 125.485 662.153 121.457 662.247 117.52C662.247 115.048 662.713 112.667 663.645 110.379C668.029 100.582 674.044 92.8919 681.692 87.3071C689.34 81.6308 698.293 77.5566 708.552 75.0847C710.138 74.7185 711.816 74.6269 713.589 74.81C715.361 74.9931 717.226 75.0847 719.184 75.0847C739.367 78.4767 729.881 87.8564 729.694 91.1524C729.508 94.3567 718.392 91.7932 718.205 94.9976C718.112 97.8358 718.019 100.674 717.925 103.512C717.832 106.35 717.692 109.234 717.506 112.164C717.412 113.903 717.179 115.643 716.806 117.382C716.526 119.03 716.433 120.724 716.526 122.464C716.713 127.591 716.946 132.809 717.226 138.119C717.599 143.338 717.925 148.602 718.205 153.912C718.205 154.279 718.112 154.645 717.925 155.011C717.832 155.286 717.785 155.606 717.785 155.972C717.692 158.353 717.412 160.733 716.946 163.114C716.573 165.402 716.993 167.783 718.205 170.255C718.951 171.72 719.184 173.413 718.905 175.336C718.718 177.259 718.532 179.09 718.345 180.829C718.252 182.019 717.785 182.752 716.946 183.026C716.2 183.393 715.361 183.484 714.428 183.301C711.817 182.935 709.158 182.569 706.454 182.203C703.842 181.836 701.324 181.287 698.899 180.555ZM779.76 128.506C779.76 129.696 779.76 130.932 779.76 132.214C779.76 133.496 779.853 134.778 780.039 136.059C780.785 141.736 780.086 146.954 777.941 151.715C775.796 156.476 773.091 161.099 769.827 165.586C765.91 170.621 761.293 174.695 755.977 177.808C750.754 180.921 745.065 183.255 738.91 184.812C736.858 185.361 734.713 185.498 732.475 185.224C730.236 185.041 727.718 184.949 724.92 184.949C698.305 180.829 713.589 165.586 735.815 134.274C735.255 116.513 722.402 95.9132 721.842 77.9686C722.775 77.694 723.614 77.4193 724.361 77.1446C725.107 76.7784 725.853 76.6869 726.599 76.87C732.101 76.9615 737.418 77.7855 742.547 79.3419C747.677 80.8068 752.573 83.0498 757.236 86.0711C763.578 90.191 768.428 95.1807 771.785 101.04C775.143 106.9 777.754 113.217 779.62 119.992C779.993 121.273 780.086 122.693 779.899 124.249C779.806 125.714 779.76 127.133 779.76 128.506Z" fill="black"/>
<path d="M799.345 173.001C798.972 171.811 798.832 170.529 798.925 169.156C799.112 167.691 799.112 166.318 798.925 165.036V71.9261C799.392 71.8345 799.765 71.743 800.045 71.6514C800.324 71.5599 800.604 71.5141 800.884 71.5141C804.148 71.331 807.412 71.1936 810.677 71.1021C813.941 71.0105 817.158 70.919 820.329 70.8274C821.355 70.8274 822.055 71.0105 822.428 71.3768C822.894 71.743 823.127 72.4296 823.127 73.4367C823.221 74.5354 823.221 75.634 823.127 76.7327C823.127 77.8313 823.127 78.9757 823.127 80.1659C823.127 91.3355 823.081 102.505 822.987 113.675C822.987 124.753 822.987 135.876 822.987 147.046V161.878H827.884C829.376 158.215 829.703 154.37 828.863 150.342C828.77 149.884 828.677 149.426 828.583 148.969C828.583 148.419 828.63 147.916 828.723 147.458C828.817 146.542 828.863 145.627 828.863 144.711C828.956 143.704 829.236 142.789 829.703 141.965C830.262 140.958 830.215 140.134 829.563 139.493C828.91 138.76 828.77 137.936 829.143 137.021C829.423 136.197 829.516 135.327 829.423 134.411C829.329 133.496 829.283 132.58 829.283 131.665C829.469 128.277 829.656 124.936 829.842 121.64C830.029 118.252 830.169 114.865 830.262 111.477C830.542 105.435 830.682 99.3922 830.682 93.3496C830.775 89.8706 830.868 86.3916 830.962 82.9125C831.055 79.3419 831.148 75.8171 831.241 72.3381C831.241 71.8803 831.288 71.4683 831.381 71.1021C831.568 70.7359 831.708 70.3239 831.801 69.8661C835.625 69.4084 839.402 69.3168 843.133 69.5915C846.956 69.8661 850.78 69.5915 854.604 68.7675C855.537 69.4084 855.956 70.095 855.863 70.8274C855.863 71.5599 855.817 72.4296 855.723 73.4367C855.537 75.4509 855.443 77.4193 855.443 79.3419C855.443 81.2645 855.443 83.2329 855.443 85.2471C855.35 87.7191 855.257 90.2826 855.164 92.9377C855.164 95.5012 855.07 98.0646 854.884 100.628C854.791 101.91 854.744 103.237 854.744 104.611C854.837 105.984 854.884 107.357 854.884 108.731C855.07 111.752 855.07 114.59 854.884 117.245C854.791 120.083 854.651 122.921 854.464 125.76C854.371 128.598 854.231 131.436 854.045 134.274C853.858 138.486 853.718 142.697 853.625 146.909C853.532 151.028 853.438 155.24 853.345 159.543C853.252 160.733 853.252 161.969 853.345 163.251C853.532 164.441 853.532 165.677 853.345 166.959C852.692 171.445 851.153 175.29 848.728 178.495C846.397 181.699 843.226 184.491 839.215 186.872C835.858 188.794 832.361 189.801 828.723 189.893C825.086 190.076 821.495 189.985 817.951 189.618C815.34 189.161 812.868 188.154 810.537 186.597C808.205 185.041 806.107 183.164 804.241 180.967C803.309 179.776 802.376 178.54 801.443 177.259C800.511 175.885 799.811 174.466 799.345 173.001Z" fill="black"/>
<path d="M1014.24 150.067C1011.63 150.159 1009.35 150.205 1007.39 150.205C1005.43 150.205 1004.45 150.159 1004.45 150.067H973.254V127.545C974.093 127.453 974.886 127.408 975.632 127.408C976.471 127.408 977.217 127.408 977.87 127.408C989.342 127.133 1000.86 126.996 1012.42 126.996C1015.6 126.996 1018.77 127.087 1021.94 127.27C1025.2 127.362 1028.51 127.453 1031.87 127.545V148.282C1028.98 148.557 1025.99 148.877 1022.92 149.243C1019.93 149.518 1017.04 149.793 1014.24 150.067Z" fill="black"/>
<path d="M1135.83 74.1234C1136.2 74.1234 1136.58 74.2607 1136.95 74.5354C1137.7 76.5495 1137.74 78.4722 1137.09 80.3032C1136.53 82.1343 1136.02 83.9654 1135.55 85.7965C1134.06 91.1066 1132.61 96.3709 1131.21 101.589C1129.82 106.808 1128.42 111.981 1127.02 117.108C1125.99 120.495 1124.97 123.883 1123.94 127.27C1123.01 130.658 1122.07 134.045 1121.14 137.433C1120.21 141.186 1119.28 145.032 1118.34 148.969C1117.41 152.814 1116.48 156.613 1115.55 160.367C1114.61 164.029 1113.68 167.691 1112.75 171.353C1111.91 174.924 1111.02 178.449 1110.09 181.928C1109.9 183.027 1109.72 184.125 1109.53 185.224C1109.44 186.322 1109.3 187.421 1109.11 188.52C1107.34 188.611 1105.66 188.611 1104.07 188.52C1102.49 188.52 1100.9 188.199 1099.32 187.558C1096.24 186.277 1093.21 186.277 1090.22 187.558C1088.73 188.199 1087.19 188.566 1085.61 188.657C1084.02 188.749 1082.39 188.703 1080.71 188.52C1080.06 186.414 1079.41 184.308 1078.75 182.203C1078.19 180.097 1077.63 177.991 1077.07 175.885C1076.23 173.413 1075.44 170.941 1074.7 168.469C1074.04 165.906 1073.34 163.342 1072.6 160.779C1071.11 155.286 1069.57 149.838 1067.98 144.437C1066.49 139.035 1064.95 133.587 1063.36 128.094C1061.78 122.052 1060.15 116.009 1058.47 109.967C1056.88 103.833 1055.3 97.7442 1053.71 91.7017C1053.06 88.9551 1052.31 86.3 1051.47 83.7365C1050.73 81.0815 1050.4 78.3349 1050.49 75.4967C1050.49 75.222 1050.49 74.9474 1050.49 74.6727C1050.59 74.3065 1050.63 74.0318 1050.63 73.8487C1052.78 73.1163 1054.69 72.3839 1056.37 71.6514C1057.4 71.1937 1058.47 70.9648 1059.59 70.9648C1060.8 70.9648 1061.97 70.8732 1063.08 70.6901C1064.95 70.2323 1066.77 69.683 1068.54 69.0421C1070.41 68.4013 1072.22 67.8519 1074 67.3942C1074.65 67.2111 1075.26 67.028 1075.82 66.8449C1076.47 66.6618 1077.21 66.4329 1078.05 66.1582C1079.17 70.8274 1080.43 75.3593 1081.83 79.7539C1083.32 84.0569 1084.72 88.4973 1086.03 93.075C1087.24 97.4696 1088.41 101.956 1089.53 106.533C1090.74 111.019 1092 115.689 1093.3 120.541C1094.05 117.428 1094.75 114.544 1095.4 111.889C1096.15 109.234 1096.85 106.625 1097.5 104.061C1098.15 101.406 1098.8 98.8429 1099.46 96.3709C1100.2 93.8074 1100.9 91.2439 1101.56 88.6804C1102.3 85.5676 1103.05 82.4547 1103.79 79.3419C1104.63 76.1375 1105.38 72.979 1106.03 69.8661C1106.31 68.6759 1107.06 68.0808 1108.27 68.0808C1108.74 68.0808 1109.2 68.0808 1109.67 68.0808C1110.14 68.0808 1110.56 68.1724 1110.93 68.3555C1115.13 69.271 1119.28 70.2323 1123.38 71.2394C1127.58 72.155 1131.73 73.1163 1135.83 74.1234Z" fill="black"/>
<path d="M1185.63 189.206C1184.79 189.206 1184.23 189.023 1183.96 188.657C1183.68 188.291 1183.44 187.696 1183.26 186.872C1183.26 183.21 1183.16 179.502 1182.98 175.748C1182.88 171.994 1182.74 168.332 1182.56 164.762V148.282H1174.3C1174.21 149.472 1174.16 150.616 1174.16 151.715C1174.16 152.814 1174.16 153.912 1174.16 155.011C1174.07 157.208 1173.98 159.451 1173.88 161.74C1173.88 163.938 1173.79 166.181 1173.6 168.469C1173.51 171.216 1173.42 174.008 1173.32 176.847C1173.23 179.685 1173.09 182.569 1172.9 185.498C1172.9 186.597 1172.76 187.33 1172.48 187.696C1172.2 188.062 1171.41 188.245 1170.11 188.245C1169.08 188.337 1168.01 188.474 1166.89 188.657C1165.86 188.84 1164.88 188.52 1163.95 187.696C1163.86 187.604 1163.62 187.65 1163.25 187.833C1162.97 188.016 1162.74 188.062 1162.55 187.97C1162.08 187.97 1161.57 187.925 1161.01 187.833C1160.55 187.742 1160.03 187.65 1159.47 187.558C1157.7 188.199 1155.84 188.428 1153.88 188.245C1152.01 188.154 1150.01 188.062 1147.86 187.97V182.889C1148.05 180.051 1148 177.259 1147.72 174.512C1147.54 171.674 1147.91 168.927 1148.84 166.272C1149.03 165.998 1149.12 165.54 1149.12 164.899C1149.12 162.885 1149.07 160.962 1148.98 159.131C1148.89 157.208 1148.84 155.286 1148.84 153.363C1149.12 148.419 1149.26 143.613 1149.26 138.943C1149.54 134.732 1149.73 130.566 1149.82 126.446C1149.91 122.326 1149.96 118.161 1149.96 113.949C1150.15 110.745 1150.24 107.54 1150.24 104.336C1150.24 101.132 1150.24 97.9273 1150.24 94.7229C1150.15 93.5327 1150.01 92.3425 1149.82 91.1524C1149.73 89.9622 1149.77 88.7262 1149.96 87.4444C1150.8 83.8738 1152.11 80.6695 1153.88 77.8313C1155.65 74.9931 1158.07 72.567 1161.15 70.5528C1162.46 69.7288 1163.72 68.9506 1164.93 68.2182C1166.23 67.3942 1167.63 66.7991 1169.13 66.4329C1169.31 66.4329 1169.55 66.3413 1169.83 66.1582C1170.11 65.9751 1170.43 65.8836 1170.8 65.8836C1173.42 65.8836 1176.03 65.8378 1178.64 65.7462C1181.34 65.6547 1184 65.792 1186.61 66.1582C1187.92 66.2498 1189.22 66.7075 1190.53 67.5315C1191.93 68.2639 1193.14 69.0421 1194.17 69.8661C1196.87 71.8803 1199.06 74.2607 1200.74 77.0073C1202.51 79.7539 1204.01 82.6378 1205.22 85.6591C1204.85 87.5817 1205.08 89.4586 1205.92 91.2897C1206.76 93.1208 1207.41 94.9518 1207.88 96.7829V189.344H1192.49C1191.28 189.344 1190.11 189.298 1188.99 189.206C1187.97 189.206 1186.85 189.206 1185.63 189.206ZM1182.56 122.326C1182.37 119.671 1182.42 117.154 1182.7 114.773C1182.98 112.301 1183.02 109.829 1182.84 107.357C1182.65 104.977 1182.65 102.597 1182.84 100.216C1183.02 97.7442 1182.88 95.2723 1182.42 92.8003C1181.3 92.8919 1180.18 92.9834 1179.06 93.075C1178.03 93.075 1177.01 93.1207 1175.98 93.2123C1175.89 98.0646 1175.75 102.917 1175.56 107.769C1175.37 112.622 1175.19 117.474 1175 122.326H1182.56Z" fill="black"/>
<path d="M1227.18 173.001C1226.81 171.811 1226.67 170.529 1226.76 169.156C1226.95 167.691 1226.95 166.318 1226.76 165.036V71.9261C1227.23 71.8345 1227.6 71.743 1227.88 71.6514C1228.16 71.5599 1228.44 71.5141 1228.72 71.5141C1231.99 71.331 1235.25 71.1936 1238.51 71.1021C1241.78 71.0105 1245 70.919 1248.17 70.8274C1249.19 70.8274 1249.89 71.0105 1250.27 71.3768C1250.73 71.743 1250.97 72.4296 1250.97 73.4367C1251.06 74.5354 1251.06 75.634 1250.97 76.7327C1250.97 77.8313 1250.97 78.9757 1250.97 80.1659C1250.97 91.3355 1250.92 102.505 1250.83 113.675C1250.83 124.753 1250.83 135.876 1250.83 147.046V161.878H1255.72C1257.21 158.215 1257.54 154.37 1256.7 150.342C1256.61 149.884 1256.51 149.426 1256.42 148.969C1256.42 148.419 1256.47 147.916 1256.56 147.458C1256.65 146.542 1256.7 145.627 1256.7 144.711C1256.79 143.704 1257.07 142.789 1257.54 141.965C1258.1 140.958 1258.05 140.134 1257.4 139.493C1256.75 138.76 1256.61 137.936 1256.98 137.021C1257.26 136.197 1257.35 135.327 1257.26 134.411C1257.17 133.496 1257.12 132.58 1257.12 131.665C1257.31 128.277 1257.49 124.936 1257.68 121.64C1257.87 118.252 1258.01 114.865 1258.1 111.477C1258.38 105.435 1258.52 99.3922 1258.52 93.3496C1258.61 89.8706 1258.71 86.3916 1258.8 82.9125C1258.89 79.3419 1258.99 75.8171 1259.08 72.3381C1259.08 71.8803 1259.13 71.4683 1259.22 71.1021C1259.41 70.7359 1259.55 70.3239 1259.64 69.8661C1263.46 69.4084 1267.24 69.3168 1270.97 69.5915C1274.79 69.8661 1278.62 69.5915 1282.44 68.7675C1283.37 69.4084 1283.79 70.095 1283.7 70.8274C1283.7 71.5599 1283.65 72.4296 1283.56 73.4367C1283.37 75.4509 1283.28 77.4193 1283.28 79.3419C1283.28 81.2645 1283.28 83.2329 1283.28 85.2471C1283.19 87.7191 1283.1 90.2826 1283 92.9377C1283 95.5012 1282.91 98.0646 1282.72 100.628C1282.63 101.91 1282.58 103.237 1282.58 104.611C1282.68 105.984 1282.72 107.357 1282.72 108.731C1282.91 111.752 1282.91 114.59 1282.72 117.245C1282.63 120.083 1282.49 122.921 1282.3 125.76C1282.21 128.598 1282.07 131.436 1281.88 134.274C1281.7 138.486 1281.56 142.697 1281.46 146.909C1281.37 151.028 1281.28 155.24 1281.18 159.543C1281.09 160.733 1281.09 161.969 1281.18 163.251C1281.37 164.441 1281.37 165.677 1281.18 166.959C1280.53 171.445 1278.99 175.29 1276.57 178.495C1274.23 181.699 1271.06 184.491 1267.05 186.872C1263.7 188.794 1260.2 189.801 1256.56 189.893C1252.92 190.076 1249.33 189.985 1245.79 189.618C1243.18 189.161 1240.71 188.154 1238.37 186.597C1236.04 185.041 1233.94 183.164 1232.08 180.967C1231.15 179.776 1230.21 178.54 1229.28 177.259C1228.35 175.885 1227.65 174.466 1227.18 173.001Z" fill="black"/>
<path d="M1396.6 183.164C1396.6 183.53 1396.55 183.896 1396.46 184.262C1396.46 184.629 1396.46 185.041 1396.46 185.498H1372.96C1372.86 182.935 1372.72 180.417 1372.54 177.945C1372.44 175.473 1372.54 173.047 1372.82 170.667C1373.09 168.286 1373.23 165.86 1373.23 163.388C1373.23 160.916 1373.28 158.536 1373.37 156.247C1373.47 153.684 1373.56 151.166 1373.65 148.694C1373.75 146.13 1373.84 143.613 1373.93 141.141C1374.03 138.669 1374.07 136.151 1374.07 133.587C1374.07 131.024 1374.07 128.506 1374.07 126.034C1374.17 123.562 1374.26 121.045 1374.35 118.481C1374.45 115.918 1374.54 113.4 1374.63 110.928C1374.73 108.364 1374.82 105.847 1374.91 103.375C1375.01 100.811 1375.1 98.1104 1375.19 95.2723V94.8603H1361.06V73.986C1361.81 73.8945 1362.51 73.8487 1363.16 73.8487C1363.91 73.8487 1364.61 73.8487 1365.26 73.8487C1370.58 73.7572 1375.89 73.7114 1381.21 73.7114C1386.52 73.6198 1391.84 73.574 1397.16 73.574C1400.14 73.574 1403.08 73.6198 1405.97 73.7114C1408.96 73.8029 1411.99 73.8945 1415.06 73.986V93.2123C1412.36 93.4869 1409.61 93.7616 1406.81 94.0363C1404.11 94.3109 1401.45 94.5856 1398.84 94.8603C1398.84 97.6984 1398.84 100.537 1398.84 103.375C1398.93 106.121 1398.93 108.868 1398.84 111.615C1398.74 113.171 1398.74 114.727 1398.84 116.284C1398.93 117.199 1398.93 118.115 1398.84 119.03C1398.74 119.854 1398.6 120.633 1398.42 121.365C1398.32 122.738 1398.09 124.112 1397.72 125.485C1397.44 126.858 1397.39 128.186 1397.58 129.468C1398.14 132.397 1398.28 135.373 1398 138.394C1397.81 141.324 1397.76 144.299 1397.86 147.321C1398.04 149.335 1398 151.395 1397.72 153.5C1397.53 155.606 1397.34 157.666 1397.16 159.68C1397.06 163.709 1396.97 167.645 1396.88 171.491C1396.88 175.336 1396.78 179.227 1396.6 183.164Z" fill="black"/>
<path d="M411.576 68.8519L379.635 69.9963L377.304 191.299H426.731L428.829 151.475L409.012 151.017L411.576 68.8519Z" fill="black"/>
<path d="M473.245 68.8519L441.303 69.9963L438.972 191.299H488.399L490.498 151.475L470.68 151.017L473.245 68.8519Z" fill="black"/>
<path d="M1335.62 68.7675L1303.68 69.9118L1301.35 191.214H1350.77L1352.87 151.39L1333.06 150.933L1335.62 68.7675Z" fill="black"/>
<path fill-rule="evenodd" clip-rule="evenodd" d="M876.585 67.7787L873.962 187.771L903.34 184.166V150.692C906.663 151.035 913.308 153.473 913.308 160.477V184.166C919.254 187.6 931.565 193.127 933.243 187.771C934.922 182.415 933.943 151.207 933.243 136.272L920.128 127.002C927.298 124.428 941.268 118.028 941.637 113.098C944.888 69.6815 923.226 69.4175 898.457 69.1156C891.25 69.0277 883.781 68.9367 876.585 67.7787ZM906.925 87.6058C904.028 87.6058 901.679 89.9115 901.679 92.7557V108.034H910.248V87.6058H906.925Z" fill="black"/>
<path d="M664.602 66.748C666.204 66.853 667.006 67.7447 667.006 69.4232C666.792 75.193 665.51 80.4908 663.159 85.3165C660.809 90.0373 657.603 94.3909 653.543 98.3774C651.833 100.056 649.964 101.629 647.934 103.098C645.903 104.567 643.766 106.245 641.523 108.134C641.416 112.225 641.309 116.526 641.202 121.037C641.095 125.443 640.989 129.954 640.882 134.57C640.775 136.668 640.615 138.714 640.401 140.707C640.294 142.7 640.241 144.746 640.241 146.844C640.241 149.047 640.348 151.25 640.561 153.453C640.775 155.551 640.882 157.702 640.882 159.905C640.775 164.311 640.668 168.717 640.561 173.123C640.561 177.529 640.454 181.988 640.241 186.499C640.241 187.653 639.973 188.44 639.439 188.859C639.012 189.384 638.104 189.594 636.715 189.489C634.898 189.384 633.028 189.384 631.105 189.489C629.289 189.594 627.472 189.594 625.656 189.489C623.626 189.384 621.649 189.436 619.726 189.646C617.91 189.961 616.04 190.171 614.117 190.276C611.659 190.485 610.003 190.223 609.148 189.489C608.294 188.754 607.92 187.286 608.026 185.083C608.133 178.264 608.24 171.392 608.347 164.469C608.561 157.545 608.721 150.726 608.828 144.012C608.935 142.228 608.988 140.445 608.988 138.662C608.988 136.878 608.988 135.042 608.988 133.154C609.202 128.643 609.362 124.184 609.469 119.778C609.576 115.372 609.682 111.019 609.789 106.717C607.973 105.564 606.157 104.41 604.34 103.256C602.631 102.102 600.868 101 599.051 99.951C595.739 98.0627 593.121 95.7023 591.198 92.8698C589.275 89.9324 587.565 86.8377 586.069 83.5856C585.001 81.1727 584.52 78.7599 584.627 76.347C584.734 73.8293 584.68 71.3639 584.467 68.9511C586.711 68.7413 588.847 68.5839 590.878 68.479C592.908 68.2692 594.831 68.1643 596.647 68.1643C604.661 67.9545 612.674 89.4079 620.688 89.4079C628.701 89.303 636.715 67.6397 644.728 67.5348C647.72 67.5348 650.605 67.43 653.383 67.2201C656.268 67.0103 659.152 66.853 662.037 66.748H664.602Z" fill="black"/>
<defs>
<filter id="filter0_i_97_1721" x="-8" y="0" width="278" height="274" filterUnits="userSpaceOnUse" color-interpolation-filters="sRGB">
<feFlood flood-opacity="0" result="BackgroundImageFix"/>
<feBlend mode="normal" in="SourceGraphic" in2="BackgroundImageFix" result="shape"/>
<feColorMatrix in="SourceAlpha" type="matrix" values="0 0 0 0 0 0 0 0 0 0 0 0 0 0 0 0 0 0 127 0" result="hardAlpha"/>
<feMorphology radius="41" operator="erode" in="SourceAlpha" result="effect1_innerShadow_97_1721"/>
<feOffset dx="-8" dy="4"/>
<feGaussianBlur stdDeviation="15"/>
<feComposite in2="hardAlpha" operator="arithmetic" k2="-1" k3="1"/>
<feColorMatrix type="matrix" values="0 0 0 0 0.8 0 0 0 0 0.8 0 0 0 0 0.8 0 0 0 1 0"/>
<feBlend mode="normal" in2="shape" result="effect1_innerShadow_97_1721"/>
</filter>
<linearGradient id="paint0_linear_97_1721" x1="150.424" y1="120.466" x2="130.635" y2="192.037" gradientUnits="userSpaceOnUse">
<stop offset="0.0972232" stop-color="#F1DFB2"/>
<stop offset="1" stop-color="#FF8A00"/>
</linearGradient>
<linearGradient id="paint1_linear_97_1721" x1="107.128" y1="134.832" x2="98.0914" y2="167.515" gradientUnits="userSpaceOnUse">
<stop offset="0.528937" stop-color="#F1DFB2"/>
</linearGradient>
<radialGradient id="paint2_radial_97_1721" cx="0" cy="0" r="1" gradientUnits="userSpaceOnUse" gradientTransform="translate(133.798 91.9579) rotate(90) scale(51.911 65.7731)">
<stop offset="0.185469" stop-color="#F3F3F3"/>
<stop offset="0.703978" stop-color="#F5F5F5"/>
<stop offset="1" stop-color="white"/>
</radialGradient>
</defs>
</svg>
