<svg width="50" height="50" viewBox="0 0 50 50" fill="none" xmlns="http://www.w3.org/2000/svg">
<path d="M25 45C36.0457 45 45 36.0457 45 25C45 13.9543 36.0457 5 25 5C13.9543 5 5 13.9543 5 25C5 36.0457 13.9543 45 25 45Z" fill="#1896A4"/>
<path d="M28.0297 31.5644C27.2571 31.8833 26.4208 32.0661 25.5394 32.0661C21.8339 32.0661 18.8297 28.9511 18.8297 25.1089C18.8297 24.825 18.8522 24.545 18.8822 24.2689L12.1238 23.1294C12.0426 23.7494 12.0012 24.3743 12 25C12 32.7311 18.0458 39 25.5019 39C28.116 39 30.5538 38.2261 32.6204 36.8922L28.0297 31.5644ZM31.8515 22.7367L22.8728 24.79L38.6437 28.1889C38.8725 27.1661 39 26.0967 39 25C39 17.2689 32.9542 11 25.4981 11C22.5052 11 19.7448 12.0111 17.5058 13.7183L22.1714 19.0928C23.1931 18.4729 24.3557 18.1467 25.5394 18.1478C28.4423 18.1478 30.9176 20.0611 31.8515 22.7367Z" fill="white"/>
</svg>
