<svg width="50" height="50" viewBox="0 0 50 50" fill="none" xmlns="http://www.w3.org/2000/svg">
<path d="M31.1206 5.85312V13.2633C31.1206 15.6675 29.1379 17.6135 26.6882 17.6135H26.6235C25.3951 17.6064 24.2888 17.6135 24.2888 17.6135C24.0804 17.6135 23.8505 17.5923 23.6494 17.6135C22.2701 17.7545 21.0704 18.3679 20.0646 19.4607C20.0359 19.4889 20.0071 19.5242 19.9856 19.5524C19.1738 20.5818 18.7284 21.9144 18.7284 23.3527V23.4232C18.7284 24.3468 18.9224 25.2281 19.2744 26.0178C19.6264 26.8075 19.4468 27.7241 18.7715 28.274C18.1106 28.8169 17.3276 29.4515 16.8031 29.8674C15.273 28.1612 14.375 25.9332 14.375 23.5007V23.4302C14.375 18.1352 18.6925 13.7216 24.5546 13.7216C24.9209 13.7216 26.1135 13.7216 26.6738 13.7216V5.05641C26.1997 5.02115 25.7183 5 25.237 5C14.0589 5 5 13.8908 5 24.8615C5 33.8228 11.0488 41.3952 19.3534 43.8629V36.5091C19.3534 34.0837 21.3577 32.1166 23.829 32.1166H23.8505C25.079 32.1236 26.1853 32.1166 26.1853 32.1166C26.3936 32.1166 26.6235 32.1377 26.8247 32.1166C28.204 31.9756 29.4037 31.3622 30.4094 30.2693C30.4382 30.2411 30.4669 30.2059 30.4885 30.1777C31.3002 29.1483 31.7456 27.8157 31.7456 26.3774V26.3069C31.7456 25.5877 31.4367 24.6218 31.1278 23.8462C30.783 22.979 31.0488 21.9849 31.7744 21.3926C32.3994 20.8779 33.0387 20.3703 33.6709 19.8697C35.2011 21.5759 36.0991 23.8039 36.0991 26.2364V26.3069C36.0991 31.6019 31.7816 36.0156 25.9195 36.0156C25.5531 36.0156 24.3606 36.0156 23.8002 36.0156V44.6667C24.2744 44.7019 24.7557 44.7231 25.237 44.7231C36.4152 44.7231 45.4741 35.8322 45.4741 24.8615C45.4741 15.9002 39.4252 8.32789 31.1206 5.85312Z" fill="#1D8AED"/>
</svg>
