<svg width="50" height="50" viewBox="0 0 50 50" fill="none" xmlns="http://www.w3.org/2000/svg">
<path d="M35.3803 13C34.0234 13 32.7796 13.7219 32.1106 14.8844L23.6191 29.5H17.2891V37H25.8063C27.1535 37 28.3982 36.2845 29.0713 35.1235L37.5475 20.5H43.8605V13H35.3803Z" fill="#1A5AFF"/>
<path d="M12.6523 37L6.14453 33.2593L16.7536 14.8844C17.4184 13.7219 18.6545 13 20.0029 13H28.4302V20.5H22.1566L12.6523 37Z" fill="#1A5AFF"/>
<path d="M7 13V20.7143C11.2621 20.7143 14.7143 17.2621 14.7143 13H7Z" fill="#1A5AFF"/>
<path d="M40.0017 32.7143C42.1319 32.7143 43.8588 30.9874 43.8588 28.8571C43.8588 26.7269 42.1319 25 40.0017 25C37.8714 25 36.1445 26.7269 36.1445 28.8571C36.1445 30.9874 37.8714 32.7143 40.0017 32.7143Z" fill="#1A5AFF"/>
</svg>
