<svg xmlns="http://www.w3.org/2000/svg" width="32" height="32" viewBox="1 1 30 30" fill="none"><path d="M1.492 10.419a8.93 8.93 0 0 1 8.93-8.93h11.163a8.93 8.93 0 0 1 8.93 8.93v11.163a8.93 8.93 0 0 1-8.93 8.93H10.422a8.93 8.93 0 0 1-8.93-8.93V10.419z" fill="#1652F0"/>
<!-- <path fill-rule="evenodd" clip-rule="evenodd" d="M10.419 0H21.58C27.335 0 32 4.665 32 10.419V21.58C32 27.335 27.335 32 21.581 32H10.42C4.665 32 0 27.335 0 21.581V10.42C0 4.665 4.665 0 10.419 0zm0 1.488a8.93 8.93 0 0 0-8.93 8.93v11.163a8.93 8.93 0 0 0 8.93 8.93H21.58a8.93 8.93 0 0 0 8.93-8.93V10.42a8.93 8.93 0 0 0-8.93-8.93H10.42z" fill="#fff"/> -->
<path fill-rule="evenodd" clip-rule="evenodd" d="M15.998 26.049c-5.549 0-10.047-4.498-10.047-10.047 0-5.548 4.498-10.046 10.047-10.046 5.548 0 10.046 4.498 10.046 10.046 0 5.549-4.498 10.047-10.046 10.047z" fill="#fff"/><path d="M12.762 14.254a1.49 1.49 0 0 1 1.489-1.489h3.497c.822 0 1.488.666 1.488 1.489v3.497c0 .822-.666 1.488-1.488 1.488h-3.497a1.488 1.488 0 0 1-1.489-1.488v-3.498z" fill="#1652F0"/></svg>