<svg width="50" height="50" viewBox="5 5 40 40" fill="none" xmlns="http://www.w3.org/2000/svg">
<rect width="50" height="50" fill="#45CD85"/>
<path d="M29.7508 28V25.3593C28.3865 25.2727 27.3023 24.912 26.4983 24.2771C25.6944 23.6421 25.1949 22.596 25 21.1385L27.7043 20.8571C27.8749 22.9351 28.8128 23.974 30.5183 23.974C32.3212 23.974 33.2226 23.2814 33.2226 21.8961C33.2226 20.886 32.577 20.0779 31.2857 19.4719L28.5449 18.2597C27.546 17.8413 26.7785 17.3362 26.2425 16.7446C25.7065 16.153 25.4385 15.381 25.4385 14.4286C25.4385 12.1053 26.876 10.8499 29.7508 10.6623V8H31.6877V10.684C32.8815 10.7706 33.8317 11.088 34.5382 11.6364C35.2691 12.1847 35.7442 13.0577 35.9635 14.2554L33.186 14.645C33.113 12.9423 32.2602 12.0909 30.6279 12.0909C29.0443 12.0909 28.2525 12.798 28.2525 14.2121C28.2525 14.847 28.3621 15.3521 28.5814 15.7273C28.825 16.1025 29.2879 16.4488 29.9701 16.7662L32.7475 18.0216C33.4053 18.2958 33.9291 18.5556 34.3189 18.8009C34.7087 19.0317 35.0864 19.4141 35.4518 19.9481C35.8173 20.482 36 21.1097 36 21.8312C36 23.938 34.5626 25.1068 31.6877 25.3377V28H29.7508Z" fill="white"/>
<path fill-rule="evenodd" clip-rule="evenodd" d="M18.4303 17.2698C18.4945 15.284 18.9254 13.3908 19.6576 11.6558C13.9831 14.0495 10 19.6649 10 26.2103C10 34.9303 17.0695 41.9997 25.7895 41.9997C32.3342 41.9997 37.9491 38.0174 40.3433 32.3439C38.6082 33.0758 36.715 33.5065 34.7291 33.5705C32.6056 36.1469 29.3896 37.7892 25.7895 37.7892C19.3937 37.7892 14.2105 32.6061 14.2105 26.2103C14.2105 22.6096 15.8533 19.3933 18.4303 17.2698Z" fill="white"/>
</svg>
