<svg width="50" height="50" viewBox="5 5 40 40" fill="none" xmlns="http://www.w3.org/2000/svg"><circle cx="25" cy="25" r="20" fill="#962EE5"/><path d="M28.835 33.252c.755 0 1.427-.12 2.017-.357l.279 2.17c-1.014.435-1.976.653-2.885.653a3.737 3.737 0 0 1-2.063-.61c-.63-.405-1.205-.955-1.722-1.648-.517-.694-.987-1.5-1.411-2.422a27.17 27.17 0 0 1-1.133-2.94c-.186.405-.377.886-.573 1.44a71.71 71.71 0 0 1-.636 1.694 51.406 51.406 0 0 1-.714 1.737 10.332 10.332 0 0 1-.822 1.53c-.3.446-.62.808-.961 1.085-.341.277-.714.416-1.117.416-.331 0-.6-.05-.807-.149a1.294 1.294 0 0 1-.48-.37 1.48 1.48 0 0 1-.249-.491 2.235 2.235 0 0 1-.062-.505 2.932 2.932 0 0 1 .357-1.367l4.575-8.022c.394-.673.786-1.322 1.18-1.945.403-.634.79-1.194 1.163-1.68.382-.484.739-.87 1.07-1.158.341-.297.646-.445.915-.445.072 0 .16.014.264.044.103.02.196.064.279.134.083.06.155.154.217.282a.99.99 0 0 1 .093.46c0 .189-.057.451-.17.788-.114.337-.264.723-.45 1.159-.187.435-.404.916-.652 1.44-.248.515-.506 1.045-.775 1.59.062.01.124.015.186.015h.217c.9 0 1.747-.184 2.544-.55a7.776 7.776 0 0 0 2.11-1.426 6.705 6.705 0 0 0 1.41-1.916c.352-.703.528-1.387.528-2.05a3.34 3.34 0 0 0-.28-1.352 2.794 2.794 0 0 0-.852-1.114c-.383-.317-.88-.57-1.49-.758-.6-.188-1.318-.282-2.155-.282-.941 0-1.753.084-2.435.253a7.56 7.56 0 0 0-1.753.653c-.486.268-.9.575-1.24.921-.332.347-.621.703-.87 1.07-.237.366-.454.723-.65 1.07a6.715 6.715 0 0 1-.621.92c-.207.268-.44.485-.698.654-.259.168-.58.253-.962.253-.517 0-.905-.124-1.163-.372-.259-.257-.388-.614-.388-1.07 0-.425.12-.886.357-1.381.248-.495.594-.99 1.039-1.485a10.11 10.11 0 0 1 1.66-1.426c.65-.466 1.38-.872 2.186-1.219a14.116 14.116 0 0 1 2.668-.846c.962-.218 1.98-.327 3.056-.327 1.055 0 2.063.129 3.024.386l2.575 1.159a5.618 5.618 0 0 1 1.768 1.916c.445.773.667 1.674.667 2.704a5.04 5.04 0 0 1-.403 1.99 7.266 7.266 0 0 1-1.055 1.768l-1.567 1.515c-.588.456-1.22.862-1.892 1.218-.671.357-1.365.659-2.078.906-.703.248-1.386.426-2.048.535.094.465.244.99.45 1.575a11.6 11.6 0 0 0 .776 1.648c.31.516.651.956 1.023 1.323.373.366.766.564 1.18.594.082.01.16.015.232.015h.217Z" fill="#fff"/></svg>