<svg width="50" height="50" viewBox="0 0 50 50" fill="none" xmlns="http://www.w3.org/2000/svg">
<circle cx="25" cy="25" r="20" fill="#962EE5"/>
<path d="M28.8353 33.2518C29.5902 33.2518 30.2621 33.1329 30.8517 32.8952L31.1308 35.0641C30.1174 35.4998 29.1555 35.7178 28.2457 35.7178C27.5014 35.7178 26.8136 35.5147 26.1828 35.1086C25.5523 34.7025 24.9783 34.153 24.4613 33.4596C23.9441 32.7665 23.4739 31.9593 23.0498 31.0383C22.6261 30.1075 22.2485 29.1271 21.9173 28.0972C21.7315 28.5033 21.5401 28.9835 21.3439 29.5381C21.1475 30.0827 20.9352 30.6472 20.7076 31.2316C20.4802 31.8157 20.2423 32.395 19.9941 32.9695C19.7463 33.5339 19.4722 34.044 19.1722 34.4997C18.8726 34.9453 18.5517 35.3066 18.2106 35.584C17.8695 35.8611 17.4972 36 17.0941 36C16.7629 36 16.4941 35.9504 16.2874 35.8513C16.0807 35.7524 15.9201 35.6285 15.8066 35.4801C15.6928 35.3314 15.6102 35.168 15.5584 34.9898C15.517 34.8115 15.4964 34.6433 15.4964 34.4848C15.4964 34.2569 15.5273 34.0243 15.5893 33.7866C15.6514 33.5489 15.7393 33.3261 15.8531 33.118L20.4285 25.0963C20.8217 24.4232 21.2142 23.7743 21.6074 23.1505C22.0106 22.5168 22.3981 21.9572 22.7707 21.4719C23.1533 20.9866 23.51 20.6005 23.8408 20.3132C24.182 20.0161 24.4872 19.8677 24.756 19.8677C24.8283 19.8677 24.9163 19.8823 25.0198 19.9122C25.1233 19.9319 25.2159 19.9764 25.2988 20.0457C25.3818 20.1054 25.4538 20.1995 25.5159 20.3282C25.5782 20.447 25.6091 20.6005 25.6091 20.7886C25.6091 20.9768 25.5523 21.239 25.4382 21.5758C25.3247 21.9127 25.1747 22.2988 24.9886 22.7345C24.8025 23.1702 24.5854 23.6507 24.3372 24.1753C24.089 24.6905 23.8306 25.2202 23.5618 25.7649C23.6238 25.7748 23.6856 25.7799 23.7476 25.7799H23.9649C24.8648 25.7799 25.7123 25.5965 26.5086 25.2301C27.3153 24.8538 28.0184 24.3784 28.6183 23.8042C29.2176 23.2296 29.6881 22.5908 30.0295 21.8879C30.3812 21.1846 30.5568 20.5014 30.5568 19.8378C30.5568 19.3624 30.4638 18.9118 30.2777 18.4859C30.1018 18.0601 29.8175 17.6889 29.4246 17.3721C29.042 17.0549 28.5456 16.8026 27.9354 16.6145C27.3358 16.426 26.6174 16.332 25.7796 16.332C24.8389 16.332 24.027 16.4162 23.3448 16.5846C22.6722 16.753 22.0882 16.9707 21.5918 17.2383C21.106 17.5059 20.6923 17.8125 20.3512 18.1592C20.02 18.5059 19.7307 18.8622 19.4825 19.2289C19.2446 19.5953 19.0276 19.9516 18.8311 20.2983C18.6347 20.645 18.4276 20.952 18.2106 21.2196C18.0039 21.4868 17.7713 21.7045 17.5125 21.8729C17.254 22.0414 16.9335 22.1256 16.5509 22.1256C16.0339 22.1256 15.6461 22.0017 15.3876 21.7541C15.1294 21.4967 15 21.1401 15 20.6847C15 20.2589 15.1191 19.7981 15.3567 19.303C15.6049 18.8079 15.9513 18.3127 16.3956 17.8176C16.8509 17.3225 17.404 16.8471 18.0557 16.3917C18.7067 15.9261 19.4357 15.52 20.2423 15.1733C21.0593 14.817 21.9485 14.5345 22.9104 14.3267C23.872 14.109 24.8904 14 25.9658 14C27.0206 14 28.0287 14.1287 28.9903 14.3861L31.5651 15.5448C32.3094 16.0501 32.899 16.6885 33.3334 17.4611C33.7777 18.2336 34 19.1349 34 20.1645C34 20.8579 33.8659 21.5215 33.5968 22.1551C33.3384 22.7793 32.9866 23.3685 32.5423 23.923L30.9755 25.4379C30.3865 25.8936 29.7554 26.2998 29.0835 26.6563C28.4116 27.0126 27.7184 27.3148 27.005 27.5624C26.3019 27.8099 25.6194 27.9882 24.9574 28.0972C25.0506 28.5624 25.2006 29.0874 25.4073 29.6718C25.6247 30.2461 25.8832 30.7959 26.1828 31.3205C26.493 31.8357 26.8345 32.2761 27.2065 32.6426C27.5791 33.0093 27.9716 33.2073 28.3857 33.2368C28.468 33.2467 28.5456 33.2518 28.6183 33.2518H28.8353Z" fill="white"/>
</svg>
