<svg width="50" height="50" viewBox="5 5 40 40" fill="none" xmlns="http://www.w3.org/2000/svg">
<path d="M25 45C36.0834 45 45 36.0834 45 25C45 13.9166 36.0834 5 25 5C13.9166 5 5 13.9166 5 25C5 36.0834 13.9166 45 25 45Z" fill="#2775CA"/>
<path d="M30.5025 28.1665C30.5025 25.2499 28.7525 24.2499 25.2525 23.8333C22.7525 23.4999 22.2525 22.8333 22.2525 21.6665C22.2525 20.4997 23.0859 19.7499 24.7525 19.7499C26.2525 19.7499 27.0859 20.2499 27.5025 21.4999C27.5859 21.7499 27.8359 21.9165 28.0859 21.9165H29.4191C29.7525 21.9165 30.0025 21.6665 30.0025 21.3333V21.2499C29.6691 19.4165 28.1691 17.9999 26.2525 17.8333V15.8333C26.2525 15.4999 26.0025 15.2499 25.5859 15.1665H24.3359C24.0025 15.1665 23.7525 15.4165 23.6691 15.8333V17.7499C21.1691 18.0833 19.5859 19.7499 19.5859 21.8333C19.5859 24.5833 21.2525 25.6665 24.7525 26.0833C27.0859 26.4999 27.8359 26.9999 27.8359 28.3333C27.8359 29.6667 26.6691 30.5833 25.0859 30.5833C22.9191 30.5833 22.1691 29.6665 21.9191 28.4165C21.8359 28.0833 21.5859 27.9165 21.3359 27.9165H19.9191C19.5859 27.9165 19.3359 28.1665 19.3359 28.4999V28.5833C19.6691 30.6665 21.0025 32.1665 23.7525 32.5833V34.5833C23.7525 34.9165 24.0025 35.1665 24.4191 35.2499H25.6691C26.0025 35.2499 26.2525 34.9999 26.3359 34.5833V32.5833C28.8359 32.1665 30.5025 30.4165 30.5025 28.1665V28.1665Z" fill="white"/>
<path d="M20.7516 36.9164C14.2516 34.5832 10.9182 27.3333 13.335 20.9165C14.585 17.4165 17.335 14.7499 20.7516 13.4999C21.085 13.3333 21.2516 13.0833 21.2516 12.6665V11.4999C21.2516 11.1665 21.085 10.9165 20.7516 10.8333C20.6682 10.8333 20.5016 10.8333 20.4182 10.9165C12.5016 13.4165 8.16822 21.8333 10.6682 29.7499C12.1682 34.4165 15.7516 37.9999 20.4182 39.4999C20.7516 39.6665 21.085 39.4998 21.1682 39.1664C21.2516 39.0832 21.2516 38.9999 21.2516 38.8333V37.6664C21.2516 37.4164 21.0016 37.0832 20.7516 36.9164ZM29.585 10.9165C29.2516 10.7499 28.9182 10.9165 28.835 11.2499C28.7516 11.3333 28.7516 11.4165 28.7516 11.5833V12.7499C28.7516 13.0833 29.0016 13.4165 29.2516 13.5833C35.7516 15.9165 39.085 23.1665 36.6682 29.5833C35.4182 33.0833 32.6682 35.7499 29.2516 36.9999C28.9182 37.1665 28.7516 37.4165 28.7516 37.8333V38.9999C28.7516 39.3333 28.9182 39.5832 29.2516 39.6664C29.335 39.6664 29.5016 39.6665 29.585 39.5833C37.5016 37.0833 41.835 28.6665 39.335 20.7499C37.835 15.9999 34.1682 12.4165 29.585 10.9165V10.9165Z" fill="white"/>
</svg>
