<svg width="50" height="50" viewBox="5 5 40 40" fill="none" xmlns="http://www.w3.org/2000/svg">
<path d="M37.8452 29.9009L25.7325 9.33658C25.6739 9.23504 25.5889 9.15045 25.4863 9.09136C25.3836 9.03227 25.2669 9.00076 25.1479 9.00001C25.0288 8.99927 24.9117 9.02931 24.8083 9.08711C24.7049 9.14491 24.6189 9.22843 24.559 9.32923L20.9313 15.4912C20.8125 15.6929 20.75 15.9217 20.75 16.1546C20.75 16.3875 20.8125 16.6163 20.9313 16.818L28.8296 30.2335C28.9484 30.4354 29.1196 30.603 29.3256 30.7195C29.5316 30.836 29.7653 30.8972 30.0031 30.8969H37.2584C37.3771 30.8966 37.4937 30.8657 37.5964 30.8073C37.6993 30.749 37.7846 30.6652 37.8441 30.5644C37.9035 30.4636 37.9348 30.3492 37.935 30.2328C37.935 30.1164 37.9042 30.0019 37.8452 29.9009Z" fill="#0C0C0E"/>
<path d="M6.0934 40.6485L18.206 20.0842C18.2654 19.9835 18.3509 19.8998 18.4537 19.8417C18.5565 19.7835 18.6731 19.7529 18.7919 19.7529C18.9106 19.7529 19.0272 19.7835 19.13 19.8417C19.2329 19.8998 19.3183 19.9835 19.3777 20.0842L23.0072 26.2406C23.126 26.4427 23.1885 26.6718 23.1885 26.905C23.1885 27.1382 23.126 27.3673 23.0072 27.5693L15.1089 40.9849C14.9905 41.1867 14.8198 41.3544 14.614 41.4708C14.4083 41.5872 14.1748 41.6485 13.9373 41.6482H6.68019C6.56064 41.6489 6.44308 41.6183 6.33944 41.56C6.2358 41.5014 6.14979 41.4172 6.09017 41.3157C6.03055 41.2141 5.99944 41.0989 6.00001 40.9818C6.00058 40.8645 6.0328 40.7496 6.0934 40.6485Z" fill="#0C0C0E"/>
<path d="M19.3753 41.6436H43.6005C43.7194 41.6436 43.836 41.6128 43.9389 41.5544C44.0418 41.4961 44.1272 41.4121 44.1864 41.3113C44.2456 41.2104 44.2769 41.0958 44.2767 40.9794C44.2765 40.8627 44.2452 40.7484 44.1855 40.6477L40.5615 34.4875C40.4426 34.2856 40.2715 34.1181 40.0655 34.0016C39.8595 33.885 39.6258 33.824 39.388 33.8242H23.5916C23.3538 33.824 23.1201 33.885 22.9141 34.0016C22.708 34.1181 22.5369 34.2856 22.418 34.4875L18.7905 40.6477C18.7309 40.7484 18.6994 40.8627 18.6992 40.9794C18.6991 41.0958 18.7302 41.2104 18.7894 41.3113C18.8487 41.4121 18.9341 41.4961 19.037 41.5544C19.1398 41.6128 19.2565 41.6436 19.3753 41.6436Z" fill="#0C0C0E"/>
</svg>
