<svg width="50" height="50" viewBox="5 5 40 40" fill="none" xmlns="http://www.w3.org/2000/svg">
<path d="M20.7189 15.0952L24.7171 12.7747L28.8172 15.1544L37.4284 8.14684V20.1524V34.908L24.7171 42.2857L12.0057 34.908V22.3324L12 22.3358V8L20.7189 15.0952ZM14.2281 23.5506V33.618L24.7171 39.7058L35.206 33.618V23.7076L24.7067 29.9149L14.2281 23.5506ZM14.6509 21.197L24.722 27.3138L34.9271 21.2805L24.7171 15.3546L14.6509 21.197ZM31.1078 16.165L35.206 18.5817V12.83C33.8399 13.9416 32.4738 15.0533 31.1078 16.165ZM14.2225 18.4349L18.3207 16.0181L14.2225 12.6831C14.2225 14.6003 14.2225 16.5176 14.2225 18.4349Z" fill="#211B4E"/>
</svg>
