<svg width="50" height="50" viewBox="5 5 40 40" fill="none" xmlns="http://www.w3.org/2000/svg">
<path d="M27.2685 14.9263V5.98779C16.68 5.98779 8.10547 14.5628 8.10547 25.1509C8.10547 35.7394 16.6805 44.3149 27.2685 44.3149V35.3764C21.6169 35.3764 17.044 30.803 17.044 25.1509C17.044 19.4997 21.6169 14.9263 27.2685 14.9263Z" fill="white"/>
<path d="M37.5278 14.9263C36.9409 14.9263 36.3598 14.8107 35.8176 14.5861C35.2753 14.3615 34.7826 14.0323 34.3676 13.6173C33.9526 13.2023 33.6234 12.7096 33.3988 12.1673C33.1742 11.6251 33.0586 11.0439 33.0586 10.457C33.0586 9.87013 33.1742 9.28897 33.3988 8.74674C33.6234 8.2045 33.9526 7.71181 34.3676 7.2968C34.7826 6.8818 35.2753 6.55259 35.8176 6.32799C36.3598 6.10339 36.9409 5.98779 37.5278 5.98779C38.7132 5.98779 39.85 6.45866 40.6881 7.2968C41.5262 8.13495 41.9971 9.27172 41.9971 10.457C41.9971 11.6423 41.5262 12.7791 40.6881 13.6173C39.85 14.4554 38.7132 14.9263 37.5278 14.9263Z" fill="#00D8D5"/>
<path d="M37.4536 44.3142C36.2683 44.3142 35.1315 43.8434 34.2934 43.0052C33.4552 42.1671 32.9844 41.0303 32.9844 39.845C32.9844 38.6597 33.4552 37.5229 34.2934 36.6847C35.1315 35.8466 36.2683 35.3757 37.4536 35.3757C38.639 35.3757 39.7757 35.8466 40.6139 36.6847C41.452 37.5229 41.9229 38.6597 41.9229 39.845C41.9229 41.0303 41.452 42.1671 40.6139 43.0052C39.7757 43.8434 38.639 44.3142 37.4536 44.3142Z" fill="#FF4C8B"/>
<path d="M37.4946 25.1508C37.4946 30.8029 32.9216 35.3764 27.2695 35.3764V14.9258C32.9211 14.9258 37.4946 19.4987 37.4946 25.1504" fill="white"/>
</svg>
