<svg width="50" height="50" viewBox="5 5 40 40" fill="none" xmlns="http://www.w3.org/2000/svg">
<mask id="mask0_87_2533" style="mask-type:alpha" maskUnits="userSpaceOnUse" x="4" y="5" width="41" height="39">
<path d="M20.2819 34.3739C14.6842 37.1089 8.11854 34.3644 5.61713 28.2441C3.11572 22.1237 5.62578 14.945 11.2235 12.21C16.8212 9.47505 23.3868 12.2195 25.8882 18.3398C28.3896 24.4602 25.8796 31.6389 20.2819 34.3739Z" fill="black"/>
<path d="M40.4442 21.89C36.5689 23.7835 32.0234 21.8835 30.2917 17.6462C28.56 13.4091 30.2977 8.43924 34.173 6.54576C38.0484 4.65229 42.5938 6.55233 44.3255 10.7895C46.0573 15.0267 44.3196 19.9966 40.4442 21.89Z" fill="black"/>
<path d="M37.7303 42.7914C34.6086 44.3166 30.947 42.7861 29.5519 39.3728C28.157 35.9595 29.5567 31.956 32.6786 30.4308C35.8004 28.9055 39.4619 30.436 40.8569 33.8493C42.2519 37.2626 40.8521 41.2661 37.7303 42.7914Z" fill="black"/>
</mask>
<g mask="url(#mask0_87_2533)">
<path d="M6.33926 32.5843C11.8654 43.8986 26.37 48.9721 38.7365 43.9161C51.1029 38.8601 56.648 25.5894 51.1219 14.2751C45.5959 2.96078 31.0911 -2.11263 18.7247 2.94332C6.35834 7.99921 0.813164 21.27 6.33926 32.5843Z" fill="white"/>
<path d="M14.8559 30.1329C17.8023 37.3123 25.5359 40.5316 32.1294 37.3234C38.7229 34.1151 41.6795 25.6943 38.7331 18.5149C35.7868 11.3355 28.0531 8.11619 21.4595 11.3245C14.866 14.5326 11.9094 22.9534 14.8559 30.1329Z" fill="#6ACDE2"/>
</g>
</svg>
