<svg width="155" height="137" viewBox="0 -6 155 137" fill="none" xmlns="http://www.w3.org/2000/svg">
<g id="Group 193">
<g id="Group 175">
<g id="Group 159">
<g id="Group 158">
<g id="mouth">
<ellipse id="Ellipse 46" cx="77.1429" cy="77.1428" rx="77.1429" ry="42.8571" fill="#454545"/>
<path id="Subtract" opacity="0.7" d="M11.6328 76.7236C22.056 88.4579 47.2847 96.7346 76.7518 96.7346C106.38 96.7346 131.724 88.3669 142.041 76.5305C124.125 80.9895 101.301 83.6609 76.4452 83.6609C51.9509 83.6609 29.4291 81.0666 11.6328 76.7236Z" fill="#454545"/>
</g>
<g id="Group 157">
<path id="Ellipse 49" d="M140.203 42.8571C140.203 66.5265 127.457 69.1837 111.734 69.1837C96.0108 69.1837 83.2646 66.5265 83.2646 42.8571C83.2646 19.1878 96.0108 0 111.734 0C127.457 0 140.203 19.1878 140.203 42.8571Z" fill="#454545"/>
<path id="Ellipse 50" d="M71.6321 42.8571C71.6321 66.5265 58.886 70.102 43.1627 70.102C27.4395 70.102 14.6934 66.5265 14.6934 42.8571C14.6934 19.1878 27.4395 0 43.1627 0C58.886 0 71.6321 19.1878 71.6321 42.8571Z" fill="#454545"/>
<ellipse id="Ellipse 51" cx="77.142" cy="26.3266" rx="25.7143" ry="17.1429" fill="#454545"/>
</g>
<g id="eyes">
<g id="eyes_2">
<g id="Group 155">
<ellipse id="Ellipse 41" opacity="0.8" cx="116.631" cy="34.5918" rx="13.1633" ry="21.7347" fill="#454545"/>
<ellipse id="Ellipse 42" opacity="0.8" cx="116.631" cy="34.5918" rx="10.7143" ry="17.449" fill="#454545"/>
<ellipse id="Ellipse 43" opacity="0.8" cx="116.631" cy="22.959" rx="2.14286" ry="3.36735" fill="#454545"/>
</g>
<g id="Group 156">
<ellipse id="Ellipse 41_2" opacity="0.8" cx="37.6515" cy="34.5918" rx="13.1633" ry="21.7347" fill="#454545"/>
<ellipse id="Ellipse 42_2" opacity="0.8" cx="37.6518" cy="34.5918" rx="10.7143" ry="17.449" fill="#454545"/>
<ellipse id="Ellipse 43_2" opacity="0.8" cx="37.6516" cy="22.959" rx="2.14286" ry="3.36735" fill="#454545"/>
</g>
</g>
</g>
</g>
<g id="nose">
<ellipse id="Ellipse 53" cx="93.9807" cy="56.3267" rx="3.67347" ry="4.28571" transform="rotate(-26.6444 93.9807 56.3267)" fill="#454545"/>
<ellipse id="Ellipse 54" cx="62.1442" cy="56.3265" rx="3.67347" ry="4.28571" transform="rotate(15 62.1442 56.3265)" fill="#454545"/>
</g>
</g>
<path id="Intersect" fill-rule="evenodd" clip-rule="evenodd" d="M55.1223 83.4274C50.9083 85.9985 47.3495 89.2792 44.6953 93.0602C54.1931 95.1171 64.9331 96.276 76.3055 96.276C88.4577 96.276 99.8879 94.9526 109.852 92.6244C107.176 88.9478 103.636 85.7619 99.4685 83.2653C91.9259 83.7663 84.0699 84.0311 75.9994 84.0311C68.849 84.0311 61.8671 83.8232 55.1223 83.4274Z" fill="#454545"/>
</g>
</g>
</svg>
