<svg width="299" height="303" viewBox="0 0 299 303" fill="none" xmlns="http://www.w3.org/2000/svg">
<path d="M19 218.5L11 108.5L133 190L285.5 124L281 232.5L135.5 301L19 218.5Z" fill="#C4C4C4" stroke="black"/>
<path d="M5.92445 62.7683L160.5 4L293 74.5L133 141L5.76483 64.5603C5.04935 64.1304 5.14426 63.065 5.92445 62.7683Z" fill="url(#paint0_radial_78_2358)" stroke="black"/>
<path d="M136 301L131.5 141L7.5 63.5L19 218.5L136 301Z" fill="url(#paint1_linear_78_2358)" stroke="#61603D"/>
<path d="M135.5 301.5L133.5 140.5L286.5 77L281.5 232.5L135.5 301.5Z" fill="url(#paint2_linear_78_2358)"/>
<path d="M135.5 301.5L133.5 140.5L286.5 77L281.5 232.5L135.5 301.5Z" fill="url(#paint3_linear_78_2358)"/>
<path d="M135.5 301.5L133.5 140.5L286.5 77L281.5 232.5L135.5 301.5Z" stroke="#61603D"/>
<g filter="url(#filter0_d_78_2358)">
<path d="M5 104.464V63.7923C5 63.0094 5.85898 62.5301 6.52521 62.9413L133 141L292.616 74.576C293.274 74.3019 294 74.7859 294 75.4993V119.842C294 120.242 293.763 120.602 293.396 120.761L133 190L5.4468 105.297C5.16774 105.111 5 104.799 5 104.464Z" fill="url(#paint4_linear_78_2358)"/>
<path d="M5 104.464V63.7923C5 63.0094 5.85898 62.5301 6.52521 62.9413L133 141L292.616 74.576C293.274 74.3019 294 74.7859 294 75.4993V119.842C294 120.242 293.763 120.602 293.396 120.761L133 190L5.4468 105.297C5.16774 105.111 5 104.799 5 104.464Z" stroke="black"/>
</g>
<path d="M133 187.979V141.668C133 141.264 133.244 140.899 133.617 140.744L292.134 75.0662C292.788 74.7952 293.508 75.271 293.516 75.979L293.993 119.335C293.997 119.738 293.759 120.104 293.389 120.264L134.396 188.897C133.736 189.182 133 188.698 133 187.979Z" fill="url(#paint5_linear_78_2358)"/>
<path d="M133 187.979V141.668C133 141.264 133.244 140.899 133.617 140.744L292.134 75.0662C292.788 74.7952 293.508 75.271 293.516 75.979L293.993 119.335C293.997 119.738 293.759 120.104 293.389 120.264L134.396 188.897C133.736 189.182 133 188.698 133 187.979Z" fill="url(#paint6_linear_78_2358)"/>
<path d="M133 187.979V141.668C133 141.264 133.244 140.899 133.617 140.744L292.134 75.0662C292.788 74.7952 293.508 75.271 293.516 75.979L293.993 119.335C293.997 119.738 293.759 120.104 293.389 120.264L134.396 188.897C133.736 189.182 133 188.698 133 187.979Z" stroke="#61603D"/>
<g filter="url(#filter1_d_78_2358)">
<path d="M88.5 110.5L141 82.5L164.5 70.5L247 46L202 22L43.5 86L55 245L91 270L88.5 110.5Z" fill="#E05A5F"/>
<path d="M88.5 110.5L141 82.5L164.5 70.5L247 46L202 22L43.5 86L55 245L91 270L88.5 110.5Z" stroke="black"/>
</g>
<g filter="url(#filter2_d_78_2358)">
<path d="M202 113.5L146 77.5L122.5 65.5L70 39L112.5 22.5L245.5 95L234.5 253.5L194.5 273L202 113.5Z" fill="#E05A5F"/>
<path d="M202 113.5L146 77.5L122.5 65.5L70 39L112.5 22.5L245.5 95L234.5 253.5L194.5 273L202 113.5Z" stroke="black"/>
</g>
<g filter="url(#filter3_d_78_2358)">
<g filter="url(#filter4_d_78_2358)">
<path d="M92.5995 0.0224291C98.5995 -0.777571 126.766 20.0224 140.099 30.5224V52.5224L128.6 59.5224C108.2 75.1224 82.7662 76.0224 72.5995 74.5224C54.5995 40.5224 85.0995 1.02243 92.5995 0.0224291Z" fill="#DF373D"/>
</g>
<g filter="url(#filter5_d_78_2358)">
<path d="M206.5 9.0001C200.776 7.03236 169.933 27.16 156.6 37.66V59.66L168.1 66.66C188.5 82.26 213.933 83.16 224.1 81.66C243.5 42.0001 222.5 14.5001 206.5 9.0001Z" fill="#DF373D"/>
</g>
<g filter="url(#filter6_di_78_2358)">
<circle cx="148.6" cy="51" r="24" fill="#ED4143"/>
</g>
</g>
<defs>
<filter id="filter0_d_78_2358" x="0.5" y="62.29" width="298" height="136.276" filterUnits="userSpaceOnUse" color-interpolation-filters="sRGB">
<feFlood flood-opacity="0" result="BackgroundImageFix"/>
<feColorMatrix in="SourceAlpha" type="matrix" values="0 0 0 0 0 0 0 0 0 0 0 0 0 0 0 0 0 0 127 0" result="hardAlpha"/>
<feOffset dy="4"/>
<feGaussianBlur stdDeviation="2"/>
<feComposite in2="hardAlpha" operator="out"/>
<feColorMatrix type="matrix" values="0 0 0 0 0 0 0 0 0 0 0 0 0 0 0 0 0 0 0.25 0"/>
<feBlend mode="normal" in2="BackgroundImageFix" result="effect1_dropShadow_78_2358"/>
<feBlend mode="normal" in="SourceGraphic" in2="effect1_dropShadow_78_2358" result="shape"/>
</filter>
<filter id="filter1_d_78_2358" x="38.9751" y="21.449" width="213.335" height="257.518" filterUnits="userSpaceOnUse" color-interpolation-filters="sRGB">
<feFlood flood-opacity="0" result="BackgroundImageFix"/>
<feColorMatrix in="SourceAlpha" type="matrix" values="0 0 0 0 0 0 0 0 0 0 0 0 0 0 0 0 0 0 127 0" result="hardAlpha"/>
<feOffset dy="4"/>
<feGaussianBlur stdDeviation="2"/>
<feComposite in2="hardAlpha" operator="out"/>
<feColorMatrix type="matrix" values="0 0 0 0 0 0 0 0 0 0 0 0 0 0 0 0 0 0 0.25 0"/>
<feBlend mode="normal" in2="BackgroundImageFix" result="effect1_dropShadow_78_2358"/>
<feBlend mode="normal" in="SourceGraphic" in2="effect1_dropShadow_78_2358" result="shape"/>
</filter>
<filter id="filter2_d_78_2358" x="64.772" y="21.95" width="185.249" height="259.869" filterUnits="userSpaceOnUse" color-interpolation-filters="sRGB">
<feFlood flood-opacity="0" result="BackgroundImageFix"/>
<feColorMatrix in="SourceAlpha" type="matrix" values="0 0 0 0 0 0 0 0 0 0 0 0 0 0 0 0 0 0 127 0" result="hardAlpha"/>
<feOffset dy="4"/>
<feGaussianBlur stdDeviation="2"/>
<feComposite in2="hardAlpha" operator="out"/>
<feColorMatrix type="matrix" values="0 0 0 0 0 0 0 0 0 0 0 0 0 0 0 0 0 0 0.25 0"/>
<feBlend mode="normal" in2="BackgroundImageFix" result="effect1_dropShadow_78_2358"/>
<feBlend mode="normal" in="SourceGraphic" in2="effect1_dropShadow_78_2358" result="shape"/>
</filter>
<filter id="filter3_d_78_2358" x="63" y="0" width="172.894" height="90.1738" filterUnits="userSpaceOnUse" color-interpolation-filters="sRGB">
<feFlood flood-opacity="0" result="BackgroundImageFix"/>
<feColorMatrix in="SourceAlpha" type="matrix" values="0 0 0 0 0 0 0 0 0 0 0 0 0 0 0 0 0 0 127 0" result="hardAlpha"/>
<feOffset dy="4"/>
<feGaussianBlur stdDeviation="2"/>
<feComposite in2="hardAlpha" operator="out"/>
<feColorMatrix type="matrix" values="0 0 0 0 0.243137 0 0 0 0 0.0352941 0 0 0 0 0.0352941 0 0 0 1 0"/>
<feBlend mode="normal" in2="BackgroundImageFix" result="effect1_dropShadow_78_2358"/>
<feBlend mode="normal" in="SourceGraphic" in2="effect1_dropShadow_78_2358" result="shape"/>
</filter>
<filter id="filter4_d_78_2358" x="64" y="0" width="76.0996" height="80.0364" filterUnits="userSpaceOnUse" color-interpolation-filters="sRGB">
<feFlood flood-opacity="0" result="BackgroundImageFix"/>
<feColorMatrix in="SourceAlpha" type="matrix" values="0 0 0 0 0 0 0 0 0 0 0 0 0 0 0 0 0 0 127 0" result="hardAlpha"/>
<feOffset dx="-2" dy="4"/>
<feGaussianBlur stdDeviation="0.5"/>
<feComposite in2="hardAlpha" operator="out"/>
<feColorMatrix type="matrix" values="0 0 0 0 0 0 0 0 0 0 0 0 0 0 0 0 0 0 0.25 0"/>
<feBlend mode="normal" in2="BackgroundImageFix" result="effect1_dropShadow_78_2358"/>
<feBlend mode="normal" in="SourceGraphic" in2="effect1_dropShadow_78_2358" result="shape"/>
</filter>
<filter id="filter5_d_78_2358" x="153.6" y="8.86572" width="78.2939" height="78.3081" filterUnits="userSpaceOnUse" color-interpolation-filters="sRGB">
<feFlood flood-opacity="0" result="BackgroundImageFix"/>
<feColorMatrix in="SourceAlpha" type="matrix" values="0 0 0 0 0 0 0 0 0 0 0 0 0 0 0 0 0 0 127 0" result="hardAlpha"/>
<feOffset dx="-2" dy="4"/>
<feGaussianBlur stdDeviation="0.5"/>
<feComposite in2="hardAlpha" operator="out"/>
<feColorMatrix type="matrix" values="0 0 0 0 0 0 0 0 0 0 0 0 0 0 0 0 0 0 0.25 0"/>
<feBlend mode="normal" in2="BackgroundImageFix" result="effect1_dropShadow_78_2358"/>
<feBlend mode="normal" in="SourceGraphic" in2="effect1_dropShadow_78_2358" result="shape"/>
</filter>
<filter id="filter6_di_78_2358" x="120.6" y="27" width="56" height="56" filterUnits="userSpaceOnUse" color-interpolation-filters="sRGB">
<feFlood flood-opacity="0" result="BackgroundImageFix"/>
<feColorMatrix in="SourceAlpha" type="matrix" values="0 0 0 0 0 0 0 0 0 0 0 0 0 0 0 0 0 0 127 0" result="hardAlpha"/>
<feOffset dy="4"/>
<feGaussianBlur stdDeviation="2"/>
<feComposite in2="hardAlpha" operator="out"/>
<feColorMatrix type="matrix" values="0 0 0 0 0 0 0 0 0 0 0 0 0 0 0 0 0 0 0.25 0"/>
<feBlend mode="normal" in2="BackgroundImageFix" result="effect1_dropShadow_78_2358"/>
<feBlend mode="normal" in="SourceGraphic" in2="effect1_dropShadow_78_2358" result="shape"/>
<feColorMatrix in="SourceAlpha" type="matrix" values="0 0 0 0 0 0 0 0 0 0 0 0 0 0 0 0 0 0 127 0" result="hardAlpha"/>
<feOffset dx="-4" dy="4"/>
<feGaussianBlur stdDeviation="4"/>
<feComposite in2="hardAlpha" operator="arithmetic" k2="-1" k3="1"/>
<feColorMatrix type="matrix" values="0 0 0 0 0 0 0 0 0 0 0 0 0 0 0 0 0 0 0.35 0"/>
<feBlend mode="normal" in2="shape" result="effect2_innerShadow_78_2358"/>
</filter>
<radialGradient id="paint0_radial_78_2358" cx="0" cy="0" r="1" gradientUnits="userSpaceOnUse" gradientTransform="translate(148.5 72.5) rotate(103.768) scale(77.7335 163.978)">
<stop offset="0.0364583" stop-color="#573F11"/>
<stop offset="0.565548" stop-color="#C68517"/>
<stop offset="1" stop-color="#CB8719"/>
</radialGradient>
<linearGradient id="paint1_linear_78_2358" x1="90.5" y1="63" x2="90.5" y2="287.5" gradientUnits="userSpaceOnUse">
<stop stop-color="#E9A91A"/>
<stop offset="1" stop-color="#E6A319"/>
</linearGradient>
<linearGradient id="paint2_linear_78_2358" x1="210" y1="77" x2="210" y2="301.5" gradientUnits="userSpaceOnUse">
<stop stop-color="#BD820F"/>
<stop offset="1" stop-color="#B97E0E"/>
</linearGradient>
<linearGradient id="paint3_linear_78_2358" x1="210" y1="77" x2="210" y2="301.5" gradientUnits="userSpaceOnUse">
<stop stop-color="#BD820F"/>
<stop offset="1" stop-color="#B97E0E"/>
</linearGradient>
<linearGradient id="paint4_linear_78_2358" x1="149.5" y1="62" x2="149.5" y2="190" gradientUnits="userSpaceOnUse">
<stop stop-color="#E8B018"/>
<stop offset="1" stop-color="#EAAB1A"/>
</linearGradient>
<linearGradient id="paint5_linear_78_2358" x1="205.5" y1="82" x2="205.5" y2="306.5" gradientUnits="userSpaceOnUse">
<stop stop-color="#BD820F"/>
<stop offset="1" stop-color="#B97E0E"/>
</linearGradient>
<linearGradient id="paint6_linear_78_2358" x1="205.5" y1="82" x2="205.5" y2="306.5" gradientUnits="userSpaceOnUse">
<stop stop-color="#BD820F"/>
<stop offset="1" stop-color="#B97E0E"/>
</linearGradient>
</defs>
</svg>
