<svg width="135" height="140" viewBox="0 0 135 140" fill="none" xmlns="http://www.w3.org/2000/svg">
<path d="M6.49735 101.409L2.78442 50.3565L59.4066 88.182L130.184 57.5503L128.096 107.907L60.5669 139.699L6.49735 101.409Z" fill="#454545"/>
<path d="M1.46046 28.7396L72.1702 1.85632L133.666 34.5765L59.407 65.4402L1.30085 30.5315C0.585369 30.1017 0.680266 29.0362 1.46046 28.7396Z" fill="#454545"/>
<path d="M60.7998 139.699L58.7113 65.4403L1.16088 29.4713L6.49735 101.409L60.7998 139.699Z" fill="#454545"/>
<path d="M60.5674 139.931L59.6392 65.2082L130.649 35.7368L128.328 107.907L60.5674 139.931Z" fill="#454545"/>
<path d="M0 48.1957V30.5674C0 29.7845 0.858975 29.3052 1.52521 29.7164L59.407 65.4402L132.745 34.9205C133.404 34.6464 134.13 35.1303 134.13 35.8437V55.2683C134.13 55.6674 133.892 56.0283 133.526 56.1864L59.4066 88.182L0.446803 49.0288C0.167737 48.8434 0 48.5307 0 48.1957Z" fill="#454545"/>
<path d="M59.4072 86.429V66.1084C59.4072 65.7039 59.6508 65.3393 60.0244 65.1845L132.531 35.1427C133.185 34.8717 133.906 35.3476 133.914 36.0556L134.123 55.0284C134.127 55.4315 133.889 55.7978 133.519 55.9575L60.8035 87.3471C60.1434 87.6321 59.4072 87.1481 59.4072 86.429Z" fill="#454545"/>
<path d="M38.7534 51.2848L63.1195 38.2896L74.0262 32.7202L112.316 21.3493L91.4306 10.2105L17.8681 39.914L23.2055 113.708L39.9137 125.311L38.7534 51.2848Z" fill="#454545"/>
<path d="M91.4307 52.6772L65.4402 35.969L54.5335 30.3996L30.1674 18.1005L49.8923 10.4426L111.62 44.091L106.514 117.653L87.9498 126.704L91.4307 52.6772Z" fill="#454545"/>
<path d="M40.6559 0.0104097C43.4406 -0.360883 56.5132 9.29273 62.7014 14.166V24.3765L57.3642 27.6253C47.8962 34.8655 36.0921 35.2832 31.3736 34.5871C23.0195 18.8071 37.1751 0.474526 40.6559 0.0104097Z" fill="#454545"/>
<path d="M93.5192 4.17707C90.8624 3.26381 76.5477 12.6054 70.3595 17.4786V27.6891L75.6968 30.9379C85.1647 38.1782 96.9688 38.5959 101.687 37.8997C110.691 19.4929 100.945 6.7297 93.5192 4.17707Z" fill="#454545"/>
<path d="M77.7858 23.67C77.7858 29.8217 72.7988 34.8087 66.647 34.8087C60.4952 34.8087 55.5082 29.8217 55.5082 23.67C55.5082 17.5182 60.4952 12.5312 66.647 12.5312C72.7988 12.5312 77.7858 17.5182 77.7858 23.67Z" fill="#454545"/>
</svg>
