<svg width="240" height="238" viewBox="0 0 240 238" fill="none" xmlns="http://www.w3.org/2000/svg">
<g opacity="0.78">
<circle cx="189.971" cy="54.3993" r="11.4638" fill="#240000"/>
<g filter="url(#filter0_i_78_2408)">
<path d="M2.4603 4.45C21.1298 -9.30651 66.7392 12.0925 87.2102 24.5116C64.1156 29.6879 35.2127 58.4863 34.3963 59.6871C34.3959 59.6986 34.3955 59.7101 34.395 59.7217C34.3726 59.7329 34.3732 59.721 34.3963 59.6871C35.18 37.1701 2.05109 4.45 2.4603 4.45Z" fill="url(#paint0_linear_78_2408)"/>
</g>
<path d="M99.4893 152.66C95.5589 152.66 84.4772 125.365 79.4277 111.718L122.826 99.8447C116.685 117.45 103.42 152.66 99.4893 152.66Z" fill="#63787C" stroke="#53676C" stroke-width="2"/>
<g filter="url(#filter1_i_78_2408)">
<path fill-rule="evenodd" clip-rule="evenodd" d="M46.669 199.334C-72.0575 89.2 117.913 -84.8034 239.506 74.0515C235.185 81.4335 228.093 86.7392 219.085 90.7038C200.941 81.1605 167.893 66.6363 153.942 71.1856L196.528 97.5487C183.571 100.279 168.935 101.966 153.89 103.699C101.824 109.698 44.8605 116.262 35.6195 168.627C38.7584 176.27 46.1825 191.555 50.768 191.555C51.1981 191.555 54.0501 190.471 58.4657 188.792C75.0663 182.479 113.767 167.764 128.967 170.675C130.605 170.675 139.612 175.178 127.739 179.682C107.677 188.143 67.5542 209.16 67.5542 225.537C67.5542 225.818 67.6469 226.462 67.7697 227.315C68.5408 232.675 70.4993 246.287 58.1376 230.04L46.669 199.334Z" fill="url(#paint1_radial_78_2408)"/>
</g>
<path opacity="0.86" fill-rule="evenodd" clip-rule="evenodd" d="M84.9261 64.4906C137.784 38.6984 204.211 64.4741 233.197 81.8537C229.337 85.413 224.581 88.3142 219.119 90.7215C200.982 81.1784 167.901 66.6335 153.942 71.1857L196.567 97.5729C183.6 100.308 168.95 101.996 153.89 103.732C101.824 109.731 44.8603 116.294 35.6192 168.66C38.7581 176.302 46.1823 191.587 50.7678 191.587C51.1979 191.587 54.0498 190.503 58.4655 188.824C75.066 182.512 113.767 167.796 128.967 170.707C130.605 170.707 139.612 175.211 127.739 179.714C107.677 188.176 67.554 209.192 67.554 225.569C67.554 225.85 67.6466 226.494 67.7694 227.348C68.5405 232.707 70.499 246.32 58.1373 230.073L46.6687 199.366C36.5476 189.978 28.6698 180.125 22.8018 170.054C18.6217 138.844 32.6052 90.0207 84.9261 64.4906Z" fill="url(#paint2_radial_78_2408)"/>
<path d="M3.29351 104.636C25.4403 77.9861 65.1389 61.1717 89.6629 65.4537L90.4818 66.6819C91.3006 71.595 80.2463 78.9645 80.2463 78.5551C58.8598 76.7478 23.3688 94.6546 4.53479 106.036C3.58706 106.609 2.58578 105.488 3.29351 104.636Z" fill="url(#paint3_radial_78_2408)"/>
</g>
<path d="M134.29 20.4175C128.695 26.4223 118.814 43.9182 124.054 65.8631" stroke="#61603D"/>
<path d="M114.229 19.1892C104.812 36.3848 108.906 50.3051 114.23 65.8631" stroke="#61603D"/>
<path d="M95.3947 23.2834C93.7571 33.9284 95.5584 55.9551 106.04 67.0914" stroke="#61603D"/>
<circle cx="190.789" cy="54.3993" r="9.82607" fill="url(#paint4_radial_78_2408)"/>
<defs>
<filter id="filter0_i_78_2408" x="2.45654" y="-4" width="89.7534" height="63.7258" filterUnits="userSpaceOnUse" color-interpolation-filters="sRGB">
<feFlood flood-opacity="0" result="BackgroundImageFix"/>
<feBlend mode="normal" in="SourceGraphic" in2="BackgroundImageFix" result="shape"/>
<feColorMatrix in="SourceAlpha" type="matrix" values="0 0 0 0 0 0 0 0 0 0 0 0 0 0 0 0 0 0 127 0" result="hardAlpha"/>
<feOffset dx="5" dy="-4"/>
<feGaussianBlur stdDeviation="2.5"/>
<feComposite in2="hardAlpha" operator="arithmetic" k2="-1" k3="1"/>
<feColorMatrix type="matrix" values="0 0 0 0 0 0 0 0 0 0 0 0 0 0 0 0 0 0 1 0"/>
<feBlend mode="normal" in2="shape" result="effect1_innerShadow_78_2408"/>
</filter>
<filter id="filter1_i_78_2408" x="9.11279" y="10.1497" width="230.393" height="231.611" filterUnits="userSpaceOnUse" color-interpolation-filters="sRGB">
<feFlood flood-opacity="0" result="BackgroundImageFix"/>
<feBlend mode="normal" in="SourceGraphic" in2="BackgroundImageFix" result="shape"/>
<feColorMatrix in="SourceAlpha" type="matrix" values="0 0 0 0 0 0 0 0 0 0 0 0 0 0 0 0 0 0 127 0" result="hardAlpha"/>
<feOffset dy="4"/>
<feGaussianBlur stdDeviation="4"/>
<feComposite in2="hardAlpha" operator="arithmetic" k2="-1" k3="1"/>
<feColorMatrix type="matrix" values="0 0 0 0 0.2 0 0 0 0 0.266667 0 0 0 0 0.2 0 0 0 1 0"/>
<feBlend mode="normal" in2="shape" result="effect1_innerShadow_78_2408"/>
</filter>
<linearGradient id="paint0_linear_78_2408" x1="36.029" y1="0.3558" x2="44.8334" y2="59.7258" gradientUnits="userSpaceOnUse">
<stop stop-color="#838586"/>
<stop offset="1" stop-color="#585C5F"/>
</linearGradient>
<radialGradient id="paint1_radial_78_2408" cx="0" cy="0" r="1" gradientUnits="userSpaceOnUse" gradientTransform="translate(83.1122 50.7145) rotate(31.636) scale(161.576 163.551)">
<stop stop-color="#C4C4C4"/>
<stop offset="1" stop-color="#C4C4C4"/>
</radialGradient>
<radialGradient id="paint2_radial_78_2408" cx="0" cy="0" r="1" gradientUnits="userSpaceOnUse" gradientTransform="translate(127.653 145.687) rotate(-89.9353) scale(76.1388 87.2474)">
<stop offset="0.226561" stop-color="#5E868D"/>
<stop offset="1" stop-color="#A9B7BD"/>
</radialGradient>
<radialGradient id="paint3_radial_78_2408" cx="0" cy="0" r="1" gradientUnits="userSpaceOnUse" gradientTransform="translate(45.2626 86.8209) rotate(-8.7679) scale(46.1682 94.8509)">
<stop stop-color="#769BA2"/>
<stop offset="1" stop-color="#3C4C50"/>
</radialGradient>
<radialGradient id="paint4_radial_78_2408" cx="0" cy="0" r="1" gradientUnits="userSpaceOnUse" gradientTransform="translate(190.789 54.3993) rotate(90) scale(9.82607)">
<stop stop-color="#6A6A6A"/>
<stop offset="1" stop-color="#232323"/>
</radialGradient>
</defs>
</svg>
